<svg id="Layer_8" data-name="Layer 8" xmlns="http://www.w3.org/2000/svg" viewBox="0 0 355.28 297.49"><defs><style>.cls-1{fill:#f1ebfc;}.cls-12,.cls-2{fill:#7c4dff;}.cls-10,.cls-3{fill:#6200ea;}.cls-4,.cls-6{fill:#b388ff;}.cls-11,.cls-5{fill:#ede7f6;}.cls-10,.cls-11,.cls-12,.cls-6,.cls-9{fill-rule:evenodd;}.cls-7,.cls-9{fill:#fff;}.cls-8{fill:#d1c4e9;}</style></defs><title>branding</title><path class="cls-1" d="M1745.07,622.89h-55.34a10.34,10.34,0,0,0-10.33,10.33h0a10.33,10.33,0,0,0,10.33,10.33h55.34a10.32,10.32,0,0,0,10.33-10.33h0A10.33,10.33,0,0,0,1745.07,622.89Z" transform="translate(-1460.46 -392.91)"/><path class="cls-1" d="M1758.4,663.62h-82a6.7,6.7,0,0,0-6.69,6.7h0a6.69,6.69,0,0,0,6.69,6.69h82a6.69,6.69,0,0,0,6.7-6.69h0A6.7,6.7,0,0,0,1758.4,663.62Z" transform="translate(-1460.46 -392.91)"/><path class="cls-1" d="M1579.69,690.4a6.3,6.3,0,0,0,6.3-6.3v-.79a6.3,6.3,0,0,0-6.3-6.3h-13.3a6.3,6.3,0,0,0-6.3,6.3v.79a6.3,6.3,0,0,0,6.3,6.3" transform="translate(-1460.46 -392.91)"/><path class="cls-1" d="M1585.51,637.41h-60.93a11,11,0,0,0-11,11h0a11,11,0,0,0,11,11h60.93a11,11,0,0,0,11-11h0A11,11,0,0,0,1585.51,637.41Z" transform="translate(-1460.46 -392.91)"/><path class="cls-1" d="M1735.53,643.4H1697a10.42,10.42,0,0,1,7.3,3.1,9.49,9.49,0,0,1,3,6.94,10,10,0,0,1-10.33,10h38.55a9.64,9.64,0,0,1-10.32-9.79A10.22,10.22,0,0,1,1735.53,643.4Z" transform="translate(-1460.46 -392.91)"/><path class="cls-1" d="M1582.38,525.44H1483A18.55,18.55,0,0,0,1464.42,544h0A18.54,18.54,0,0,0,1483,562.55h99.41A18.55,18.55,0,0,0,1600.93,544h0A18.56,18.56,0,0,0,1582.38,525.44Z" transform="translate(-1460.46 -392.91)"/><path class="cls-1" d="M1619.77,598.6H1472.49a12,12,0,0,0-12,12h0a12,12,0,0,0,12,12h147.28a12,12,0,0,0,12-12h0A12,12,0,0,0,1619.77,598.6Z" transform="translate(-1460.46 -392.91)"/><path class="cls-1" d="M1555.05,562.69h-69.26a18.46,18.46,0,0,1,13.12,5.36,17,17,0,0,1,5.44,12.46c0,10.25-8.31,17.87-18.56,17.87h69.26c-5.12,0-9.76-1.44-13.12-4.78a17.62,17.62,0,0,1-5.43-12.74A18.22,18.22,0,0,1,1555.05,562.69Z" transform="translate(-1460.46 -392.91)"/><path class="cls-1" d="M1667.46,509.31h116.48a19.7,19.7,0,0,0,19.7-19.7h0a19.7,19.7,0,0,0-19.7-19.7H1667.46a19.7,19.7,0,0,0-19.7,19.7h0A19.7,19.7,0,0,0,1667.46,509.31Z" transform="translate(-1460.46 -392.91)"/><path class="cls-1" d="M1618.94,623.36h168.33a28.47,28.47,0,0,0,28.47-28.46h0a28.47,28.47,0,0,0-28.47-28.47H1618.94a28.46,28.46,0,0,0-28.46,28.47h0A28.46,28.46,0,0,0,1618.94,623.36Z" transform="translate(-1460.46 -392.91)"/><path class="cls-1" d="M1523.7,464.05h92.93a15.72,15.72,0,0,0,15.72-15.72h0a15.71,15.71,0,0,0-15.72-15.71H1523.7A15.71,15.71,0,0,0,1508,448.33h0A15.72,15.72,0,0,0,1523.7,464.05Z" transform="translate(-1460.46 -392.91)"/><path class="cls-1" d="M1655.12,437.22h70.64A13.18,13.18,0,0,0,1738.94,424h0a13.19,13.19,0,0,0-13.18-13.19h-70.64A13.19,13.19,0,0,0,1641.94,424h0A13.18,13.18,0,0,0,1655.12,437.22Z" transform="translate(-1460.46 -392.91)"/><path class="cls-1" d="M1552.28,410h22.07a8.56,8.56,0,0,0,8.56-8.56h0a8.55,8.55,0,0,0-8.56-8.55h-22.07a8.55,8.55,0,0,0-8.55,8.55h0A8.55,8.55,0,0,0,1552.28,410Z" transform="translate(-1460.46 -392.91)"/><rect class="cls-2" x="43.37" y="198.49" width="87" height="26"/><path class="cls-3" d="M1590.83,618.4h-87a1,1,0,0,1-1-1v-26a1,1,0,0,1,1-1h87a1,1,0,0,1,1,1v26A1,1,0,0,1,1590.83,618.4Zm-86-2h85v-24h-85Z" transform="translate(-1460.46 -392.91)"/><circle class="cls-4" cx="55.62" cy="211.49" r="6.67"/><path class="cls-3" d="M1516.08,612.08a7.68,7.68,0,1,1,7.67-7.68A7.69,7.69,0,0,1,1516.08,612.08Zm0-13.35a5.68,5.68,0,1,0,5.67,5.67A5.68,5.68,0,0,0,1516.08,598.73Z" transform="translate(-1460.46 -392.91)"/><rect class="cls-5" x="69.13" y="172.49" width="87" height="26"/><path class="cls-3" d="M1616.59,592.4h-87a1,1,0,0,1-1-1v-26a1,1,0,0,1,1-1h87a1,1,0,0,1,1,1v26A1,1,0,0,1,1616.59,592.4Zm-86-2h85v-24h-85Z" transform="translate(-1460.46 -392.91)"/><path class="cls-6" d="M1541.84,571.73a6.68,6.68,0,1,1-6.67,6.67A6.67,6.67,0,0,1,1541.84,571.73Z" transform="translate(-1460.46 -392.91)"/><path class="cls-3" d="M1541.84,586.08a7.68,7.68,0,1,1,7.67-7.68A7.69,7.69,0,0,1,1541.84,586.08Zm0-13.35a5.68,5.68,0,1,0,5.67,5.67A5.68,5.68,0,0,0,1541.84,572.73Z" transform="translate(-1460.46 -392.91)"/><path class="cls-3" d="M1704.9,560h-15.55a7.94,7.94,0,0,1-7.93-7.93v-5.42a7.94,7.94,0,0,1,7.93-7.93h15.55a7.94,7.94,0,0,1,7.93,7.93v5.42A7.94,7.94,0,0,1,1704.9,560Zm-15.55-19.28a5.94,5.94,0,0,0-5.93,5.93v5.42a5.94,5.94,0,0,0,5.93,5.93h15.55a5.94,5.94,0,0,0,5.93-5.93v-5.42a5.94,5.94,0,0,0-5.93-5.93Z" transform="translate(-1460.46 -392.91)"/><rect class="cls-7" x="181.78" y="157.79" width="109.76" height="65.71" rx="5.22" ry="5.22"/><path class="cls-3" d="M1746.78,617.4h-99.31a6.24,6.24,0,0,1-6.23-6.22V555.92a6.24,6.24,0,0,1,6.23-6.22h99.31a6.23,6.23,0,0,1,6.22,6.22v55.26A6.23,6.23,0,0,1,1746.78,617.4Zm-99.31-65.7a4.23,4.23,0,0,0-4.23,4.22v55.26a4.23,4.23,0,0,0,4.23,4.22h99.31a4.22,4.22,0,0,0,4.22-4.22V555.92a4.22,4.22,0,0,0-4.22-4.22Z" transform="translate(-1460.46 -392.91)"/><path class="cls-2" d="M1748.6,580.65l-43.38,8.46a42.45,42.45,0,0,1-16.2,0l-43.37-8.46a4.21,4.21,0,0,1-3.41-4.13V554.91a4.22,4.22,0,0,1,4.22-4.21h101.33a4.21,4.21,0,0,1,4.21,4.21v21.61A4.21,4.21,0,0,1,1748.6,580.65Z" transform="translate(-1460.46 -392.91)"/><path class="cls-3" d="M1697.12,590.89a43.61,43.61,0,0,1-8.29-.8l-43.37-8.46a5.22,5.22,0,0,1-4.22-5.11V554.91a5.22,5.22,0,0,1,5.22-5.21h101.33a5.22,5.22,0,0,1,5.21,5.21v21.61a5.21,5.21,0,0,1-4.21,5.11l-43.38,8.46A43.45,43.45,0,0,1,1697.12,590.89Zm-50.66-39.19a3.22,3.22,0,0,0-3.22,3.21v21.61a3.22,3.22,0,0,0,2.6,3.15l43.38,8.46a41.63,41.63,0,0,0,15.81,0l43.37-8.46a3.21,3.21,0,0,0,2.6-3.15V554.91a3.21,3.21,0,0,0-3.21-3.21Z" transform="translate(-1460.46 -392.91)"/><rect class="cls-8" x="230.73" y="189.77" width="11.87" height="12.16" rx="4.64" ry="4.64"/><path class="cls-3" d="M1698.42,595.84h-2.59a5.65,5.65,0,0,1-5.64-5.64v-2.88a5.65,5.65,0,0,1,5.64-5.64h2.59a5.65,5.65,0,0,1,5.64,5.64v2.88A5.65,5.65,0,0,1,1698.42,595.84Zm-2.59-12.16a3.64,3.64,0,0,0-3.64,3.64v2.88a3.64,3.64,0,0,0,3.64,3.64h2.59a3.64,3.64,0,0,0,3.64-3.64v-2.88a3.64,3.64,0,0,0-3.64-3.64Z" transform="translate(-1460.46 -392.91)"/><rect class="cls-3" x="234.37" y="193.49" width="2" height="6"/><rect class="cls-3" x="237.37" y="193.49" width="2" height="6"/><rect class="cls-3" x="21.37" y="223.49" width="10.5" height="4"/><rect class="cls-3" x="318.37" y="223.49" width="15" height="4"/><rect class="cls-3" x="36.25" y="223.49" width="272.87" height="4"/><path class="cls-3" d="M1541.84,551.14A4.2,4.2,0,1,1,1546,547,4.2,4.2,0,0,1,1541.84,551.14Zm0-6.39a2.2,2.2,0,1,0,2.2,2.2A2.2,2.2,0,0,0,1541.84,544.75Z" transform="translate(-1460.46 -392.91)"/><path class="cls-3" d="M1594.37,500.6a4.2,4.2,0,1,1,4.2-4.2A4.2,4.2,0,0,1,1594.37,500.6Zm0-6.39a2.2,2.2,0,1,0,2.2,2.19A2.19,2.19,0,0,0,1594.37,494.21Z" transform="translate(-1460.46 -392.91)"/><path class="cls-3" d="M1662.65,519.05a4.2,4.2,0,1,1,4.2-4.2A4.2,4.2,0,0,1,1662.65,519.05Zm0-6.39a2.2,2.2,0,1,0,2.2,2.19A2.19,2.19,0,0,0,1662.65,512.66Z" transform="translate(-1460.46 -392.91)"/><path class="cls-3" d="M1492.33,602.8a4.2,4.2,0,1,1,4.2-4.2A4.2,4.2,0,0,1,1492.33,602.8Zm0-6.39a2.2,2.2,0,1,0,2.2,2.19A2.19,2.19,0,0,0,1492.33,596.41Z" transform="translate(-1460.46 -392.91)"/><path class="cls-3" d="M1762.6,583.73a4.2,4.2,0,1,1,4.19-4.2A4.2,4.2,0,0,1,1762.6,583.73Zm0-6.39a2.2,2.2,0,1,0,2.19,2.19A2.2,2.2,0,0,0,1762.6,577.34Z" transform="translate(-1460.46 -392.91)"/><path class="cls-3" d="M1741.48,538.06a4.2,4.2,0,1,1,4.19-4.2A4.2,4.2,0,0,1,1741.48,538.06Zm0-6.39a2.2,2.2,0,1,0,2.19,2.19A2.19,2.19,0,0,0,1741.48,531.67Z" transform="translate(-1460.46 -392.91)"/><path class="cls-3" d="M1779.27,545.86h-1a1,1,0,0,1,0-2h1a1,1,0,0,1,0,2Z" transform="translate(-1460.46 -392.91)"/><path class="cls-3" d="M1774.29,545.86h-2a1,1,0,0,1,0-2h2a1,1,0,0,1,0,2Zm-6,0h-2a1,1,0,0,1,0-2h2a1,1,0,0,1,0,2Zm-6,0h-2a1,1,0,0,1,0-2h2a1,1,0,0,1,0,2Z" transform="translate(-1460.46 -392.91)"/><path class="cls-3" d="M1756.39,545.86h-1a1,1,0,0,1,0-2h1a1,1,0,0,1,0,2Z" transform="translate(-1460.46 -392.91)"/><path class="cls-3" d="M1514.27,583.68h-1a1,1,0,0,1,0-2h1a1,1,0,0,1,0,2Z" transform="translate(-1460.46 -392.91)"/><path class="cls-3" d="M1509.29,583.68h-2a1,1,0,0,1,0-2h2a1,1,0,0,1,0,2Zm-6,0h-2a1,1,0,0,1,0-2h2a1,1,0,0,1,0,2Zm-6,0h-2a1,1,0,0,1,0-2h2a1,1,0,0,1,0,2Z" transform="translate(-1460.46 -392.91)"/><path class="cls-3" d="M1491.38,583.68h-1a1,1,0,0,1,0-2h1a1,1,0,0,1,0,2Z" transform="translate(-1460.46 -392.91)"/><path class="cls-3" d="M1626.8,513.86h-1a1,1,0,0,1,0-2h1a1,1,0,0,1,0,2Z" transform="translate(-1460.46 -392.91)"/><path class="cls-3" d="M1621.82,513.86h-2a1,1,0,0,1,0-2h2a1,1,0,0,1,0,2Zm-6,0h-2a1,1,0,0,1,0-2h2a1,1,0,0,1,0,2Zm-6,0h-2a1,1,0,0,1,0-2h2a1,1,0,0,1,0,2Z" transform="translate(-1460.46 -392.91)"/><path class="cls-3" d="M1603.92,513.86h-1a1,1,0,0,1,0-2h1a1,1,0,0,1,0,2Z" transform="translate(-1460.46 -392.91)"/><path class="cls-3" d="M1703.13,526.44h-1a1,1,0,0,1,0-2h1a1,1,0,0,1,0,2Z" transform="translate(-1460.46 -392.91)"/><path class="cls-3" d="M1698.15,526.44h-2a1,1,0,0,1,0-2h2a1,1,0,0,1,0,2Zm-6,0h-2a1,1,0,0,1,0-2h2a1,1,0,0,1,0,2Zm-6,0h-2a1,1,0,0,1,0-2h2a1,1,0,0,1,0,2Z" transform="translate(-1460.46 -392.91)"/><path class="cls-3" d="M1680.25,526.44h-1a1,1,0,0,1,0-2h1a1,1,0,0,1,0,2Z" transform="translate(-1460.46 -392.91)"/><path class="cls-3" d="M1674.6,497.4h-1a1,1,0,0,1,0-2h1a1,1,0,0,1,0,2Z" transform="translate(-1460.46 -392.91)"/><path class="cls-3" d="M1669.62,497.4h-2a1,1,0,0,1,0-2h2a1,1,0,0,1,0,2Zm-6,0h-2a1,1,0,0,1,0-2h2a1,1,0,0,1,0,2Zm-6,0h-2a1,1,0,0,1,0-2h2a1,1,0,0,1,0,2Z" transform="translate(-1460.46 -392.91)"/><path class="cls-3" d="M1651.71,497.4h-1a1,1,0,0,1,0-2h1a1,1,0,0,1,0,2Z" transform="translate(-1460.46 -392.91)"/><path class="cls-3" d="M1544.68,502.68h-1a1,1,0,0,1,0-2h1a1,1,0,0,1,0,2Z" transform="translate(-1460.46 -392.91)"/><path class="cls-3" d="M1539.7,502.68h-2a1,1,0,0,1,0-2h2a1,1,0,0,1,0,2Zm-6,0h-2a1,1,0,0,1,0-2h2a1,1,0,0,1,0,2Zm-6,0h-2a1,1,0,0,1,0-2h2a1,1,0,0,1,0,2Z" transform="translate(-1460.46 -392.91)"/><path class="cls-3" d="M1521.79,502.68h-1a1,1,0,0,1,0-2h1a1,1,0,0,1,0,2Z" transform="translate(-1460.46 -392.91)"/><path class="cls-3" d="M1520.06,575.52a1,1,0,0,1-.7-.29l-4-4a1,1,0,0,1,0-1.41,1,1,0,0,1,1.41,0l4,4a1,1,0,0,1-.71,1.71Z" transform="translate(-1460.46 -392.91)"/><path class="cls-3" d="M1516.08,575.52a1,1,0,0,1-.7-.29,1,1,0,0,1,0-1.42l4-4a1,1,0,1,1,1.41,1.41l-4,4A1,1,0,0,1,1516.08,575.52Z" transform="translate(-1460.46 -392.91)"/><path class="cls-3" d="M1547,529.67a1,1,0,0,1-.71-.29l-4-4a1,1,0,0,1,0-1.42,1,1,0,0,1,1.41,0l4,4a1,1,0,0,1-.71,1.7Z" transform="translate(-1460.46 -392.91)"/><path class="cls-3" d="M1543.05,529.67a1,1,0,0,1-.71-.29,1,1,0,0,1,0-1.41l4-4a1,1,0,0,1,1.42,1.42l-4,4A1,1,0,0,1,1543.05,529.67Z" transform="translate(-1460.46 -392.91)"/><path class="cls-3" d="M1643.88,515.85a1,1,0,0,1-.7-.29l-4-4a1,1,0,0,1,1.42-1.41l4,4a1,1,0,0,1,0,1.41A1,1,0,0,1,1643.88,515.85Z" transform="translate(-1460.46 -392.91)"/><path class="cls-3" d="M1639.9,515.85a1,1,0,0,1-.71-1.7l4-4a1,1,0,0,1,1.41,0,1,1,0,0,1,0,1.41l-4,4A1,1,0,0,1,1639.9,515.85Z" transform="translate(-1460.46 -392.91)"/><path class="cls-3" d="M1693.18,502.59a1,1,0,0,1-.71-.29l-4-4a1,1,0,0,1,1.42-1.42l4,4a1,1,0,0,1,0,1.42A1,1,0,0,1,1693.18,502.59Z" transform="translate(-1460.46 -392.91)"/><path class="cls-3" d="M1689.2,502.59a1,1,0,0,1-.71-.29,1,1,0,0,1,0-1.42l4-4a1,1,0,0,1,1.42,1.42l-4,4A1,1,0,0,1,1689.2,502.59Z" transform="translate(-1460.46 -392.91)"/><path class="cls-3" d="M1719.16,529.67a1,1,0,0,1-.71-.29l-4-4a1,1,0,0,1,0-1.42,1,1,0,0,1,1.41,0l4,4a1,1,0,0,1,0,1.41A1,1,0,0,1,1719.16,529.67Z" transform="translate(-1460.46 -392.91)"/><path class="cls-3" d="M1715.17,529.67a1,1,0,0,1-.7-.29,1,1,0,0,1,0-1.41l4-4a1,1,0,0,1,1.41,0,1,1,0,0,1,0,1.42l-4,4A1,1,0,0,1,1715.17,529.67Z" transform="translate(-1460.46 -392.91)"/><path class="cls-3" d="M1566.24,494.59a1,1,0,0,1-.7-.29l-4-4a1,1,0,1,1,1.41-1.42l4,4a1,1,0,0,1,0,1.41A1,1,0,0,1,1566.24,494.59Z" transform="translate(-1460.46 -392.91)"/><path class="cls-3" d="M1562.26,494.59a1,1,0,0,1-.7-.29,1,1,0,0,1,0-1.41l4-4a1,1,0,0,1,1.41,0,1,1,0,0,1,0,1.42l-4,4A1,1,0,0,1,1562.26,494.59Z" transform="translate(-1460.46 -392.91)"/><path class="cls-3" d="M1774,609.41a1,1,0,0,1-.71-.29l-4-4a1,1,0,0,1,0-1.42,1,1,0,0,1,1.41,0l4,4a1,1,0,0,1,0,1.41A1,1,0,0,1,1774,609.41Z" transform="translate(-1460.46 -392.91)"/><path class="cls-3" d="M1770,609.41a1,1,0,0,1-.71-.29,1,1,0,0,1,0-1.41l4-4a1,1,0,0,1,1.42,1.42l-4,4A1,1,0,0,1,1770,609.41Z" transform="translate(-1460.46 -392.91)"/><rect class="cls-4" x="93.71" y="108.77" width="14.61" height="115.72"/><path class="cls-3" d="M1568.78,618.4h-14.61a1,1,0,0,1-1-1V501.68a1,1,0,0,1,1-1h14.61a1,1,0,0,1,1,1V617.4A1,1,0,0,1,1568.78,618.4Zm-13.61-2h12.61V502.68h-12.61Z" transform="translate(-1460.46 -392.91)"/><rect class="cls-3" x="99.99" y="111.51" width="8.87" height="2"/><rect class="cls-3" x="103.79" y="115.76" width="5.07" height="2"/><rect class="cls-3" x="99.99" y="118.95" width="8.87" height="2"/><rect class="cls-3" x="103.79" y="123.21" width="5.07" height="2"/><rect class="cls-3" x="99.99" y="127.46" width="8.87" height="2"/><rect class="cls-3" x="103.79" y="130.65" width="5.07" height="2"/><rect class="cls-3" x="99.99" y="134.9" width="8.87" height="2"/><rect class="cls-3" x="103.79" y="139.15" width="5.07" height="2"/><rect class="cls-3" x="99.99" y="142.34" width="8.87" height="2"/><rect class="cls-3" x="103.79" y="146.59" width="5.07" height="2"/><rect class="cls-3" x="99.99" y="149.78" width="8.87" height="2"/><rect class="cls-3" x="103.79" y="154.04" width="5.07" height="2"/><rect class="cls-3" x="99.99" y="158.29" width="8.87" height="2"/><rect class="cls-3" x="103.79" y="161.48" width="5.07" height="2"/><rect class="cls-3" x="99.99" y="165.73" width="8.87" height="2"/><rect class="cls-3" x="103.79" y="169.98" width="5.07" height="2"/><rect class="cls-3" x="99.99" y="173.17" width="8.87" height="2"/><rect class="cls-3" x="103.79" y="177.43" width="5.07" height="2"/><rect class="cls-3" x="99.99" y="181.68" width="8.87" height="2"/><rect class="cls-3" x="103.79" y="184.87" width="5.07" height="2"/><rect class="cls-3" x="99.99" y="189.12" width="8.87" height="2"/><rect class="cls-3" x="103.79" y="192.31" width="5.07" height="2"/><rect class="cls-3" x="99.99" y="196.56" width="8.87" height="2"/><rect class="cls-3" x="103.79" y="200.82" width="5.07" height="2"/><rect class="cls-3" x="99.99" y="204.01" width="8.87" height="2"/><rect class="cls-3" x="103.79" y="208.26" width="5.07" height="2"/><rect class="cls-3" x="99.99" y="212.51" width="8.87" height="2"/><rect class="cls-3" x="103.79" y="215.7" width="5.07" height="2"/><rect class="cls-3" x="99.99" y="219.95" width="8.87" height="2"/><g id="_Group_" data-name="&lt;Group&gt;"><g id="_Group_2" data-name="&lt;Group&gt;"><path class="cls-9" d="M1586.77,516.7c-.21-.53-6.54-10.57-6.54-10.57s-6.06,9.74-6.46,10.57Z" transform="translate(-1460.46 -392.91)"/></g><g id="_Group_3" data-name="&lt;Group&gt;"><path class="cls-3" d="M1586.77,517.7h-13a1,1,0,0,1-.9-1.43c.41-.86,5.89-9.67,6.51-10.67a1,1,0,0,1,.85-.47h0a1,1,0,0,1,.85.46c2.38,3.78,6.41,10.21,6.62,10.75a1,1,0,0,1-.1.92A1,1,0,0,1,1586.77,517.7Zm-11.26-2H1585c-1.12-1.83-3.14-5.06-4.79-7.69C1578.61,510.64,1576.62,513.86,1575.51,515.7Z" transform="translate(-1460.46 -392.91)"/></g><g id="_Group_4" data-name="&lt;Group&gt;"><polygon class="cls-10" points="116.67 118.3 122.9 118.28 119.77 113.22 116.67 118.3"/></g></g><g id="_Group_5" data-name="&lt;Group&gt;"><polygon class="cls-11" points="126.31 124.16 113.28 124.2 113.31 216.86 126.31 216.86 126.31 124.16"/></g><g id="_Group_6" data-name="&lt;Group&gt;"><path class="cls-3" d="M1586.77,610.77h-13a1,1,0,0,1-1-1l0-92.65a1,1,0,0,1,1-1l13,0h0a1,1,0,0,1,.71.29,1,1,0,0,1,.29.71v92.69A1,1,0,0,1,1586.77,610.77Zm-12-2h11V518.08l-11,0Z" transform="translate(-1460.46 -392.91)"/></g><g id="_Group_7" data-name="&lt;Group&gt;"><path class="cls-3" d="M1582.49,610.77H1578a1,1,0,0,1-1-1V517.12a1,1,0,0,1,1-1l4.47,0a.91.91,0,0,1,.72.29,1,1,0,0,1,.29.71v92.69A1,1,0,0,1,1582.49,610.77Zm-3.46-2h2.46V518.08l-2.47,0Z" transform="translate(-1460.46 -392.91)"/></g><path class="cls-12" d="M1573.72,609.77v2.86a4.78,4.78,0,0,0,4.78,4.77h3.64a4.78,4.78,0,0,0,4.77-4.77v-2.86Z" transform="translate(-1460.46 -392.91)"/><path class="cls-3" d="M1582.14,618.4h-3.64a5.78,5.78,0,0,1-5.78-5.77v-2.86a1,1,0,0,1,1-1h13.19a1,1,0,0,1,1,1v2.86A5.78,5.78,0,0,1,1582.14,618.4Zm-7.42-7.63v1.86a3.77,3.77,0,0,0,3.78,3.77h3.64a3.77,3.77,0,0,0,3.77-3.77v-1.86Z" transform="translate(-1460.46 -392.91)"/><rect class="cls-7" x="156.4" y="142.84" width="50.07" height="40.53"/><path class="cls-3" d="M1666.93,577.28h-50.07a1,1,0,0,1-1-1V535.75a1,1,0,0,1,1-1h50.07a1,1,0,0,1,1,1v40.53A1,1,0,0,1,1666.93,577.28Zm-49.07-2h48.07V536.75h-48.07Z" transform="translate(-1460.46 -392.91)"/><rect class="cls-5" x="160.95" y="147.58" width="41.25" height="30.93"/><path class="cls-3" d="M1662.65,572.42h-41.24a1,1,0,0,1-1-1V540.49a1,1,0,0,1,1-1h41.24a1,1,0,0,1,1,1v30.93A1,1,0,0,1,1662.65,572.42Zm-40.24-2h39.24V541.49h-39.24Z" transform="translate(-1460.46 -392.91)"/><path class="cls-3" d="M1655.24,561.07l-1.12,1.94-16.38-9.44-16.33,8.48v-2.53l15.84-8.22a1.1,1.1,0,0,1,1.07,0Z" transform="translate(-1460.46 -392.91)"/><path class="cls-3" d="M1662.65,556v2.67l-7.61-4.94-4.72,4.2-.92.82-1.49-1.68.37-.32,5.91-5.25a1.13,1.13,0,0,1,1.36-.11Z" transform="translate(-1460.46 -392.91)"/><path class="cls-2" d="M1650.05,546.84a3.92,3.92,0,1,1-3.92-3.92A3.92,3.92,0,0,1,1650.05,546.84Z" transform="translate(-1460.46 -392.91)"/><rect class="cls-7" x="138.41" y="133.77" width="50.07" height="40.53"/><path class="cls-3" d="M1648.94,568.21h-50.07a1,1,0,0,1-1-1V526.68a1,1,0,0,1,1-1h50.07a1,1,0,0,1,1,1v40.53A1,1,0,0,1,1648.94,568.21Zm-49.07-2h48.07V527.68h-48.07Z" transform="translate(-1460.46 -392.91)"/><rect class="cls-5" x="142.96" y="138.51" width="41.25" height="30.94"/><path class="cls-3" d="M1644.66,563.36h-41.24a1,1,0,0,1-1-1V531.42a1,1,0,0,1,1-1h41.24a1,1,0,0,1,1,1v30.94A1,1,0,0,1,1644.66,563.36Zm-40.24-2h39.24V532.42h-39.24Z" transform="translate(-1460.46 -392.91)"/><path class="cls-3" d="M1637.25,552l-1.12,1.94-16.38-9.44L1603.42,553v-2.53l15.84-8.21a1.1,1.1,0,0,1,1.07,0Z" transform="translate(-1460.46 -392.91)"/><path class="cls-3" d="M1644.66,546.9v2.67l-7.61-4.94-4.72,4.19-.92.82-1.49-1.67.37-.32,5.91-5.26a1.11,1.11,0,0,1,1.36-.1Z" transform="translate(-1460.46 -392.91)"/><path class="cls-2" d="M1632.06,537.78a3.92,3.92,0,1,1-3.92-3.92A3.92,3.92,0,0,1,1632.06,537.78Z" transform="translate(-1460.46 -392.91)"/><rect class="cls-7" x="129.36" y="147.58" width="50.07" height="40.53"/><path class="cls-3" d="M1639.89,582h-50.07a1,1,0,0,1-1-1V540.49a1,1,0,0,1,1-1h50.07a1,1,0,0,1,1,1V581A1,1,0,0,1,1639.89,582Zm-49.07-2h48.07V541.49h-48.07Z" transform="translate(-1460.46 -392.91)"/><rect class="cls-5" x="133.91" y="152.32" width="41.25" height="30.94"/><path class="cls-3" d="M1635.62,577.17h-41.25a1,1,0,0,1-1-1V545.23a1,1,0,0,1,1-1h41.25a1,1,0,0,1,1,1v30.94A1,1,0,0,1,1635.62,577.17Zm-40.25-2h39.25V546.23h-39.25Z" transform="translate(-1460.46 -392.91)"/><path class="cls-3" d="M1628.21,565.81l-1.12,2-16.39-9.45-16.33,8.48v-2.53l15.85-8.22a1.1,1.1,0,0,1,1.07,0Z" transform="translate(-1460.46 -392.91)"/><path class="cls-3" d="M1635.62,560.71v2.67l-7.61-4.94-4.72,4.19-.92.82-1.49-1.68.36-.32,5.92-5.25a1.1,1.1,0,0,1,1.35-.1Z" transform="translate(-1460.46 -392.91)"/><path class="cls-2" d="M1623,551.59a3.92,3.92,0,1,1-3.92-3.92A3.92,3.92,0,0,1,1623,551.59Z" transform="translate(-1460.46 -392.91)"/><path class="cls-4" d="M1611.09,560.49h0a4.47,4.47,0,0,0-4.47-4.48h-19a4.48,4.48,0,0,0-4.48,4.48v51.44a4.48,4.48,0,0,0,4.48,4.47H1666a4.47,4.47,0,0,0,4.47-4.47v-42.5A4.47,4.47,0,0,0,1666,565h-50.38A4.48,4.48,0,0,1,1611.09,560.49Z" transform="translate(-1460.46 -392.91)"/><path class="cls-3" d="M1666,617.4h-78.34a5.48,5.48,0,0,1-5.48-5.47V560.49a5.49,5.49,0,0,1,5.48-5.48h19a5.48,5.48,0,0,1,5.47,5.48,3.48,3.48,0,0,0,3.48,3.47H1666a5.47,5.47,0,0,1,5.47,5.47v42.5A5.47,5.47,0,0,1,1666,617.4ZM1587.61,557a3.48,3.48,0,0,0-3.48,3.48v51.44a3.47,3.47,0,0,0,3.48,3.47H1666a3.47,3.47,0,0,0,3.47-3.47v-42.5A3.48,3.48,0,0,0,1666,566h-50.38a5.49,5.49,0,0,1-5.48-5.47,3.48,3.48,0,0,0-3.47-3.48Z" transform="translate(-1460.46 -392.91)"/><rect class="cls-7" x="169.51" y="207.49" width="10.22" height="10.22"/><path class="cls-3" d="M1641.19,611.63H1629V599.4h12.22Zm-10.22-2h8.22V601.4H1631Z" transform="translate(-1460.46 -392.91)"/><rect class="cls-3" x="184.67" y="206.49" width="8" height="2"/><rect class="cls-3" x="184.67" y="211.49" width="19" height="2"/><rect class="cls-3" x="184.67" y="216.49" width="13" height="2"/><path class="cls-3" d="M1641.83,500.4h-3.93c-2,0-2.81-2.13-3.54-4-.44-1.16-1-2.74-1.66-2.74s-1.2,1.44-1.67,2.59c-.73,1.8-1.55,3.84-3.52,3.84s-2.8-2-3.53-3.81c-.47-1.14-1.06-2.56-1.68-2.56s-1.24,1.57-1.69,2.71c-.73,1.87-1.57,4-3.54,4h-5.24a1,1,0,0,1,0-2h5.24c.61,0,1.23-1.57,1.68-2.71.74-1.87,1.57-4,3.55-4s2.8,2,3.53,3.8c.47,1.15,1.05,2.57,1.68,2.57s1.2-1.43,1.67-2.59c.72-1.8,1.55-3.84,3.52-3.84s2.8,2.14,3.53,4c.45,1.15,1,2.73,1.67,2.73h3.93a1,1,0,0,1,0,2Z" transform="translate(-1460.46 -392.91)"/><path class="cls-3" d="M1729.83,517.4h-3.93c-2,0-2.81-2.13-3.54-4-.44-1.16-1-2.74-1.66-2.74s-1.2,1.44-1.67,2.59c-.73,1.8-1.55,3.84-3.52,3.84s-2.8-2-3.53-3.81c-.47-1.14-1.06-2.56-1.68-2.56s-1.24,1.57-1.69,2.71c-.73,1.87-1.57,4-3.54,4h-5.24a1,1,0,0,1,0-2h5.24c.61,0,1.23-1.57,1.68-2.71.74-1.87,1.57-4,3.55-4s2.8,2,3.53,3.8c.47,1.15,1.05,2.57,1.68,2.57s1.2-1.43,1.67-2.59c.72-1.8,1.55-3.84,3.52-3.84s2.8,2.14,3.53,4c.45,1.15,1,2.73,1.67,2.73h3.93a1,1,0,0,1,0,2Z" transform="translate(-1460.46 -392.91)"/></svg>