<svg id="Web_Development" data-name="Web Development" xmlns="http://www.w3.org/2000/svg" viewBox="0 0 355.28 297.49"><defs><style>.cls-1,.cls-6,.cls-7{fill:#b2dfdb;}.cls-1{opacity:0.25;}.cls-2{fill:#00bfa5;}.cls-3{fill:#00897b;}.cls-4,.cls-8{fill:#fff;}.cls-5,.cls-9{fill:#e0f2f1;}.cls-7,.cls-8,.cls-9{fill-rule:evenodd;}</style></defs><title>web-development</title><rect class="cls-1" x="638.52" y="623.34" width="76" height="20.66" rx="9.72" ry="9.72" transform="translate(774.86 873.98) rotate(180)"/><rect class="cls-1" x="628.83" y="664.06" width="95.39" height="13.39" rx="6.3" ry="6.3" transform="translate(774.86 948.17) rotate(180)"/><rect class="cls-1" x="807.93" y="677.46" width="25.9" height="13.39" rx="6.3" ry="6.3" transform="translate(1063.58 974.95) rotate(180)"/><rect class="cls-1" x="797.43" y="637.85" width="82.9" height="21.96" rx="10.33" ry="10.33" transform="translate(1099.57 904.31) rotate(180)"/><path class="cls-1" d="M658.39,643.85H697a10.37,10.37,0,0,0-7.3,3.09,9.45,9.45,0,0,0-3,6.95,10,10,0,0,0,10.33,10H658.39a9.66,9.66,0,0,0,10.33-9.8A10.21,10.21,0,0,0,658.39,643.85Z" transform="translate(-578.19 -393.35)"/><rect class="cls-1" x="791" y="525.89" width="136.51" height="37.11" rx="17.46" ry="17.46" transform="translate(1140.32 695.53) rotate(180)"/><rect class="cls-1" x="762.13" y="599.04" width="171.34" height="24.05" rx="10.32" ry="10.32" transform="translate(1117.41 828.78) rotate(-180)"/><path class="cls-1" d="M838.88,563.13h69.26A18.46,18.46,0,0,0,895,568.49,17,17,0,0,0,889.57,581c0,10.25,8.32,17.87,18.57,17.87H838.88c5.11,0,9.75-1.44,13.12-4.78a17.62,17.62,0,0,0,5.43-12.74A18.22,18.22,0,0,0,838.88,563.13Z" transform="translate(-578.19 -393.35)"/><rect class="cls-1" x="12.1" y="77" width="155.88" height="39.4" rx="18.53" ry="18.53"/><rect class="cls-1" y="173.52" width="225.26" height="56.94" rx="26.78" ry="26.78"/><rect class="cls-1" x="183.39" y="39.71" width="124.36" height="31.43" rx="14.79" ry="14.79"/><rect class="cls-1" x="76.8" y="17.94" width="97" height="26.37" rx="12.4" ry="12.4"/><rect class="cls-1" x="232.83" width="39.17" height="17.11" rx="8.05" ry="8.05"/><path class="cls-2" d="M771,564.26a1.37,1.37,0,0,0-1-1.09l-2-.35a1.75,1.75,0,0,1-1.23-1.06l-.81-2a1.74,1.74,0,0,1,.14-1.61l1.2-1.67a1.36,1.36,0,0,0,0-1.51l-1.08-1.28a1.37,1.37,0,0,0-1.5-.28l-1.83.91a1.72,1.72,0,0,1-1.6-.16s-.31-.24-.9-.61a10.48,10.48,0,0,0-.94-.53,1.69,1.69,0,0,1-.84-1.36v-2a1.39,1.39,0,0,0-.91-1.22L756,548a1.36,1.36,0,0,0-1.37.65l-.31.59L754,550l-.27.5a1.78,1.78,0,0,1-1.39.85l-.79.05-.36,0-1,.07a1.74,1.74,0,0,1-1.49-.63l-1.21-1.64a1.34,1.34,0,0,0-1.44-.46l-1.56.63a1.37,1.37,0,0,0-.73,1.33l.3,2a1.73,1.73,0,0,1-.64,1.49l-1.65,1.39a1.72,1.72,0,0,1-1.57.37l-1.95-.63a1.41,1.41,0,0,0-1.45.48s-.15.2-.46.7l-.43.73a1.37,1.37,0,0,0,.22,1.5l1.42,1.48a1.76,1.76,0,0,1,.38,1.57l-.53,2.1a1.72,1.72,0,0,1-1.05,1.22l-1.94.65a1.34,1.34,0,0,0-.87,1.23l.12,1.68a1.36,1.36,0,0,0,1,1.1l2,.34a1.77,1.77,0,0,1,1.23,1.07l.81,2a1.74,1.74,0,0,1-.13,1.61l-1.2,1.67a1.32,1.32,0,0,0,0,1.51l1.07,1.28a1.37,1.37,0,0,0,1.5.27l1.83-.9a1.69,1.69,0,0,1,1.6.15s.32.25.9.61.94.55.94.55a1.67,1.67,0,0,1,.85,1.35v2.05a1.37,1.37,0,0,0,.91,1.21l1.62.4a1.36,1.36,0,0,0,1.37-.65l1-1.81a1.74,1.74,0,0,1,1.38-.84l2.15-.16a1.74,1.74,0,0,1,1.49.64l1.21,1.64a1.33,1.33,0,0,0,1.44.45l1.56-.64a1.34,1.34,0,0,0,.73-1.32l-.29-2a1.7,1.7,0,0,1,.63-1.49l1.65-1.4a1.69,1.69,0,0,1,1.57-.36l1.95.62a1.41,1.41,0,0,0,1.45-.47s.15-.2.46-.71.43-.73.43-.73a1.4,1.4,0,0,0-.22-1.51l-1.42-1.46a1.75,1.75,0,0,1-.37-1.58l.52-2.09a1.76,1.76,0,0,1,1.05-1.23l1.95-.64a1.33,1.33,0,0,0,.86-1.24Z" transform="translate(-578.19 -393.35)"/><path class="cls-2" d="M761.36,572.09A10.64,10.64,0,1,1,751,555.9a9.46,9.46,0,0,1,1.07-.06,6.38,6.38,0,0,1,1,0,6.49,6.49,0,0,1,1.07.12,10.63,10.63,0,0,1,7.21,16.1Z" transform="translate(-578.19 -393.35)"/><path class="cls-2" d="M756.32,560a7.61,7.61,0,0,0-2.25-.95,7.59,7.59,0,0,0-8.2,3.38A7.59,7.59,0,1,0,756.32,560Z" transform="translate(-578.19 -393.35)"/><path class="cls-2" d="M754.64,567.91A2.73,2.73,0,1,1,750,565a2.51,2.51,0,0,1,.81-.84,2.76,2.76,0,0,1,3,0,.76.76,0,0,1,.17.13A2.71,2.71,0,0,1,754.64,567.91Z" transform="translate(-578.19 -393.35)"/><path class="cls-3" d="M748.83,586a1.75,1.75,0,0,1-.4,0l-1.67-.41a2.36,2.36,0,0,1-1.67-2.17v-2.06a.7.7,0,0,0-.29-.45s-.4-.21-1-.6a11.15,11.15,0,0,1-1-.66.79.79,0,0,0-.36-.08.36.36,0,0,0-.19,0l-1.84.9a2.42,2.42,0,0,1-2.66-.48l-1.11-1.33a2.34,2.34,0,0,1-.07-2.75l1.2-1.65a.8.8,0,0,0,0-.59l-.84-2.06a.78.78,0,0,0-.48-.45l-2-.35a2.36,2.36,0,0,1-1.87-2l-.12-1.74a2.36,2.36,0,0,1,1.55-2.25l1.94-.64a.86.86,0,0,0,.39-.45l.54-2.17a.8.8,0,0,0-.13-.64l-1.42-1.47a2.35,2.35,0,0,1-.38-2.66s.13-.25.46-.79.51-.78.51-.78a2.44,2.44,0,0,1,2.56-.83l2,.63h.11a.86.86,0,0,0,.46-.14l1.69-1.44a.8.8,0,0,0,.29-.6l-.29-2a2.35,2.35,0,0,1,1.3-2.37l1.6-.65a2.26,2.26,0,0,1,2.63.79l1.2,1.63a.8.8,0,0,0,.53.24l2.24-.16a.82.82,0,0,0,.58-.32l.94-1.8A2.38,2.38,0,0,1,756.2,547l1.67.4a2.39,2.39,0,0,1,1.67,2.17v2.07a.73.73,0,0,0,.3.47s.39.19,1,.57,1,.67,1,.67a.63.63,0,0,0,.34.08.48.48,0,0,0,.21,0l1.82-.89a2.42,2.42,0,0,1,2.66.48l1.12,1.33a2.33,2.33,0,0,1,.07,2.74l-1.19,1.66a.77.77,0,0,0-.06.59l.84,2a.8.8,0,0,0,.48.46l2,.34a2.36,2.36,0,0,1,1.87,2l.12,1.73a2.34,2.34,0,0,1-1.53,2.25l-2,.65a.82.82,0,0,0-.39.45l-.53,2.16a.83.83,0,0,0,.12.65l1.42,1.45a2.41,2.41,0,0,1,.38,2.68s-.12.25-.46.79-.51.78-.51.78a2.41,2.41,0,0,1-1.9.92h0a1.83,1.83,0,0,1-.66-.11l-1.94-.61a1,1,0,0,0-.59.14l-1.68,1.43a.75.75,0,0,0-.29.59l.29,2a2.35,2.35,0,0,1-1.31,2.38l-1.59.65a2.27,2.27,0,0,1-2.63-.79l-1.2-1.64a.8.8,0,0,0-.53-.24l-2.23.17a.79.79,0,0,0-.58.31l-1,1.81A2.4,2.4,0,0,1,748.83,586Zm-6.39-8.47A2.59,2.59,0,0,1,744,578s.31.23.83.56.85.48.87.49a2.65,2.65,0,0,1,1.39,2.24v2.06a.41.41,0,0,0,.2.25l1.57.39h0a.38.38,0,0,0,.28-.15l1-1.8a2.73,2.73,0,0,1,2.24-1.37l2.09-.15.24,0a2.76,2.76,0,0,1,2.14,1.06l1.2,1.64a.45.45,0,0,0,.27.11l1.55-.63a.43.43,0,0,0,.12-.27l-.3-2a2.72,2.72,0,0,1,1-2.45l1.58-1.34a2.79,2.79,0,0,1,2.54-.55l1.93.61a.45.45,0,0,0,.35-.11s.15-.21.42-.64a5.62,5.62,0,0,0,.36-.63.43.43,0,0,0,0-.39l-1.41-1.45a2.7,2.7,0,0,1-.61-2.58l.5-2a2.68,2.68,0,0,1,1.7-1.93l2-.65a.38.38,0,0,0,.18-.25l-.12-1.64a.57.57,0,0,0-.23-.19l-2-.34a2.76,2.76,0,0,1-2-1.73l-.79-1.94a2.69,2.69,0,0,1,.27-2.58l1.19-1.65a.44.44,0,0,0,0-.32l-1.06-1.25a1.12,1.12,0,0,0-.2,0l-1.92.91a2.72,2.72,0,0,1-2.65-.26,8.91,8.91,0,0,0-.82-.55c-.5-.31-.82-.47-.84-.48a2.69,2.69,0,0,1-1.41-2.25v-2.06a.45.45,0,0,0-.19-.26l-1.58-.38a.48.48,0,0,0-.25.15l-.95,1.8a2.75,2.75,0,0,1-2.26,1.38l-2.08.15H750a2.73,2.73,0,0,1-2.14-1.06l-1.2-1.63a.4.4,0,0,0-.27-.11l-1.55.62a.49.49,0,0,0-.12.26l.3,2a2.7,2.7,0,0,1-1,2.44l-1.58,1.35a2.76,2.76,0,0,1-2.52.55l-2-.62a.39.39,0,0,0-.34.11s-.15.21-.41.64-.41.67-.41.68a.46.46,0,0,0,0,.32l1.43,1.48a2.77,2.77,0,0,1,.61,2.57l-.51,2a2.69,2.69,0,0,1-1.7,1.92l-2,.65a.38.38,0,0,0-.18.26l.11,1.63a.46.46,0,0,0,.22.18l2,.35a2.74,2.74,0,0,1,2,1.73l.79,1.93a2.7,2.7,0,0,1-.25,2.57l-1.2,1.67a.37.37,0,0,0,0,.31l1,1.26s.08,0,.2,0l1.92-.92A2.55,2.55,0,0,1,742.44,577.49Z" transform="translate(-578.19 -393.35)"/><path class="cls-3" d="M752.31,578.12a11.65,11.65,0,0,1-1.4-23.21,10,10,0,0,1,1.12-.07,8.46,8.46,0,0,1,1.15,0,10.39,10.39,0,0,1,1.15.13,11.52,11.52,0,0,1,4.13,1.58,11.65,11.65,0,0,1-6.15,21.54Zm.11-21.29H752a6.36,6.36,0,0,0-.87.06,9.64,9.64,0,0,0-3.94,17.76,9.7,9.7,0,0,0,5.09,1.46A9.65,9.65,0,0,0,754,557a6.13,6.13,0,0,0-.94-.1A4.8,4.8,0,0,0,752.42,556.83Z" transform="translate(-578.19 -393.35)"/><path class="cls-3" d="M752.32,575.07h0a8.59,8.59,0,0,1-1.55-17,8.41,8.41,0,0,1,3.53.09,8.66,8.66,0,0,1,2.55,1.07,8.59,8.59,0,0,1-4.53,15.88Zm0-15.18a5.76,5.76,0,0,0-1.18.11,6.62,6.62,0,1,0,4.65.89,6.21,6.21,0,0,0-2-.82A6.37,6.37,0,0,0,752.32,559.89Z" transform="translate(-578.19 -393.35)"/><path class="cls-3" d="M752.3,570.21a3.66,3.66,0,0,1-1.95-.57,3.73,3.73,0,0,1-1.2-5.14,3.42,3.42,0,0,1,1.14-1.16,3.81,3.81,0,0,1,4,0,1.76,1.76,0,0,1,.29.21,3.74,3.74,0,0,1-2.28,6.7Zm0-5.47a1.74,1.74,0,0,0-1.47.82,1.73,1.73,0,1,0,2.95,1.82,1.72,1.72,0,0,0-.44-2.29l-.11-.09A1.84,1.84,0,0,0,752.31,564.74Z" transform="translate(-578.19 -393.35)"/><rect class="cls-3" x="43.37" y="223.49" width="39" height="4"/><rect class="cls-2" x="21.37" y="223.49" width="15" height="4"/><rect class="cls-3" x="318.37" y="223.49" width="15" height="4"/><rect class="cls-3" x="87.37" y="223.49" width="218" height="4"/><path class="cls-4" d="M843.48,610.41v-10.1H816.15v10.1c0,4.12-18.58,7.45-18.58,7.45h64.49S843.48,614.53,843.48,610.41Z" transform="translate(-578.19 -393.35)"/><path class="cls-5" d="M843.48,610.15v-9.84H816.15v9.84Z" transform="translate(-578.19 -393.35)"/><path class="cls-3" d="M862.06,618.86H797.57a1,1,0,0,1-.18-2c8.58-1.54,17.76-4.51,17.76-6.47v-10.1a1,1,0,0,1,1-1h27.33a1,1,0,0,1,1,1v10.1c0,2,9.18,4.93,17.76,6.47a1,1,0,0,1-.18,2Zm-55.57-2h46.65c-5.28-1.48-10.66-3.68-10.66-6.45v-9.1H817.15v9.1C817.15,613.18,811.77,615.38,806.49,616.86Z" transform="translate(-578.19 -393.35)"/><path class="cls-2" d="M880.15,531.35H779.48a3.2,3.2,0,0,0-3.16,3.23v63.88h107V534.58A3.2,3.2,0,0,0,880.15,531.35Z" transform="translate(-578.19 -393.35)"/><path class="cls-3" d="M884.31,599.46h-109V534.58a4.2,4.2,0,0,1,4.16-4.23H880.15a4.2,4.2,0,0,1,4.16,4.23Zm-107-2h105V534.58a2.2,2.2,0,0,0-2.16-2.23H779.48a2.2,2.2,0,0,0-2.16,2.23Z" transform="translate(-578.19 -393.35)"/><rect class="cls-4" x="203.27" y="142.75" width="96.84" height="57.57"/><path class="cls-4" d="M776.32,597.83V602a3.2,3.2,0,0,0,3.16,3.24H880.15a3.2,3.2,0,0,0,3.16-3.24v-4.14Z" transform="translate(-578.19 -393.35)"/><path class="cls-3" d="M880.15,606.21H779.48a4.21,4.21,0,0,1-4.16-4.24v-5.14h109V602A4.21,4.21,0,0,1,880.15,606.21Zm-102.83-7.38V602a2.2,2.2,0,0,0,2.16,2.24H880.15a2.2,2.2,0,0,0,2.16-2.24v-3.14Z" transform="translate(-578.19 -393.35)"/><rect class="cls-5" x="203.27" y="142.75" width="96.86" height="5.25"/><rect class="cls-5" x="203.27" y="196.58" width="96.86" height="3.74"/><path class="cls-3" d="M879.3,594.67H780.46V535.1H879.3Zm-96.84-2H877.3V537.1H782.46Z" transform="translate(-578.19 -393.35)"/><path class="cls-3" d="M904.06,547.54a4.2,4.2,0,1,1,4.2-4.19A4.2,4.2,0,0,1,904.06,547.54Zm0-6.39a2.2,2.2,0,1,0,2.2,2.2A2.19,2.19,0,0,0,904.06,541.15Z" transform="translate(-578.19 -393.35)"/><path class="cls-3" d="M621.56,585.17a4.2,4.2,0,1,1,4.2-4.19A4.2,4.2,0,0,1,621.56,585.17Zm0-6.39a2.2,2.2,0,1,0,2.2,2.2A2.2,2.2,0,0,0,621.56,578.78Z" transform="translate(-578.19 -393.35)"/><path class="cls-3" d="M759.91,530.08a4.2,4.2,0,1,1,4.2-4.19A4.2,4.2,0,0,1,759.91,530.08Zm0-6.39a2.2,2.2,0,1,0,2.2,2.2A2.2,2.2,0,0,0,759.91,523.69Z" transform="translate(-578.19 -393.35)"/><path class="cls-3" d="M719.18,465.49a4.2,4.2,0,1,1,4.2-4.19A4.2,4.2,0,0,1,719.18,465.49Zm0-6.39a2.2,2.2,0,1,0,2.2,2.2A2.2,2.2,0,0,0,719.18,459.1Z" transform="translate(-578.19 -393.35)"/><path class="cls-3" d="M663.76,524.54a4.2,4.2,0,1,1,4.2-4.19A4.2,4.2,0,0,1,663.76,524.54Zm0-6.39a2.2,2.2,0,1,0,2.2,2.2A2.2,2.2,0,0,0,663.76,518.15Z" transform="translate(-578.19 -393.35)"/><path class="cls-3" d="M829.06,481.79a4.2,4.2,0,1,1,4.2-4.2A4.2,4.2,0,0,1,829.06,481.79Zm0-6.4a2.2,2.2,0,1,0,2.2,2.2A2.2,2.2,0,0,0,829.06,475.39Z" transform="translate(-578.19 -393.35)"/><path class="cls-3" d="M874.75,519.45h-1a1,1,0,0,1,0-2h1a1,1,0,0,1,0,2Z" transform="translate(-578.19 -393.35)"/><path class="cls-3" d="M869.75,519.45h-2a1,1,0,0,1,0-2h2a1,1,0,0,1,0,2Zm-6,0h-2a1,1,0,0,1,0-2h2a1,1,0,0,1,0,2Zm-6,0h-2a1,1,0,0,1,0-2h2a1,1,0,0,1,0,2Zm-6,0h-2a1,1,0,0,1,0-2h2a1,1,0,0,1,0,2Z" transform="translate(-578.19 -393.35)"/><path class="cls-3" d="M844.75,519.45h-1a1,1,0,0,1,0-2h1a1,1,0,0,1,0,2Z" transform="translate(-578.19 -393.35)"/><path class="cls-3" d="M841,495.05h-1a1,1,0,0,1,0-2h1a1,1,0,0,1,0,2Z" transform="translate(-578.19 -393.35)"/><path class="cls-3" d="M836,495.05h-2a1,1,0,0,1,0-2h2a1,1,0,0,1,0,2Zm-6,0h-2a1,1,0,0,1,0-2h2a1,1,0,0,1,0,2Zm-6,0h-2a1,1,0,0,1,0-2h2a1,1,0,0,1,0,2Z" transform="translate(-578.19 -393.35)"/><path class="cls-3" d="M818.12,495.05h-1a1,1,0,0,1,0-2h1a1,1,0,0,1,0,2Z" transform="translate(-578.19 -393.35)"/><path class="cls-3" d="M771.86,465.49h-1a1,1,0,1,1,0-2h1a1,1,0,0,1,0,2Z" transform="translate(-578.19 -393.35)"/><path class="cls-3" d="M766.88,465.49h-2a1,1,0,0,1,0-2h2a1,1,0,0,1,0,2Zm-6,0h-2a1,1,0,1,1,0-2h2a1,1,0,1,1,0,2Zm-6,0h-2a1,1,0,0,1,0-2h2a1,1,0,0,1,0,2Z" transform="translate(-578.19 -393.35)"/><path class="cls-3" d="M749,465.49h-1a1,1,0,0,1,0-2h1a1,1,0,0,1,0,2Z" transform="translate(-578.19 -393.35)"/><path class="cls-3" d="M677.19,549h-1a1,1,0,0,1,0-2h1a1,1,0,0,1,0,2Z" transform="translate(-578.19 -393.35)"/><path class="cls-3" d="M672.21,549h-2a1,1,0,0,1,0-2h2a1,1,0,0,1,0,2Zm-6,0h-2a1,1,0,0,1,0-2h2a1,1,0,0,1,0,2Zm-6,0h-2a1,1,0,0,1,0-2h2a1,1,0,0,1,0,2Z" transform="translate(-578.19 -393.35)"/><path class="cls-3" d="M654.31,549h-1a1,1,0,0,1,0-2h1a1,1,0,0,1,0,2Z" transform="translate(-578.19 -393.35)"/><path class="cls-3" d="M726.47,488.85h-1a1,1,0,0,1,0-2h1a1,1,0,0,1,0,2Z" transform="translate(-578.19 -393.35)"/><path class="cls-3" d="M721.49,488.85h-2a1,1,0,0,1,0-2h2a1,1,0,0,1,0,2Zm-6,0h-2a1,1,0,0,1,0-2h2a1,1,0,0,1,0,2Zm-6,0h-2a1,1,0,0,1,0-2h2a1,1,0,0,1,0,2Z" transform="translate(-578.19 -393.35)"/><path class="cls-3" d="M703.58,488.85h-1a1,1,0,0,1,0-2h1a1,1,0,0,1,0,2Z" transform="translate(-578.19 -393.35)"/><path class="cls-3" d="M670.16,498.86h-1a1,1,0,0,1,0-2h1a1,1,0,0,1,0,2Z" transform="translate(-578.19 -393.35)"/><path class="cls-3" d="M664.86,498.86h-2.15a1,1,0,0,1,0-2h2.15a1,1,0,0,1,0,2Zm-6.45,0h-2.15a1,1,0,0,1,0-2h2.15a1,1,0,0,1,0,2Z" transform="translate(-578.19 -393.35)"/><path class="cls-3" d="M652,498.86h-1a1,1,0,0,1,0-2h1a1,1,0,0,1,0,2Z" transform="translate(-578.19 -393.35)"/><path class="cls-3" d="M633.87,599.46h-2a1,1,0,1,1,0-2h2a1,1,0,0,1,0,2Zm-6,0h-2a1,1,0,1,1,0-2h2a1,1,0,0,1,0,2Zm-6,0h-2a1,1,0,1,1,0-2h2a1,1,0,0,1,0,2Zm-6,0h-2a1,1,0,1,1,0-2h2a1,1,0,0,1,0,2Zm-6,0h-2a1,1,0,1,1,0-2h2a1,1,0,0,1,0,2Zm-6,0h-1a1,1,0,1,1,0-2h1a1,1,0,0,1,0,2Z" transform="translate(-578.19 -393.35)"/><path class="cls-3" d="M690.82,554.5a1,1,0,0,1-.71-.29l-4-4a1,1,0,0,1,0-1.42,1,1,0,0,1,1.41,0l4,4a1,1,0,0,1,0,1.41A1,1,0,0,1,690.82,554.5Z" transform="translate(-578.19 -393.35)"/><path class="cls-3" d="M686.84,554.5a1,1,0,0,1-.71-.29,1,1,0,0,1,0-1.41l4-4a1,1,0,0,1,1.42,1.42l-4,4A1,1,0,0,1,686.84,554.5Z" transform="translate(-578.19 -393.35)"/><path class="cls-3" d="M758.71,493a1,1,0,0,1-.71-.29l-4-4a1,1,0,0,1,0-1.42,1,1,0,0,1,1.41,0l4,4a1,1,0,0,1-.71,1.7Z" transform="translate(-578.19 -393.35)"/><path class="cls-3" d="M754.72,493a1,1,0,0,1-.7-.29,1,1,0,0,1,0-1.41l4-4a1,1,0,1,1,1.42,1.42l-4,4A1,1,0,0,1,754.72,493Z" transform="translate(-578.19 -393.35)"/><path class="cls-3" d="M820.13,461.09a1,1,0,0,1-.7-.29l-4-4a1,1,0,0,1,0-1.41,1,1,0,0,1,1.41,0l4,4a1,1,0,0,1-.71,1.71Z" transform="translate(-578.19 -393.35)"/><path class="cls-3" d="M816.15,461.09a1,1,0,0,1-.7-.29,1,1,0,0,1,0-1.42l4-4a1,1,0,0,1,1.41,1.41l-4,4A1,1,0,0,1,816.15,461.09Z" transform="translate(-578.19 -393.35)"/><path class="cls-3" d="M818.14,517.49a1,1,0,0,1-.7-.29l-4-4a1,1,0,0,1,0-1.41,1,1,0,0,1,1.42,0l4,4a1,1,0,0,1-.71,1.71Z" transform="translate(-578.19 -393.35)"/><path class="cls-3" d="M814.16,517.49a1,1,0,0,1-.71-.29,1,1,0,0,1,0-1.42l4-4a1,1,0,0,1,1.41,1.41l-4,4A1,1,0,0,1,814.16,517.49Z" transform="translate(-578.19 -393.35)"/><path class="cls-3" d="M673.57,485.77a1,1,0,0,1-.7-.29l-4-4a1,1,0,0,1,0-1.41,1,1,0,0,1,1.42,0l4,4a1,1,0,0,1,0,1.42A1,1,0,0,1,673.57,485.77Z" transform="translate(-578.19 -393.35)"/><path class="cls-3" d="M669.59,485.77a1,1,0,0,1-.71-.29,1,1,0,0,1,0-1.42l4-4a1,1,0,1,1,1.41,1.41l-4,4A1,1,0,0,1,669.59,485.77Z" transform="translate(-578.19 -393.35)"/><path class="cls-2" d="M198.23,81.23h15.21a3.69,3.69,0,0,1,3.69,3.69v34.21a3.69,3.69,0,0,1-3.69,3.69H198.23a3.68,3.68,0,0,1-3.68-3.68V84.91A3.68,3.68,0,0,1,198.23,81.23Z"/><path class="cls-3" d="M791.63,517.16H776.42a4.69,4.69,0,0,1-4.68-4.68V478.26a4.69,4.69,0,0,1,4.68-4.68h15.21a4.69,4.69,0,0,1,4.68,4.68v34.22A4.69,4.69,0,0,1,791.63,517.16Zm-15.21-41.58a2.68,2.68,0,0,0-2.68,2.68v34.22a2.68,2.68,0,0,0,2.68,2.68h15.21a2.68,2.68,0,0,0,2.68-2.68V478.26a2.68,2.68,0,0,0-2.68-2.68Z" transform="translate(-578.19 -393.35)"/><rect class="cls-4" x="196.44" y="85.52" width="18.79" height="32.91"/><rect class="cls-6" x="196.44" y="115.92" width="18.79" height="2.51"/><path class="cls-7" d="M784,476.77a.41.41,0,1,1-.42.41A.41.41,0,0,1,784,476.77Z" transform="translate(-578.19 -393.35)"/><path class="cls-7" d="M785.21,514.5h-2.37a.91.91,0,0,1-.9-.91h0a.91.91,0,0,1,.9-.9h2.37a.91.91,0,0,1,.9.9h0A.91.91,0,0,1,785.21,514.5Z" transform="translate(-578.19 -393.35)"/><path class="cls-2" d="M721.52,613.49V567.87a4.55,4.55,0,0,0-4.49-4.6H647.14a4.55,4.55,0,0,0-4.49,4.6v45.62Z" transform="translate(-578.19 -393.35)"/><path class="cls-3" d="M721.52,614.49H642.65a1,1,0,0,1-1-1V567.87a5.55,5.55,0,0,1,5.49-5.6H717a5.56,5.56,0,0,1,5.49,5.6v45.62A1,1,0,0,1,721.52,614.49Zm-77.87-2h76.87V567.87a3.55,3.55,0,0,0-3.49-3.6H647.14a3.54,3.54,0,0,0-3.49,3.6Z" transform="translate(-578.19 -393.35)"/><rect class="cls-4" x="68.38" y="174.27" width="71.03" height="42.34"/><path class="cls-3" d="M717.6,611h-71a1,1,0,0,1-1-1V567.63a1,1,0,0,1,1-1h71a1,1,0,0,1,1,1V610A1,1,0,0,1,717.6,611Zm-70-2h69V568.63h-69Z" transform="translate(-578.19 -393.35)"/><ellipse class="cls-4" cx="103.89" cy="172.12" rx="1.16" ry="1.19"/><path class="cls-4" d="M638.63,613.49v2.16a2.13,2.13,0,0,0,2.11,2.15h82.69a2.13,2.13,0,0,0,2.11-2.15v-2.16Z" transform="translate(-578.19 -393.35)"/><path class="cls-3" d="M723.43,618.8H640.74a3.13,3.13,0,0,1-3.11-3.15v-2.16a1,1,0,0,1,1-1h86.91a1,1,0,0,1,1,1v2.16A3.13,3.13,0,0,1,723.43,618.8Zm-83.8-4.31v1.16a1.13,1.13,0,0,0,1.11,1.15h82.69a1.14,1.14,0,0,0,1.11-1.15v-1.16Z" transform="translate(-578.19 -393.35)"/><path class="cls-8" d="M724,566.87a25.65,25.65,0,0,1,23,14.24,19.53,19.53,0,0,1,26.43,9.94,15.56,15.56,0,1,1,10.41,27.13H724a25.66,25.66,0,0,1,0-51.31Z" transform="translate(-578.19 -393.35)"/><path class="cls-9" d="M740.81,586.37a14.57,14.57,0,0,1,6.05-5.54,25.65,25.65,0,0,0-22.83-14c-.64,0-1.27,0-1.89.08C732.53,567.59,740.14,576.17,740.81,586.37Z" transform="translate(-578.19 -393.35)"/><path class="cls-9" d="M783.85,587.05a15.52,15.52,0,0,0-3.07.31c.26,0,.51,0,.78,0,13.14,0,13.12,20.38,0,20.38-10,0-12.38-11.91-7.07-17.52q-.54.42-1,.87a19.51,19.51,0,0,0-18-11.87,18.93,18.93,0,0,0-3,.24l.43,0a14.12,14.12,0,1,1-13.95,16.11,20.86,20.86,0,0,1-18.05,11.31c-11.18,0-19.47-9.15-20-20a17.57,17.57,0,0,1,2.2-9.19A25.65,25.65,0,0,0,724,618.18h59.82a15.57,15.57,0,1,0,0-31.13Z" transform="translate(-578.19 -393.35)"/><path class="cls-4" d="M834.43,618.17H777.14a6.59,6.59,0,0,1-6.58-6.58h0a6.59,6.59,0,0,1,6.58-6.58h57.29a6.59,6.59,0,0,1,6.58,6.58h0A6.59,6.59,0,0,1,834.43,618.17Z" transform="translate(-578.19 -393.35)"/><path class="cls-4" d="M814.43,599.1H783.58a2.87,2.87,0,0,1-2.87-2.87h0a2.86,2.86,0,0,1,2.87-2.86h30.85a2.86,2.86,0,0,1,2.86,2.86h0A2.87,2.87,0,0,1,814.43,599.1Z" transform="translate(-578.19 -393.35)"/><path class="cls-4" d="M841.14,602.09h-9.09a3,3,0,0,1-3-3h0a3,3,0,0,1,3-3h9.09a3,3,0,0,1,3,3h0A3,3,0,0,1,841.14,602.09Z" transform="translate(-578.19 -393.35)"/><path class="cls-4" d="M807.48,605h-11.4a3.07,3.07,0,0,0,2.16-.91,2.82,2.82,0,0,0,.89-2.06,3,3,0,0,0-3-2.94h11.4a2.84,2.84,0,0,0-3.05,2.89A3,3,0,0,0,807.48,605Z" transform="translate(-578.19 -393.35)"/><path class="cls-3" d="M834.43,618.85H724a26.48,26.48,0,1,1,23.43-39,20.26,20.26,0,0,1,8-1.6,20.47,20.47,0,0,1,18.32,11.34,16.61,16.61,0,0,1,10.05-3.29,16,16,0,0,1,9.42,3L792.1,591a14,14,0,0,0-8.25-2.67,14.5,14.5,0,0,0-9.74,3.62,1,1,0,0,1-.89.24,1,1,0,0,1-.7-.59,18.51,18.51,0,0,0-17-11.32,18.23,18.23,0,0,0-8,1.8,1,1,0,0,1-1.34-.46A24.59,24.59,0,1,0,724,616.85h110.4a5.5,5.5,0,1,0,0-11h-6.87v-2h6.87a7.5,7.5,0,1,1,0,15Z" transform="translate(-578.19 -393.35)"/><path class="cls-3" d="M804.25,603.48a1.41,1.41,0,0,0-.13-.24,2.62,2.62,0,0,1-.44-1.33,4.05,4.05,0,0,1,1.06-2.92,3.74,3.74,0,0,1,2.74-1.14h6.95a2.08,2.08,0,0,0,2.12-1.59c-.1-.89-1.13-1.41-2.12-1.41H802.56v-2h11.87a4,4,0,0,1,4.07,2.91,1,1,0,0,1,.06.35v.3a1,1,0,0,1-.06.35,4.14,4.14,0,0,1-4.07,3.09h-6.95a1.77,1.77,0,0,0-1.33.56,2.15,2.15,0,0,0-.47,1.5,2.36,2.36,0,0,0,.18.34c.08.15.16.29.22.43Z" transform="translate(-578.19 -393.35)"/><path class="cls-3" d="M841.14,602.85h-9.09a4,4,0,0,1,0-8h9.09c2.09,0,4.42,1.73,4.42,4.06S843.23,602.85,841.14,602.85Zm-9.09-6a2,2,0,0,0,0,4h9.09c1.12,0,2.42-.82,2.42-1.88a2.45,2.45,0,0,0-2.42-2.12Z" transform="translate(-578.19 -393.35)"/><rect class="cls-3" x="234.37" y="210.49" width="9" height="2"/><rect class="cls-4" x="101.08" y="105.95" width="62.29" height="39.47" rx="4.53" ry="4.53"/><path class="cls-3" d="M737,539.78H683.8a5.54,5.54,0,0,1-5.53-5.53V503.83a5.54,5.54,0,0,1,5.53-5.53H737a5.54,5.54,0,0,1,5.53,5.53v30.42A5.54,5.54,0,0,1,737,539.78ZM683.8,500.3a3.54,3.54,0,0,0-3.53,3.53v30.42a3.54,3.54,0,0,0,3.53,3.53H737a3.54,3.54,0,0,0,3.53-3.53V503.83A3.54,3.54,0,0,0,737,500.3Z" transform="translate(-578.19 -393.35)"/><rect class="cls-2" x="105.41" y="109.2" width="52.21" height="33.44"/><path class="cls-3" d="M735.81,537H683.6a1,1,0,0,1-1-1V502.55a1,1,0,0,1,1-1h52.21a1,1,0,0,1,1,1V536A1,1,0,0,1,735.81,537Zm-51.21-2h50.21V503.55H684.6Z" transform="translate(-578.19 -393.35)"/><path class="cls-2" d="M740,519.27a1.16,1.16,0,1,1-1.16-1.16A1.16,1.16,0,0,1,740,519.27Z" transform="translate(-578.19 -393.35)"/><path class="cls-2" d="M721.7,593.73a3.81,3.81,0,1,1,3.81-3.81A3.81,3.81,0,0,1,721.7,593.73Z" transform="translate(-578.19 -393.35)"/><path class="cls-2" d="M721.7,591.14a2.52,2.52,0,1,1,2.52-2.51A2.51,2.51,0,0,1,721.7,591.14Z" transform="translate(-578.19 -393.35)"/><path class="cls-3" d="M721.7,594.73a4.81,4.81,0,1,1,4.81-4.81A4.82,4.82,0,0,1,721.7,594.73Zm0-7.62a2.81,2.81,0,1,0,2.81,2.81A2.81,2.81,0,0,0,721.7,587.11Z" transform="translate(-578.19 -393.35)"/><path class="cls-2" d="M669.06,593.73a3.81,3.81,0,1,1,3.81-3.81A3.82,3.82,0,0,1,669.06,593.73Z" transform="translate(-578.19 -393.35)"/><path class="cls-2" d="M669.06,591.14a2.52,2.52,0,1,1,2.52-2.51A2.51,2.51,0,0,1,669.06,591.14Z" transform="translate(-578.19 -393.35)"/><path class="cls-3" d="M669.06,594.73a4.81,4.81,0,1,1,4.81-4.81A4.82,4.82,0,0,1,669.06,594.73Zm0-7.62a2.81,2.81,0,1,0,2.81,2.81A2.81,2.81,0,0,0,669.06,587.11Z" transform="translate(-578.19 -393.35)"/><path class="cls-2" d="M706.11,524.16a3.82,3.82,0,1,1,3.81-3.81A3.82,3.82,0,0,1,706.11,524.16Z" transform="translate(-578.19 -393.35)"/><path class="cls-2" d="M706.11,521.57a2.52,2.52,0,1,1,2.52-2.52A2.52,2.52,0,0,1,706.11,521.57Z" transform="translate(-578.19 -393.35)"/><path class="cls-3" d="M706.11,525.16a4.82,4.82,0,1,1,4.81-4.81A4.82,4.82,0,0,1,706.11,525.16Zm0-7.63a2.82,2.82,0,1,0,2.81,2.82A2.82,2.82,0,0,0,706.11,517.53Z" transform="translate(-578.19 -393.35)"/><path class="cls-3" d="M711.85,605.57H679.49a11.45,11.45,0,0,1-11.43-11.43V589a1,1,0,0,1,2,0v5.16a9.44,9.44,0,0,0,9.43,9.43h32.36a8.86,8.86,0,0,0,8.85-8.85V589a1,1,0,0,1,2,0v5.74A10.87,10.87,0,0,1,711.85,605.57Z" transform="translate(-578.19 -393.35)"/><path class="cls-3" d="M721.7,590.92H716a10.87,10.87,0,0,1-10.85-10.85V520.35a1,1,0,0,1,2,0v59.72a8.86,8.86,0,0,0,8.85,8.85h5.74a1,1,0,0,1,0,2Z" transform="translate(-578.19 -393.35)"/><path class="cls-2" d="M769,603a3.81,3.81,0,1,0-3.81-3.81A3.81,3.81,0,0,0,769,603Z" transform="translate(-578.19 -393.35)"/><path class="cls-2" d="M769,600.37a2.52,2.52,0,1,0-2.52-2.52A2.52,2.52,0,0,0,769,600.37Z" transform="translate(-578.19 -393.35)"/><path class="cls-3" d="M769,604a4.81,4.81,0,1,1,4.81-4.81A4.82,4.82,0,0,1,769,604Zm0-7.62a2.81,2.81,0,1,0,2.81,2.81A2.81,2.81,0,0,0,769,596.33Z" transform="translate(-578.19 -393.35)"/><path class="cls-2" d="M821.63,571a3.81,3.81,0,1,0-3.81-3.81A3.81,3.81,0,0,0,821.63,571Z" transform="translate(-578.19 -393.35)"/><path class="cls-2" d="M821.63,568.37a2.52,2.52,0,1,0-2.52-2.52A2.52,2.52,0,0,0,821.63,568.37Z" transform="translate(-578.19 -393.35)"/><path class="cls-3" d="M821.63,572a4.81,4.81,0,1,1,4.81-4.81A4.82,4.82,0,0,1,821.63,572Zm0-7.62a2.81,2.81,0,1,0,2.81,2.81A2.81,2.81,0,0,0,821.63,564.33Z" transform="translate(-578.19 -393.35)"/><path class="cls-2" d="M784.58,497.86a3.81,3.81,0,1,0-3.81-3.81A3.8,3.8,0,0,0,784.58,497.86Z" transform="translate(-578.19 -393.35)"/><path class="cls-2" d="M784.58,495.28a2.52,2.52,0,1,0-2.52-2.52A2.52,2.52,0,0,0,784.58,495.28Z" transform="translate(-578.19 -393.35)"/><path class="cls-3" d="M784.58,498.86a4.81,4.81,0,1,1,4.81-4.81A4.82,4.82,0,0,1,784.58,498.86Zm0-7.62a2.81,2.81,0,1,0,2.81,2.81A2.81,2.81,0,0,0,784.58,491.24Z" transform="translate(-578.19 -393.35)"/><path class="cls-3" d="M811.21,614.79H778.84A10.87,10.87,0,0,1,768,603.94V598.2a1,1,0,0,1,2,0v5.74a8.86,8.86,0,0,0,8.85,8.85h32.37a9.44,9.44,0,0,0,9.42-9.42v-37a1,1,0,0,1,2,0v37A11.44,11.44,0,0,1,811.21,614.79Z" transform="translate(-578.19 -393.35)"/><path class="cls-3" d="M774.73,600.14H769a1,1,0,0,1,0-2h5.74a8.86,8.86,0,0,0,8.85-8.85V494.05a1,1,0,0,1,2,0v95.24A10.87,10.87,0,0,1,774.73,600.14Z" transform="translate(-578.19 -393.35)"/></svg>