<svg xmlns="http://www.w3.org/2000/svg" xmlns:xlink="http://www.w3.org/1999/xlink" viewBox="0 0 457.09 423.69"><defs><style>.cls-1{isolation:isolate;}.cls-2,.cls-45{fill:#fff;}.cls-2,.cls-58{opacity:0;}.cls-3,.cls-60{fill:#fbfbfb;}.cls-3,.cls-59{opacity:0.02;}.cls-4,.cls-62{fill:#f6f6f8;}.cls-4,.cls-61{opacity:0.05;}.cls-5,.cls-64{fill:#f2f2f4;}.cls-5,.cls-63{opacity:0.07;}.cls-6,.cls-66{fill:#ededf0;}.cls-6,.cls-65{opacity:0.1;}.cls-68,.cls-7{fill:#e9e9ed;}.cls-67,.cls-7{opacity:0.12;}.cls-70,.cls-8{fill:#e4e4e9;}.cls-69,.cls-8{opacity:0.15;}.cls-72,.cls-9{fill:#e0e0e6;}.cls-71,.cls-9{opacity:0.17;}.cls-10,.cls-74{fill:#dbdbe2;}.cls-10,.cls-73{opacity:0.2;}.cls-11,.cls-76{fill:#d7d7de;}.cls-11,.cls-75{opacity:0.22;}.cls-12,.cls-78{fill:#d2d2db;}.cls-12,.cls-77{opacity:0.24;}.cls-13,.cls-80{fill:#ceced7;}.cls-13,.cls-79{opacity:0.27;}.cls-14,.cls-82{fill:#c9c9d3;}.cls-14,.cls-81{opacity:0.29;}.cls-15,.cls-84{fill:#c5c5d0;}.cls-15,.cls-83{opacity:0.32;}.cls-16,.cls-86{fill:#c1c1cc;}.cls-16,.cls-85{opacity:0.34;}.cls-17,.cls-88{fill:#bcbcc8;}.cls-17,.cls-87{opacity:0.37;}.cls-18,.cls-90{fill:#b8b8c5;}.cls-18,.cls-89{opacity:0.39;}.cls-19,.cls-92{fill:#b3b3c1;}.cls-19,.cls-91{opacity:0.41;}.cls-20,.cls-94{fill:#afafbe;}.cls-20,.cls-93{opacity:0.44;}.cls-21,.cls-96{fill:#aaaaba;}.cls-21,.cls-95{opacity:0.46;}.cls-22,.cls-98{fill:#a6a6b6;}.cls-22,.cls-97{opacity:0.49;}.cls-100,.cls-23{fill:#a1a1b3;}.cls-23,.cls-99{opacity:0.51;}.cls-102,.cls-24{fill:#9d9daf;}.cls-101,.cls-24{opacity:0.54;}.cls-104,.cls-25{fill:#9898ab;}.cls-103,.cls-25{opacity:0.56;}.cls-106,.cls-26{fill:#9494a8;}.cls-105,.cls-26{opacity:0.59;}.cls-108,.cls-27{fill:#8f8fa4;}.cls-107,.cls-27{opacity:0.61;}.cls-110,.cls-28{fill:#8b8ba1;}.cls-109,.cls-28{opacity:0.63;}.cls-112,.cls-29{fill:#86869d;}.cls-111,.cls-29{opacity:0.66;}.cls-114,.cls-30{fill:#828299;}.cls-113,.cls-30{opacity:0.68;}.cls-116,.cls-31{fill:#7e7e96;}.cls-115,.cls-31{opacity:0.71;}.cls-118,.cls-32{fill:#797992;}.cls-117,.cls-32{opacity:0.73;}.cls-120,.cls-33{fill:#75758e;}.cls-119,.cls-33{opacity:0.76;}.cls-122,.cls-34{fill:#70708b;}.cls-121,.cls-34{opacity:0.78;}.cls-124,.cls-35{fill:#6c6c87;}.cls-123,.cls-35{opacity:0.8;}.cls-126,.cls-36{fill:#676783;}.cls-125,.cls-36{opacity:0.83;}.cls-128,.cls-37{fill:#636380;}.cls-127,.cls-37{opacity:0.85;}.cls-130,.cls-38{fill:#5e5e7c;}.cls-129,.cls-38{opacity:0.88;}.cls-132,.cls-39{fill:#5a5a79;}.cls-131,.cls-39{opacity:0.9;}.cls-134,.cls-40{fill:#555575;}.cls-133,.cls-40{opacity:0.93;}.cls-136,.cls-41{fill:#515171;}.cls-135,.cls-41{opacity:0.95;}.cls-138,.cls-42{fill:#4c4c6e;}.cls-137,.cls-42{opacity:0.98;}.cls-43{fill:#48486a;}.cls-44{fill:url(#linear-gradient);}.cls-46{fill:url(#linear-gradient-2);}.cls-47{fill:#f7f7f7;}.cls-48{fill:#e5e9f4;}.cls-49{fill:#d3daed;}.cls-50{fill:url(#linear-gradient-3);}.cls-51{fill:#edf0f8;}.cls-52{fill:#dce1f1;}.cls-140,.cls-53{mix-blend-mode:multiply;}.cls-54{fill:url(#linear-gradient-4);}.cls-55{fill:#f9f7f9;}.cls-56{fill:#99a7d8;}.cls-57{fill:#f1f2f2;}.cls-139{fill:url(#linear-gradient-5);}.cls-140{fill:url(#radial-gradient);}.cls-141{fill:#ffc107;}.cls-142{fill:#fafbfd;}.cls-143{fill:#ffcd39;}.cls-144{fill:url(#linear-gradient-6);}.cls-145{fill:#bcbec0;}.cls-145,.cls-146{opacity:0.15;}.cls-146{fill:#808285;}.cls-147{fill:#c2cae8;}.cls-148,.cls-157,.cls-159{fill:#231f20;}.cls-148{opacity:0.3;}.cls-149{fill:url(#linear-gradient-7);}.cls-150{fill:#adb9e0;}.cls-151{fill:url(#linear-gradient-8);}.cls-152{fill:#dad9db;}.cls-153{fill:url(#linear-gradient-9);}.cls-154{fill:url(#linear-gradient-10);}.cls-155{fill:url(#linear-gradient-11);}.cls-156{fill:#ff9800;}.cls-157{opacity:0.2;}.cls-158{fill:url(#linear-gradient-12);}.cls-159{opacity:0.17;}.cls-160{fill:url(#linear-gradient-13);}.cls-161{fill:url(#linear-gradient-14);}.cls-162{fill:url(#linear-gradient-15);}.cls-163{fill:url(#linear-gradient-16);}.cls-164{fill:url(#linear-gradient-17);}.cls-165{fill:url(#linear-gradient-18);}.cls-166{fill:url(#linear-gradient-19);}</style><linearGradient id="linear-gradient" x1="201.45" y1="194.45" x2="401.73" y2="194.45" gradientUnits="userSpaceOnUse"><stop offset="0" stop-color="#ebe9ec"/><stop offset="1" stop-color="#99a7d8"/></linearGradient><linearGradient id="linear-gradient-2" x1="69.34" y1="316.64" x2="396.25" y2="316.64" gradientUnits="userSpaceOnUse"><stop offset="0" stop-color="#fff"/><stop offset="1" stop-color="#99a7d8"/></linearGradient><linearGradient id="linear-gradient-3" x1="321.57" y1="393.65" x2="472.34" y2="393.65" gradientUnits="userSpaceOnUse"><stop offset="0.01" stop-color="#eff1f8"/><stop offset="0.18" stop-color="#dbdff0"/><stop offset="0.53" stop-color="#b7c1e3"/><stop offset="0.82" stop-color="#a1aedb"/><stop offset="1" stop-color="#99a7d8"/></linearGradient><linearGradient id="linear-gradient-4" x1="21.85" y1="354.13" x2="105.22" y2="354.13" gradientUnits="userSpaceOnUse"><stop offset="0" stop-color="#d3daed"/><stop offset="1" stop-color="#99a7d8"/></linearGradient><linearGradient id="linear-gradient-5" x1="37.08" y1="396.73" x2="102.42" y2="396.73" gradientTransform="matrix(-1, 0, 0, 1, 186.26, 0)" xlink:href="#linear-gradient-3"/><radialGradient id="radial-gradient" cx="184.5" cy="8242.53" r="29.65" gradientTransform="translate(-20.79 -3855.89) scale(1 0.52)" gradientUnits="userSpaceOnUse"><stop offset="0" stop-color="#48486a"/><stop offset="0.03" stop-color="#505070"/><stop offset="0.29" stop-color="#8d8da3"/><stop offset="0.52" stop-color="#bebeca"/><stop offset="0.72" stop-color="#e2e2e7"/><stop offset="0.89" stop-color="#f7f7f9"/><stop offset="1" stop-color="#fff"/></radialGradient><linearGradient id="linear-gradient-6" x1="224.86" y1="163.92" x2="373.73" y2="163.92" xlink:href="#linear-gradient"/><linearGradient id="linear-gradient-7" x1="155.45" y1="120.67" x2="220.34" y2="120.67" xlink:href="#linear-gradient"/><linearGradient id="linear-gradient-8" x1="128.94" y1="62.47" x2="192.73" y2="62.47" xlink:href="#linear-gradient"/><linearGradient id="linear-gradient-9" x1="135.4" y1="57.94" x2="169.17" y2="57.94" gradientUnits="userSpaceOnUse"><stop offset="0.02" stop-color="#ffc107"/><stop offset="0.32" stop-color="#ffaf04"/><stop offset="0.71" stop-color="#ff9e01"/><stop offset="1" stop-color="#ff9800"/></linearGradient><linearGradient id="linear-gradient-10" x1="402.17" y1="137.82" x2="458.66" y2="137.82" xlink:href="#linear-gradient"/><linearGradient id="linear-gradient-11" x1="407.52" y1="148.12" x2="428.45" y2="148.12" gradientUnits="userSpaceOnUse"><stop offset="0" stop-color="#ffc107"/><stop offset="1" stop-color="#ff9800"/></linearGradient><linearGradient id="linear-gradient-12" x1="329.59" y1="152.55" x2="389.81" y2="152.55" xlink:href="#linear-gradient-9"/><linearGradient id="linear-gradient-13" x1="328.92" y1="95.78" x2="389.31" y2="95.78" xlink:href="#linear-gradient"/><linearGradient id="linear-gradient-14" x1="314.77" y1="55.69" x2="322.49" y2="55.69" xlink:href="#linear-gradient-9"/><linearGradient id="linear-gradient-15" x1="332.22" y1="70.44" x2="338.32" y2="70.44" xlink:href="#linear-gradient-9"/><linearGradient id="linear-gradient-16" x1="318.97" y1="67.45" x2="323.2" y2="67.45" xlink:href="#linear-gradient-9"/><linearGradient id="linear-gradient-17" x1="310.12" y1="73.53" x2="317.67" y2="73.53" xlink:href="#linear-gradient-9"/><linearGradient id="linear-gradient-18" x1="323.82" y1="85.65" x2="328.16" y2="85.65" xlink:href="#linear-gradient-9"/><linearGradient id="linear-gradient-19" x1="310.12" y1="83.01" x2="315" y2="83.01" xlink:href="#linear-gradient-9"/></defs><title>img-masthead-flat4</title><g class="cls-1"><g id="Graphics"><g id="Layer_6" data-name="Layer 6"><path id="_Path_" data-name="&lt;Path&gt;" class="cls-2" d="M190.93,229.17l-126,72a4.09,4.09,0,0,0,0,7.09L261.1,421.55a16.25,16.25,0,0,0,16.19,0l126-72a4.09,4.09,0,0,0,0-7.09L207.13,229.2A16.27,16.27,0,0,0,190.93,229.17Z" transform="translate(-20.79 -21.6)"/><path class="cls-3" d="M191.06,229.28,65.44,301.09a4.08,4.08,0,0,0,0,7.07L261,421.08a16.22,16.22,0,0,0,16.15,0l125.62-71.81a4.08,4.08,0,0,0,0-7.07L207.21,229.32A16.2,16.2,0,0,0,191.06,229.28Z" transform="translate(-20.79 -21.6)"/><path class="cls-4" d="M191.19,229.4,66,301a4.07,4.07,0,0,0,0,7.05l195,112.57a16.15,16.15,0,0,0,16.1,0l125.23-71.59a4.06,4.06,0,0,0,0-7.05l-195-112.58A16.18,16.18,0,0,0,191.19,229.4Z" transform="translate(-20.79 -21.6)"/><path class="cls-5" d="M191.33,229.52,66.47,300.89a4,4,0,0,0,0,7L260.85,420.15a16.13,16.13,0,0,0,16,0l124.85-71.37a4.06,4.06,0,0,0,0-7L207.37,229.55A16.09,16.09,0,0,0,191.33,229.52Z" transform="translate(-20.79 -21.6)"/><path class="cls-6" d="M191.46,229.63,67,300.78a4,4,0,0,0,0,7l193.8,111.89a16.06,16.06,0,0,0,16,0l124.46-71.15a4,4,0,0,0,0-7L207.46,229.67A16.06,16.06,0,0,0,191.46,229.63Z" transform="translate(-20.79 -21.6)"/><path class="cls-7" d="M191.59,229.75,67.5,300.68a4,4,0,0,0,0,7l193.2,111.54a16,16,0,0,0,15.95,0l124.08-70.93a4,4,0,0,0,0-7L207.54,229.78A16,16,0,0,0,191.59,229.75Z" transform="translate(-20.79 -21.6)"/><path class="cls-8" d="M191.72,229.87,68,300.58a4,4,0,0,0,0,7l192.6,111.2a16,16,0,0,0,15.9,0l123.71-70.71a4,4,0,0,0,0-7L207.62,229.9A16,16,0,0,0,191.72,229.87Z" transform="translate(-20.79 -21.6)"/><path class="cls-9" d="M191.85,230,68.53,300.48a4,4,0,0,0,0,6.94l192,110.85a15.93,15.93,0,0,0,15.85,0l123.32-70.5a4,4,0,0,0,0-6.94L207.7,230A15.91,15.91,0,0,0,191.85,230Z" transform="translate(-20.79 -21.6)"/><path class="cls-10" d="M192,230.1,69.05,300.38a4,4,0,0,0,0,6.91L260.44,417.8a15.86,15.86,0,0,0,15.8,0l122.94-70.28a4,4,0,0,0,0-6.92L207.78,230.13A15.86,15.86,0,0,0,192,230.1Z" transform="translate(-20.79 -21.6)"/><path class="cls-11" d="M192.11,230.22l-122.55,70a4,4,0,0,0,0,6.9L260.36,417.33a15.79,15.79,0,0,0,15.75,0l122.55-70.06a4,4,0,0,0,0-6.89L207.87,230.25A15.83,15.83,0,0,0,192.11,230.22Z" transform="translate(-20.79 -21.6)"/><path class="cls-12" d="M192.24,230.33,70.08,300.17a4,4,0,0,0,0,6.88L260.27,416.87a15.79,15.79,0,0,0,15.71,0l122.17-69.84a4,4,0,0,0,0-6.87L208,230.37A15.77,15.77,0,0,0,192.24,230.33Z" transform="translate(-20.79 -21.6)"/><path class="cls-13" d="M192.38,230.45,70.59,300.07a3.94,3.94,0,0,0,0,6.85L260.19,416.4a15.72,15.72,0,0,0,15.66,0l121.78-69.62a4,4,0,0,0,0-6.85L208,230.48A15.73,15.73,0,0,0,192.38,230.45Z" transform="translate(-20.79 -21.6)"/><path class="cls-14" d="M192.51,230.57,71.11,300a3.94,3.94,0,0,0,0,6.83l189,109.13a15.65,15.65,0,0,0,15.61,0l121.4-69.4a3.94,3.94,0,0,0,0-6.83l-189-109.13A15.63,15.63,0,0,0,192.51,230.57Z" transform="translate(-20.79 -21.6)"/><path class="cls-15" d="M192.64,230.68l-121,69.18a3.93,3.93,0,0,0,0,6.81L260,415.46a15.59,15.59,0,0,0,15.55,0l121-69.17a3.94,3.94,0,0,0,0-6.82L208.19,230.72A15.61,15.61,0,0,0,192.64,230.68Z" transform="translate(-20.79 -21.6)"/><path class="cls-16" d="M192.77,230.8l-120.64,69a3.92,3.92,0,0,0,0,6.79L260,415a15.57,15.57,0,0,0,15.5,0l120.64-69a3.92,3.92,0,0,0,0-6.79L208.28,230.83A15.59,15.59,0,0,0,192.77,230.8Z" transform="translate(-20.79 -21.6)"/><path class="cls-17" d="M192.9,230.92,72.65,299.66a3.91,3.91,0,0,0,0,6.77L259.86,414.52a15.52,15.52,0,0,0,15.46,0l120.25-68.74a3.9,3.9,0,0,0,0-6.77L208.36,231A15.52,15.52,0,0,0,192.9,230.92Z" transform="translate(-20.79 -21.6)"/><path class="cls-18" d="M193,231,73.16,299.56a3.89,3.89,0,0,0,0,6.74L259.78,414.06a15.47,15.47,0,0,0,15.41,0l119.87-68.52a3.89,3.89,0,0,0,0-6.75L208.44,231.07A15.47,15.47,0,0,0,193,231Z" transform="translate(-20.79 -21.6)"/><path class="cls-19" d="M193.16,231.15,73.68,299.45a3.88,3.88,0,0,0,0,6.73l186,107.41a15.43,15.43,0,0,0,15.36,0l119.48-68.3a3.88,3.88,0,0,0,0-6.73l-186-107.41A15.43,15.43,0,0,0,193.16,231.15Z" transform="translate(-20.79 -21.6)"/><path class="cls-20" d="M193.3,231.27,74.19,299.35a3.87,3.87,0,0,0,0,6.71L259.62,413.12a15.38,15.38,0,0,0,15.31,0L394,345.07a3.87,3.87,0,0,0,0-6.71L208.6,231.3A15.36,15.36,0,0,0,193.3,231.27Z" transform="translate(-20.79 -21.6)"/><path class="cls-21" d="M193.43,231.39,74.71,299.25a3.85,3.85,0,0,0,0,6.68L259.54,412.65a15.31,15.31,0,0,0,15.26,0l118.72-67.86a3.85,3.85,0,0,0,0-6.68L208.69,231.42A15.29,15.29,0,0,0,193.43,231.39Z" transform="translate(-20.79 -21.6)"/><path class="cls-22" d="M193.56,231.5,75.22,299.15a3.84,3.84,0,0,0,0,6.66L259.45,412.18a15.24,15.24,0,0,0,15.21,0L393,344.57a3.84,3.84,0,0,0,0-6.66L208.77,231.53A15.29,15.29,0,0,0,193.56,231.5Z" transform="translate(-20.79 -21.6)"/><path class="cls-23" d="M193.69,231.62,75.74,299.05a3.82,3.82,0,0,0,0,6.63l183.65,106a15.22,15.22,0,0,0,15.16,0l118-67.43a3.83,3.83,0,0,0,0-6.64l-183.65-106A15.2,15.2,0,0,0,193.69,231.62Z" transform="translate(-20.79 -21.6)"/><path class="cls-24" d="M193.82,231.74,76.25,298.94a3.82,3.82,0,0,0,0,6.62L259.29,411.25a15.18,15.18,0,0,0,15.11,0L392,344.07a3.82,3.82,0,0,0,0-6.62L208.93,231.77A15.15,15.15,0,0,0,193.82,231.74Z" transform="translate(-20.79 -21.6)"/><path class="cls-25" d="M194,231.85l-117.18,67a3.81,3.81,0,0,0,0,6.6L259.21,410.78a15.11,15.11,0,0,0,15.06,0l117.19-67a3.8,3.8,0,0,0,0-6.59L209,231.88A15.15,15.15,0,0,0,194,231.85Z" transform="translate(-20.79 -21.6)"/><path class="cls-26" d="M194.08,232,77.28,298.74a3.78,3.78,0,0,0,0,6.57l181.86,105a15.06,15.06,0,0,0,15,0l116.8-66.77a3.79,3.79,0,0,0,0-6.57L209.1,232A15.08,15.08,0,0,0,194.08,232Z" transform="translate(-20.79 -21.6)"/><path class="cls-27" d="M194.22,232.09,77.8,298.64a3.78,3.78,0,0,0,0,6.55L259,409.84a15,15,0,0,0,15,0l116.42-66.55a3.78,3.78,0,0,0,0-6.55L209.18,232.12A15,15,0,0,0,194.22,232.09Z" transform="translate(-20.79 -21.6)"/><path class="cls-28" d="M194.35,232.2l-116,66.33a3.77,3.77,0,0,0,0,6.53L259,409.37a15,15,0,0,0,14.92,0l116-66.33a3.77,3.77,0,0,0,0-6.53L209.26,232.23A15,15,0,0,0,194.35,232.2Z" transform="translate(-20.79 -21.6)"/><path class="cls-29" d="M194.48,232.32,78.82,298.43a3.76,3.76,0,0,0,0,6.51l180.07,104a14.92,14.92,0,0,0,14.87,0L389.4,342.82a3.76,3.76,0,0,0,0-6.51l-180.07-104A14.93,14.93,0,0,0,194.48,232.32Z" transform="translate(-20.79 -21.6)"/><path class="cls-30" d="M194.61,232.44,79.34,298.33a3.74,3.74,0,0,0,0,6.49L258.8,408.43a14.86,14.86,0,0,0,14.81,0l115.27-65.9a3.73,3.73,0,0,0,0-6.48L209.43,232.47A14.86,14.86,0,0,0,194.61,232.44Z" transform="translate(-20.79 -21.6)"/><path class="cls-31" d="M194.74,232.55,79.85,298.23a3.73,3.73,0,0,0,0,6.46L258.72,408a14.84,14.84,0,0,0,14.76,0l114.89-65.68a3.72,3.72,0,0,0,0-6.46L209.51,232.58A14.86,14.86,0,0,0,194.74,232.55Z" transform="translate(-20.79 -21.6)"/><path class="cls-32" d="M194.87,232.67,80.37,298.12a3.72,3.72,0,0,0,0,6.45L258.63,407.5a14.77,14.77,0,0,0,14.72,0l114.5-65.46a3.71,3.71,0,0,0,0-6.44L209.59,232.7A14.77,14.77,0,0,0,194.87,232.67Z" transform="translate(-20.79 -21.6)"/><path class="cls-33" d="M195,232.79,80.88,298a3.7,3.7,0,0,0,0,6.42L258.55,407a14.72,14.72,0,0,0,14.67,0l114.12-65.23a3.71,3.71,0,0,0,0-6.43L209.67,232.82A14.72,14.72,0,0,0,195,232.79Z" transform="translate(-20.79 -21.6)"/><path class="cls-34" d="M195.13,232.9l-113.73,65a3.69,3.69,0,0,0,0,6.4L258.47,406.56a14.68,14.68,0,0,0,14.62,0l113.73-65a3.7,3.7,0,0,0,0-6.41L209.75,232.93A14.68,14.68,0,0,0,195.13,232.9Z" transform="translate(-20.79 -21.6)"/><path class="cls-35" d="M195.27,233,81.91,297.82a3.68,3.68,0,0,0,0,6.38L258.39,406.09a14.61,14.61,0,0,0,14.57,0l113.35-64.79a3.68,3.68,0,0,0,0-6.38L209.84,233.05A14.63,14.63,0,0,0,195.27,233Z" transform="translate(-20.79 -21.6)"/><path class="cls-36" d="M195.4,233.14l-113,64.58a3.66,3.66,0,0,0,0,6.35L258.3,405.62a14.58,14.58,0,0,0,14.53,0l113-64.58a3.67,3.67,0,0,0,0-6.36L209.92,233.17A14.56,14.56,0,0,0,195.4,233.14Z" transform="translate(-20.79 -21.6)"/><path class="cls-37" d="M195.53,233.25,82.94,297.61a3.66,3.66,0,0,0,0,6.34L258.22,405.16a14.54,14.54,0,0,0,14.47,0l112.59-64.36a3.66,3.66,0,0,0,0-6.34L210,233.28A14.54,14.54,0,0,0,195.53,233.25Z" transform="translate(-20.79 -21.6)"/><path class="cls-38" d="M195.66,233.37,83.46,297.51a3.64,3.64,0,0,0,0,6.31l174.7,100.87a14.5,14.5,0,0,0,14.42,0l112.21-64.14a3.65,3.65,0,0,0,0-6.32L210.08,233.4A14.47,14.47,0,0,0,195.66,233.37Z" transform="translate(-20.79 -21.6)"/><path class="cls-39" d="M195.79,233.49,84,297.41a3.62,3.62,0,0,0,0,6.29l174.1,100.52a14.43,14.43,0,0,0,14.37,0l111.82-63.92a3.63,3.63,0,0,0,0-6.29L210.16,233.52A14.4,14.4,0,0,0,195.79,233.49Z" transform="translate(-20.79 -21.6)"/><path class="cls-40" d="M195.92,233.6,84.49,297.31a3.62,3.62,0,0,0,0,6.27L258,403.75a14.36,14.36,0,0,0,14.32,0l111.44-63.7a3.62,3.62,0,0,0,0-6.27L210.25,233.63A14.43,14.43,0,0,0,195.92,233.6Z" transform="translate(-20.79 -21.6)"/><path class="cls-41" d="M196.05,233.72,85,297.2a3.61,3.61,0,0,0,0,6.25l172.9,99.83a14.33,14.33,0,0,0,14.28,0l111.05-63.48a3.61,3.61,0,0,0,0-6.25L210.33,233.75A14.33,14.33,0,0,0,196.05,233.72Z" transform="translate(-20.79 -21.6)"/><path class="cls-42" d="M196.19,233.84,85.52,297.1a3.59,3.59,0,0,0,0,6.23l172.31,99.48a14.29,14.29,0,0,0,14.23,0l110.67-63.26a3.6,3.6,0,0,0,0-6.23L210.41,233.87A14.27,14.27,0,0,0,196.19,233.84Z" transform="translate(-20.79 -21.6)"/><path id="_Path_2" data-name="&lt;Path&gt;" class="cls-43" d="M196.32,234,86,297a3.58,3.58,0,0,0,0,6.21l171.71,99.13a14.22,14.22,0,0,0,14.18,0l110.28-63.05a3.58,3.58,0,0,0,0-6.21L210.49,234A14.22,14.22,0,0,0,196.32,234Z" transform="translate(-20.79 -21.6)"/><path id="_Path_3" data-name="&lt;Path&gt;" class="cls-44" d="M397.54,172.37,207.24,62.5a3.86,3.86,0,0,0-5.79,3.34V209.26a8.39,8.39,0,0,0,4.2,7.26L396,326.39a3.85,3.85,0,0,0,5.78-3.34V179.63A8.38,8.38,0,0,0,397.54,172.37Z" transform="translate(-20.79 -21.6)"/><path id="_Path_4" data-name="&lt;Path&gt;" class="cls-43" d="M395.08,174,204.78,64.14A3.85,3.85,0,0,0,199,67.48V210.9a8.38,8.38,0,0,0,4.19,7.26L393.49,328a3.85,3.85,0,0,0,5.78-3.34V181.27A8.38,8.38,0,0,0,395.08,174Z" transform="translate(-20.79 -21.6)"/><polygon id="_Path_5" data-name="&lt;Path&gt;" class="cls-45" points="367.2 161.47 188.13 57.48 188.13 188.68 367.2 292.66 367.2 161.47"/><path id="_Path_6" data-name="&lt;Path&gt;" class="cls-46" d="M191.28,225.07,69.41,289.35s-.67,9.52,1.93,11l186.72,107.8a15.47,15.47,0,0,0,15.41,0l119.92-68.55c5-3.07,2-11,2-11L206.69,225.1A15.47,15.47,0,0,0,191.28,225.07Z" transform="translate(-20.79 -21.6)"/><path id="_Path_7" data-name="&lt;Path&gt;" class="cls-47" d="M191.28,217.69,71.36,286.24a3.89,3.89,0,0,0,0,6.75l186.72,107.8a15.45,15.45,0,0,0,15.41,0l119.92-68.55a3.89,3.89,0,0,0,0-6.75L206.69,217.72A15.47,15.47,0,0,0,191.28,217.69Z" transform="translate(-20.79 -21.6)"/><path id="_Path_8" data-name="&lt;Path&gt;" class="cls-48" d="M180.65,306.46,149,324.53a1,1,0,0,0,0,1.77l49.22,28.42a4.09,4.09,0,0,0,4.06,0l31.61-18.07a1,1,0,0,0,0-1.78l-49.21-28.41A4.06,4.06,0,0,0,180.65,306.46Z" transform="translate(-20.79 -21.6)"/><path id="_Path_9" data-name="&lt;Path&gt;" class="cls-49" d="M204.5,228.16l10.33,6a.62.62,0,0,1,0,1.07l-5.13,3a1.37,1.37,0,0,1-1.33,0l-10.33-6a.62.62,0,0,1,0-1.07l5.13-3A1.37,1.37,0,0,1,204.5,228.16Z" transform="translate(-20.79 -21.6)"/><path id="_Path_10" data-name="&lt;Path&gt;" class="cls-49" d="M219.64,237.18l10.33,6a.62.62,0,0,1,0,1.07l-5.13,2.95a1.34,1.34,0,0,1-1.33,0l-10.33-6a.62.62,0,0,1,0-1.07l5.13-2.95A1.32,1.32,0,0,1,219.64,237.18Z" transform="translate(-20.79 -21.6)"/><path id="_Path_11" data-name="&lt;Path&gt;" class="cls-49" d="M234.84,245.72l10.33,6a.61.61,0,0,1,0,1.06L240,255.7a1.32,1.32,0,0,1-1.33,0l-10.33-6a.62.62,0,0,1,0-1.07l5.14-2.95A1.32,1.32,0,0,1,234.84,245.72Z" transform="translate(-20.79 -21.6)"/><path id="_Path_12" data-name="&lt;Path&gt;" class="cls-49" d="M250.49,254.54l10.33,6a.62.62,0,0,1,0,1.07l-5.13,2.95a1.32,1.32,0,0,1-1.33,0l-10.33-6a.61.61,0,0,1,0-1.07l5.13-3A1.32,1.32,0,0,1,250.49,254.54Z" transform="translate(-20.79 -21.6)"/><path id="_Path_13" data-name="&lt;Path&gt;" class="cls-49" d="M265.53,262.92l10.33,6a.62.62,0,0,1,0,1.07l-5.14,2.95a1.3,1.3,0,0,1-1.32,0l-10.34-6a.62.62,0,0,1,0-1.07l5.14-2.95A1.32,1.32,0,0,1,265.53,262.92Z" transform="translate(-20.79 -21.6)"/><path id="_Path_14" data-name="&lt;Path&gt;" class="cls-49" d="M280.15,271.94l10.33,6a.62.62,0,0,1,0,1.07l-5.14,2.95a1.32,1.32,0,0,1-1.33,0l-10.33-6a.62.62,0,0,1,0-1.07l5.14-2.95A1.32,1.32,0,0,1,280.15,271.94Z" transform="translate(-20.79 -21.6)"/><path id="_Path_15" data-name="&lt;Path&gt;" class="cls-49" d="M295.45,280.38l10.33,6a.62.62,0,0,1,0,1.07l-5.13,2.95a1.32,1.32,0,0,1-1.33,0l-10.33-6a.61.61,0,0,1,0-1.06l5.13-2.95A1.32,1.32,0,0,1,295.45,280.38Z" transform="translate(-20.79 -21.6)"/><path id="_Path_16" data-name="&lt;Path&gt;" class="cls-49" d="M310.53,289.36l10.33,6a.62.62,0,0,1,0,1.07l-5.13,2.95a1.32,1.32,0,0,1-1.33,0l-10.33-6a.61.61,0,0,1,0-1.06l5.13-3A1.34,1.34,0,0,1,310.53,289.36Z" transform="translate(-20.79 -21.6)"/><path id="_Path_17" data-name="&lt;Path&gt;" class="cls-49" d="M325.36,298.11l10.33,6a.62.62,0,0,1,0,1.07l-5.13,2.95a1.32,1.32,0,0,1-1.33,0l-10.33-6a.61.61,0,0,1,0-1.07L324,298.1A1.34,1.34,0,0,1,325.36,298.11Z" transform="translate(-20.79 -21.6)"/><path id="_Path_18" data-name="&lt;Path&gt;" class="cls-49" d="M341,307.11l10.33,6a.61.61,0,0,1,0,1.06l-5.13,3a1.34,1.34,0,0,1-1.33,0l-10.33-6a.62.62,0,0,1,0-1.07l5.13-2.95A1.32,1.32,0,0,1,341,307.11Z" transform="translate(-20.79 -21.6)"/><path id="_Path_19" data-name="&lt;Path&gt;" class="cls-49" d="M356.17,315.63l10.33,6a.61.61,0,0,1,0,1.06l-5.13,2.95a1.32,1.32,0,0,1-1.33,0l-10.33-6a.62.62,0,0,1,0-1.07l5.13-2.95A1.32,1.32,0,0,1,356.17,315.63Z" transform="translate(-20.79 -21.6)"/><g id="_Group_" data-name="&lt;Group&gt;"><path id="_Path_20" data-name="&lt;Path&gt;" class="cls-49" d="M183.49,239.4l7-4.1a2.92,2.92,0,0,1,2.94,0l6.84,3.94a1.46,1.46,0,0,1,0,2.5l-6.8,4.18a2.92,2.92,0,0,1-3,0l-7-4A1.46,1.46,0,0,1,183.49,239.4Z" transform="translate(-20.79 -21.6)"/><path id="_Path_21" data-name="&lt;Path&gt;" class="cls-49" d="M199.16,248.42l7-4.1a2.94,2.94,0,0,1,2.94,0l6.84,3.95a1.45,1.45,0,0,1,0,2.5l-6.8,4.18a2.92,2.92,0,0,1-3,0l-7-4A1.45,1.45,0,0,1,199.16,248.42Z" transform="translate(-20.79 -21.6)"/><path id="_Path_22" data-name="&lt;Path&gt;" class="cls-49" d="M214.38,257l7-4.1a2.94,2.94,0,0,1,2.94,0l6.84,4a1.46,1.46,0,0,1,0,2.5l-6.8,4.18a2.94,2.94,0,0,1-3,0l-7-4A1.46,1.46,0,0,1,214.38,257Z" transform="translate(-20.79 -21.6)"/><path id="_Path_23" data-name="&lt;Path&gt;" class="cls-49" d="M230.56,265.78l7-4.1a2.94,2.94,0,0,1,2.95,0l6.83,3.95a1.45,1.45,0,0,1,0,2.5l-6.8,4.17a2.92,2.92,0,0,1-3,0l-7-4A1.46,1.46,0,0,1,230.56,265.78Z" transform="translate(-20.79 -21.6)"/><path id="_Path_24" data-name="&lt;Path&gt;" class="cls-49" d="M244.83,274.16l7-4.1a2.94,2.94,0,0,1,2.94,0l6.84,3.95a1.46,1.46,0,0,1,0,2.5l-6.8,4.18a2.94,2.94,0,0,1-3,0l-7-4A1.46,1.46,0,0,1,244.83,274.16Z" transform="translate(-20.79 -21.6)"/><path id="_Path_25" data-name="&lt;Path&gt;" class="cls-49" d="M259.32,283.13l7-4.1a2.94,2.94,0,0,1,2.94,0l6.84,4a1.46,1.46,0,0,1,0,2.5l-6.8,4.18a2.94,2.94,0,0,1-3,0l-7-4A1.45,1.45,0,0,1,259.32,283.13Z" transform="translate(-20.79 -21.6)"/><path id="_Path_26" data-name="&lt;Path&gt;" class="cls-49" d="M274.8,291.62l7-4.1a2.92,2.92,0,0,1,2.94,0l6.84,3.95a1.45,1.45,0,0,1,0,2.5l-6.8,4.17a3,3,0,0,1-3,.05l-7-4A1.46,1.46,0,0,1,274.8,291.62Z" transform="translate(-20.79 -21.6)"/><path id="_Path_27" data-name="&lt;Path&gt;" class="cls-49" d="M290,300.21l7-4.1a3,3,0,0,1,2.95,0l6.84,3.95a1.46,1.46,0,0,1,0,2.5l-6.8,4.17a2.92,2.92,0,0,1-3,0l-7-4A1.46,1.46,0,0,1,290,300.21Z" transform="translate(-20.79 -21.6)"/><path id="_Path_28" data-name="&lt;Path&gt;" class="cls-49" d="M304.85,309.35l7-4.1a2.94,2.94,0,0,1,2.95,0l6.84,3.95a1.46,1.46,0,0,1,0,2.5l-6.8,4.17a2.92,2.92,0,0,1-3,0l-7-4A1.45,1.45,0,0,1,304.85,309.35Z" transform="translate(-20.79 -21.6)"/><path id="_Path_29" data-name="&lt;Path&gt;" class="cls-49" d="M321.09,318.91l7-4.1a2.92,2.92,0,0,1,2.94,0l6.84,3.95a1.46,1.46,0,0,1,0,2.5l-6.8,4.17a2.92,2.92,0,0,1-3,0l-7-4A1.45,1.45,0,0,1,321.09,318.91Z" transform="translate(-20.79 -21.6)"/><path id="_Path_30" data-name="&lt;Path&gt;" class="cls-49" d="M335.76,326.87l7-4.1a2.94,2.94,0,0,1,2.94,0l6.84,3.95a1.46,1.46,0,0,1,0,2.5l-6.8,4.18a2.94,2.94,0,0,1-3,0l-7-4A1.46,1.46,0,0,1,335.76,326.87Z" transform="translate(-20.79 -21.6)"/></g><g id="_Group_2" data-name="&lt;Group&gt;"><path id="_Path_31" data-name="&lt;Path&gt;" class="cls-49" d="M167.89,247.88l7-4.09a2.89,2.89,0,0,1,2.94,0l6.84,3.94a1.46,1.46,0,0,1,0,2.51l-6.8,4.17a2.92,2.92,0,0,1-3,0l-7-4A1.45,1.45,0,0,1,167.89,247.88Z" transform="translate(-20.79 -21.6)"/><path id="_Path_32" data-name="&lt;Path&gt;" class="cls-49" d="M183.56,256.9l7-4.1a2.94,2.94,0,0,1,2.95,0l6.83,3.94a1.46,1.46,0,0,1,0,2.51l-6.8,4.17a2.92,2.92,0,0,1-3,0l-7-4A1.46,1.46,0,0,1,183.56,256.9Z" transform="translate(-20.79 -21.6)"/><path id="_Path_33" data-name="&lt;Path&gt;" class="cls-49" d="M198.78,265.44l7-4.1a2.94,2.94,0,0,1,2.94,0l6.84,3.95a1.45,1.45,0,0,1,0,2.5l-6.8,4.18a2.92,2.92,0,0,1-3,0l-7-4A1.45,1.45,0,0,1,198.78,265.44Z" transform="translate(-20.79 -21.6)"/><path id="_Path_34" data-name="&lt;Path&gt;" class="cls-49" d="M215,274.26l7-4.1a2.94,2.94,0,0,1,2.94,0l6.84,4a1.46,1.46,0,0,1,0,2.5l-6.8,4.18a2.94,2.94,0,0,1-3,0l-7-4A1.45,1.45,0,0,1,215,274.26Z" transform="translate(-20.79 -21.6)"/><path id="_Path_35" data-name="&lt;Path&gt;" class="cls-49" d="M229.23,282.64l7-4.1a2.94,2.94,0,0,1,2.94,0l6.84,4a1.45,1.45,0,0,1,0,2.5l-6.8,4.18a2.94,2.94,0,0,1-3,0l-7-4A1.45,1.45,0,0,1,229.23,282.64Z" transform="translate(-20.79 -21.6)"/><path id="_Path_36" data-name="&lt;Path&gt;" class="cls-49" d="M243.72,291.61l7-4.1a2.94,2.94,0,0,1,2.94,0l6.84,3.95a1.45,1.45,0,0,1,0,2.5l-6.79,4.18a2.93,2.93,0,0,1-3,0l-7-4A1.46,1.46,0,0,1,243.72,291.61Z" transform="translate(-20.79 -21.6)"/><path id="_Path_37" data-name="&lt;Path&gt;" class="cls-49" d="M259.2,300.1l7-4.1a3,3,0,0,1,2.95,0l6.84,3.95a1.46,1.46,0,0,1,0,2.5l-6.8,4.17a2.92,2.92,0,0,1-3,.05l-7-4A1.46,1.46,0,0,1,259.2,300.1Z" transform="translate(-20.79 -21.6)"/><path id="_Path_38" data-name="&lt;Path&gt;" class="cls-49" d="M274.36,308.69l7-4.1a2.94,2.94,0,0,1,2.94,0l6.84,3.95a1.46,1.46,0,0,1,0,2.5l-6.8,4.18a2.94,2.94,0,0,1-3,0l-7-4A1.45,1.45,0,0,1,274.36,308.69Z" transform="translate(-20.79 -21.6)"/><path id="_Path_39" data-name="&lt;Path&gt;" class="cls-49" d="M289.26,317.83l7-4.1a2.92,2.92,0,0,1,2.94,0l6.84,3.95a1.46,1.46,0,0,1,0,2.5l-6.8,4.17a2.92,2.92,0,0,1-3,0l-7-4A1.45,1.45,0,0,1,289.26,317.83Z" transform="translate(-20.79 -21.6)"/><path id="_Path_40" data-name="&lt;Path&gt;" class="cls-49" d="M305.49,327.39l7-4.1a2.92,2.92,0,0,1,2.94,0l6.84,4a1.45,1.45,0,0,1,0,2.5l-6.79,4.17a2.93,2.93,0,0,1-3,0l-7-4A1.46,1.46,0,0,1,305.49,327.39Z" transform="translate(-20.79 -21.6)"/><path id="_Path_41" data-name="&lt;Path&gt;" class="cls-49" d="M320.17,335.35l7-4.1a2.94,2.94,0,0,1,2.94,0l6.84,3.95a1.45,1.45,0,0,1,0,2.5l-6.8,4.18a2.94,2.94,0,0,1-3,0l-7-4A1.45,1.45,0,0,1,320.17,335.35Z" transform="translate(-20.79 -21.6)"/></g><g id="_Group_3" data-name="&lt;Group&gt;"><path id="_Path_42" data-name="&lt;Path&gt;" class="cls-49" d="M152.29,256.37l7-4.1a2.94,2.94,0,0,1,3,0l6.83,3.95a1.45,1.45,0,0,1,0,2.5l-6.8,4.17a2.92,2.92,0,0,1-3,0l-7-4A1.45,1.45,0,0,1,152.29,256.37Z" transform="translate(-20.79 -21.6)"/><path id="_Path_43" data-name="&lt;Path&gt;" class="cls-49" d="M168,265.38l7-4.09a2.89,2.89,0,0,1,2.94,0l6.84,3.94a1.47,1.47,0,0,1,0,2.51L178,271.9a2.92,2.92,0,0,1-3,0l-7-4A1.45,1.45,0,0,1,168,265.38Z" transform="translate(-20.79 -21.6)"/><path id="_Path_44" data-name="&lt;Path&gt;" class="cls-49" d="M183.18,273.92l7-4.1a2.94,2.94,0,0,1,2.95,0l6.83,3.94a1.46,1.46,0,0,1,0,2.51l-6.8,4.17a2.92,2.92,0,0,1-3,0l-7-4A1.46,1.46,0,0,1,183.18,273.92Z" transform="translate(-20.79 -21.6)"/><path id="_Path_45" data-name="&lt;Path&gt;" class="cls-49" d="M199.37,282.74l7-4.1a2.94,2.94,0,0,1,2.94,0l6.84,3.95a1.45,1.45,0,0,1,0,2.5l-6.8,4.18a3,3,0,0,1-3,0l-7-4A1.46,1.46,0,0,1,199.37,282.74Z" transform="translate(-20.79 -21.6)"/><path id="_Path_46" data-name="&lt;Path&gt;" class="cls-49" d="M213.63,291.12l7-4.1a3,3,0,0,1,3,0l6.83,3.95a1.45,1.45,0,0,1,0,2.5l-6.8,4.18a2.92,2.92,0,0,1-3,0l-7-4A1.46,1.46,0,0,1,213.63,291.12Z" transform="translate(-20.79 -21.6)"/><path id="_Path_47" data-name="&lt;Path&gt;" class="cls-49" d="M228.12,300.09l7-4.09a2.91,2.91,0,0,1,2.95,0l6.83,3.94a1.46,1.46,0,0,1,0,2.51l-6.8,4.17a2.92,2.92,0,0,1-3,0l-7-4A1.46,1.46,0,0,1,228.12,300.09Z" transform="translate(-20.79 -21.6)"/><path id="_Path_48" data-name="&lt;Path&gt;" class="cls-49" d="M243.61,308.58l7-4.1a2.94,2.94,0,0,1,2.94,0l6.84,3.95a1.46,1.46,0,0,1,0,2.5l-6.8,4.18a2.94,2.94,0,0,1-3,0l-7-4A1.45,1.45,0,0,1,243.61,308.58Z" transform="translate(-20.79 -21.6)"/><path id="_Path_49" data-name="&lt;Path&gt;" class="cls-49" d="M258.76,317.17l7-4.1a3,3,0,0,1,2.95,0l6.83,3.95a1.45,1.45,0,0,1,0,2.5l-6.8,4.18a3,3,0,0,1-3,0l-7-4A1.46,1.46,0,0,1,258.76,317.17Z" transform="translate(-20.79 -21.6)"/><path id="_Path_50" data-name="&lt;Path&gt;" class="cls-49" d="M273.66,326.31l7-4.1a2.92,2.92,0,0,1,2.94,0l6.84,3.95a1.45,1.45,0,0,1,0,2.5l-6.8,4.17a2.93,2.93,0,0,1-3,.05l-7-4A1.46,1.46,0,0,1,273.66,326.31Z" transform="translate(-20.79 -21.6)"/><path id="_Path_51" data-name="&lt;Path&gt;" class="cls-49" d="M289.89,335.87l7-4.1a3,3,0,0,1,2.95,0l6.83,3.95a1.45,1.45,0,0,1,0,2.5l-6.8,4.17a2.92,2.92,0,0,1-3,.05l-7-4A1.46,1.46,0,0,1,289.89,335.87Z" transform="translate(-20.79 -21.6)"/><path id="_Path_52" data-name="&lt;Path&gt;" class="cls-49" d="M304.57,343.83l7-4.1a3,3,0,0,1,2.95,0l6.83,3.95a1.45,1.45,0,0,1,0,2.5l-6.8,4.18a2.93,2.93,0,0,1-3,0l-7-4A1.46,1.46,0,0,1,304.57,343.83Z" transform="translate(-20.79 -21.6)"/></g><g id="_Group_4" data-name="&lt;Group&gt;"><path id="_Path_53" data-name="&lt;Path&gt;" class="cls-49" d="M136.7,264.85l7-4.1a2.92,2.92,0,0,1,2.94,0l6.84,3.95a1.46,1.46,0,0,1,0,2.5l-6.8,4.17a2.92,2.92,0,0,1-3,0l-7-4A1.45,1.45,0,0,1,136.7,264.85Z" transform="translate(-20.79 -21.6)"/><path id="_Path_54" data-name="&lt;Path&gt;" class="cls-49" d="M152.37,273.87l7-4.1a2.92,2.92,0,0,1,2.94,0l6.84,3.95a1.45,1.45,0,0,1,0,2.5l-6.79,4.17a2.93,2.93,0,0,1-3,0l-7-4A1.45,1.45,0,0,1,152.37,273.87Z" transform="translate(-20.79 -21.6)"/><path id="_Path_55" data-name="&lt;Path&gt;" class="cls-49" d="M167.59,282.4l7-4.09a2.89,2.89,0,0,1,2.94,0l6.84,3.94a1.47,1.47,0,0,1,0,2.51l-6.8,4.17a2.92,2.92,0,0,1-3,0l-7-4A1.45,1.45,0,0,1,167.59,282.4Z" transform="translate(-20.79 -21.6)"/><path id="_Path_56" data-name="&lt;Path&gt;" class="cls-49" d="M183.77,291.22l7-4.1a3,3,0,0,1,2.95,0l6.84,3.95a1.46,1.46,0,0,1,0,2.5l-6.8,4.18a2.92,2.92,0,0,1-3,0l-7-4A1.46,1.46,0,0,1,183.77,291.22Z" transform="translate(-20.79 -21.6)"/><path id="_Path_57" data-name="&lt;Path&gt;" class="cls-49" d="M199.37,300.53l7-4.1a2.94,2.94,0,0,1,2.94,0L244.9,317a1.45,1.45,0,0,1,0,2.5l-6.8,4.18a2.94,2.94,0,0,1-3,0l-35.77-20.65A1.46,1.46,0,0,1,199.37,300.53Z" transform="translate(-20.79 -21.6)"/><path id="_Path_58" data-name="&lt;Path&gt;" class="cls-49" d="M243.17,325.65l7-4.1a2.94,2.94,0,0,1,2.94,0l6.84,3.95a1.46,1.46,0,0,1,0,2.5l-6.8,4.18a2.92,2.92,0,0,1-3,0l-7-4A1.46,1.46,0,0,1,243.17,325.65Z" transform="translate(-20.79 -21.6)"/><path id="_Path_59" data-name="&lt;Path&gt;" class="cls-49" d="M258.06,334.79l7-4.1a3,3,0,0,1,2.95,0l6.84,3.95a1.46,1.46,0,0,1,0,2.5l-6.8,4.18a2.94,2.94,0,0,1-3,0l-7-4A1.46,1.46,0,0,1,258.06,334.79Z" transform="translate(-20.79 -21.6)"/><path id="_Path_60" data-name="&lt;Path&gt;" class="cls-49" d="M274.3,344.35l7-4.1a2.94,2.94,0,0,1,2.94,0l6.84,3.95a1.46,1.46,0,0,1,0,2.5l-6.8,4.18a2.94,2.94,0,0,1-3,0l-7-4A1.45,1.45,0,0,1,274.3,344.35Z" transform="translate(-20.79 -21.6)"/><path id="_Path_61" data-name="&lt;Path&gt;" class="cls-49" d="M289,352.31l7-4.09a2.89,2.89,0,0,1,2.94,0l6.84,3.94a1.46,1.46,0,0,1,0,2.5l-6.8,4.18a2.92,2.92,0,0,1-3,0l-7-4A1.45,1.45,0,0,1,289,352.31Z" transform="translate(-20.79 -21.6)"/></g></g><g id="Layer_18" data-name="Layer 18"><g id="_Group_5" data-name="&lt;Group&gt;"><path id="_Path_62" data-name="&lt;Path&gt;" class="cls-2" d="M418,351.63a7,7,0,0,0-6.32,0l-91,52.56c-1.74,1-1.74,2.65,0,3.65l58.84,34a7,7,0,0,0,6.32,0l90.79-52.69c1.74-1,1.73-2.65,0-3.66Z" transform="translate(-20.79 -21.6)"/><path class="cls-3" d="M417.9,351.74a7,7,0,0,0-6.29,0L321,404.06c-1.73,1-1.73,2.63,0,3.63l58.58,33.82a6.92,6.92,0,0,0,6.28,0l90.39-52.45c1.72-1,1.72-2.64,0-3.64Z" transform="translate(-20.79 -21.6)"/><path class="cls-4" d="M417.81,351.85a6.91,6.91,0,0,0-6.26,0l-90.21,52.08c-1.73,1-1.73,2.62,0,3.62l58.3,33.66a6.91,6.91,0,0,0,6.26,0l90-52.21c1.72-1,1.72-2.63,0-3.63Z" transform="translate(-20.79 -21.6)"/><path class="cls-5" d="M417.73,352a6.93,6.93,0,0,0-6.24,0l-89.8,51.84c-1.71,1-1.71,2.61,0,3.6l58,33.51a6.87,6.87,0,0,0,6.23,0l89.56-52c1.71-1,1.71-2.62,0-3.61Z" transform="translate(-20.79 -21.6)"/><path class="cls-6" d="M417.64,352.06a6.93,6.93,0,0,0-6.21,0l-89.38,51.61c-1.71,1-1.71,2.6,0,3.59l57.77,33.35a6.84,6.84,0,0,0,6.2,0l89.14-51.73c1.71-1,1.71-2.61,0-3.59Z" transform="translate(-20.79 -21.6)"/><path class="cls-7" d="M417.55,352.17a6.86,6.86,0,0,0-6.18,0l-89,51.37c-1.7,1-1.7,2.59,0,3.57l57.5,33.2a6.83,6.83,0,0,0,6.18,0l88.73-51.5c1.69-1,1.69-2.59,0-3.57Z" transform="translate(-20.79 -21.6)"/><path class="cls-8" d="M417.46,352.28a6.86,6.86,0,0,0-6.15,0l-88.56,51.13c-1.69,1-1.69,2.58,0,3.55L380,440a6.8,6.8,0,0,0,6.15,0l88.31-51.26c1.69-1,1.69-2.58,0-3.55Z" transform="translate(-20.79 -21.6)"/><path class="cls-9" d="M417.37,352.39a6.8,6.8,0,0,0-6.12,0l-88.14,50.89c-1.68,1-1.68,2.57,0,3.54l57,32.89a6.75,6.75,0,0,0,6.11,0l87.91-51c1.68-1,1.68-2.57,0-3.54Z" transform="translate(-20.79 -21.6)"/><path class="cls-10" d="M417.28,352.5a6.8,6.8,0,0,0-6.09,0l-87.73,50.65c-1.67,1-1.67,2.55,0,3.52l56.71,32.74a6.72,6.72,0,0,0,6.08,0l87.49-50.78c1.68-1,1.68-2.55,0-3.52Z" transform="translate(-20.79 -21.6)"/><path class="cls-11" d="M417.2,352.61a6.76,6.76,0,0,0-6.07,0L323.82,403c-1.67,1-1.67,2.54,0,3.51l56.43,32.58a6.7,6.7,0,0,0,6.06,0l87.08-50.54c1.67-1,1.66-2.54,0-3.51Z" transform="translate(-20.79 -21.6)"/><path class="cls-12" d="M417.11,352.72a6.69,6.69,0,0,0-6,0l-86.9,50.18c-1.66,1-1.66,2.52,0,3.48l56.17,32.43a6.67,6.67,0,0,0,6,0L473,388.5c1.65-1,1.65-2.53,0-3.49Z" transform="translate(-20.79 -21.6)"/><path class="cls-13" d="M417,352.83a6.69,6.69,0,0,0-6,0l-86.48,49.94c-1.65,1-1.65,2.51,0,3.46l55.9,32.28a6.64,6.64,0,0,0,6,0l86.25-50.06c1.65-1,1.65-2.52,0-3.47Z" transform="translate(-20.79 -21.6)"/><path class="cls-14" d="M416.93,352.94a6.61,6.61,0,0,0-6,0l-86.08,49.7c-1.64.95-1.64,2.5,0,3.45l55.63,32.12a6.63,6.63,0,0,0,6,0l85.84-49.82c1.64-.95,1.64-2.51,0-3.46Z" transform="translate(-20.79 -21.6)"/><path class="cls-15" d="M416.84,353.05a6.61,6.61,0,0,0-5.94,0l-85.66,49.46c-1.64.94-1.64,2.49,0,3.43l55.36,32a6.58,6.58,0,0,0,5.94,0L472,388.32c1.64-.95,1.63-2.5,0-3.44Z" transform="translate(-20.79 -21.6)"/><path class="cls-16" d="M416.76,353.16a6.57,6.57,0,0,0-5.92,0l-85.25,49.22c-1.63.94-1.63,2.48,0,3.42l55.1,31.81a6.55,6.55,0,0,0,5.91,0l85-49.34c1.62-.95,1.62-2.49,0-3.43Z" transform="translate(-20.79 -21.6)"/><path class="cls-17" d="M416.67,353.27a6.57,6.57,0,0,0-5.89,0l-84.84,49c-1.62.93-1.62,2.46,0,3.4l54.83,31.66a6.53,6.53,0,0,0,5.89,0l84.6-49.1c1.62-.94,1.62-2.48,0-3.41Z" transform="translate(-20.79 -21.6)"/><path class="cls-18" d="M416.58,353.38a6.5,6.5,0,0,0-5.86,0L326.3,402.12c-1.61.93-1.61,2.45,0,3.38L380.86,437a6.47,6.47,0,0,0,5.86,0l84.19-48.86c1.61-.94,1.61-2.46,0-3.4Z" transform="translate(-20.79 -21.6)"/><path class="cls-19" d="M416.49,353.49a6.44,6.44,0,0,0-5.83,0l-84,48.5c-1.6.93-1.6,2.44,0,3.37L381,436.7a6.44,6.44,0,0,0,5.83,0l83.77-48.62c1.61-.93,1.6-2.45,0-3.38Z" transform="translate(-20.79 -21.6)"/><path class="cls-20" d="M416.4,353.6a6.44,6.44,0,0,0-5.8,0L327,401.86c-1.6.92-1.6,2.43,0,3.35l54,31.19a6.41,6.41,0,0,0,5.8,0L470.2,388c1.59-.92,1.59-2.43,0-3.35Z" transform="translate(-20.79 -21.6)"/><path class="cls-21" d="M416.32,353.71a6.4,6.4,0,0,0-5.78,0l-83.18,48c-1.59.92-1.59,2.42,0,3.34l53.76,31a6.38,6.38,0,0,0,5.77,0l83-48.15c1.58-.92,1.58-2.42,0-3.34Z" transform="translate(-20.79 -21.6)"/><path class="cls-22" d="M416.23,353.82a6.4,6.4,0,0,0-5.75,0L327.72,401.6c-1.58.91-1.58,2.41,0,3.32l53.49,30.88a6.34,6.34,0,0,0,5.74,0l82.54-47.91c1.58-.91,1.58-2.41,0-3.32Z" transform="translate(-20.79 -21.6)"/><path class="cls-23" d="M416.14,353.93a6.33,6.33,0,0,0-5.72,0l-82.35,47.54c-1.57.91-1.57,2.4,0,3.3L381.3,435.5a6.31,6.31,0,0,0,5.71,0l82.13-47.67c1.57-.91,1.56-2.4,0-3.31Z" transform="translate(-20.79 -21.6)"/><path class="cls-24" d="M416.05,354a6.27,6.27,0,0,0-5.69,0l-81.93,47.3c-1.57.91-1.57,2.38,0,3.29l52.95,30.57a6.3,6.3,0,0,0,5.69,0l81.71-47.43c1.56-.91,1.56-2.39,0-3.29Z" transform="translate(-20.79 -21.6)"/><path class="cls-25" d="M416,354.15a6.27,6.27,0,0,0-5.66,0l-81.52,47.06c-1.56.9-1.56,2.37,0,3.27l52.69,30.42a6.27,6.27,0,0,0,5.66,0l81.3-47.19c1.55-.9,1.55-2.38,0-3.27Z" transform="translate(-20.79 -21.6)"/><path class="cls-26" d="M415.87,354.26a6.21,6.21,0,0,0-5.63,0l-81.1,46.82c-1.55.9-1.55,2.36,0,3.26l52.42,30.26a6.22,6.22,0,0,0,5.62,0l80.89-47c1.55-.9,1.55-2.36,0-3.26Z" transform="translate(-20.79 -21.6)"/><path class="cls-27" d="M415.79,354.37a6.23,6.23,0,0,0-5.61,0L329.49,401c-1.54.89-1.54,2.35,0,3.24l52.15,30.11a6.18,6.18,0,0,0,5.6,0l80.48-46.7c1.54-.89,1.53-2.35,0-3.24Z" transform="translate(-20.79 -21.6)"/><path class="cls-28" d="M415.7,354.48a6.16,6.16,0,0,0-5.58,0l-80.28,46.35c-1.53.88-1.53,2.33,0,3.21l51.89,30a6.14,6.14,0,0,0,5.57,0l80.06-46.46c1.53-.89,1.53-2.34,0-3.23Z" transform="translate(-20.79 -21.6)"/><path class="cls-29" d="M415.61,354.59a6.16,6.16,0,0,0-5.55,0L330.2,400.7c-1.53.88-1.53,2.32,0,3.2l51.62,29.8a6.11,6.11,0,0,0,5.54,0L467,387.47c1.52-.89,1.52-2.33,0-3.21Z" transform="translate(-20.79 -21.6)"/><path class="cls-30" d="M415.52,354.7a6.1,6.1,0,0,0-5.52,0l-79.45,45.87c-1.51.87-1.51,2.31,0,3.18L381.9,433.4a6.1,6.1,0,0,0,5.52,0l79.23-46c1.52-.88,1.52-2.32,0-3.2Z" transform="translate(-20.79 -21.6)"/><path class="cls-31" d="M415.43,354.81a6,6,0,0,0-5.48,0l-79,45.63c-1.51.87-1.51,2.29,0,3.17L382,433.1a6.07,6.07,0,0,0,5.49,0l78.82-45.74c1.51-.88,1.51-2.31,0-3.18Z" transform="translate(-20.79 -21.6)"/><path class="cls-32" d="M415.35,354.91a6.1,6.1,0,0,0-5.46,0l-78.63,45.4c-1.5.87-1.5,2.28,0,3.15l50.82,29.34a6,6,0,0,0,5.45,0L466,387.28c1.49-.87,1.49-2.29,0-3.15Z" transform="translate(-20.79 -21.6)"/><path class="cls-33" d="M415.26,355a6,6,0,0,0-5.43,0l-78.21,45.16c-1.5.86-1.5,2.27,0,3.13l50.55,29.19a6,6,0,0,0,5.42,0l78-45.27c1.49-.86,1.49-2.28,0-3.14Z" transform="translate(-20.79 -21.6)"/><path class="cls-34" d="M415.17,355.13a6,6,0,0,0-5.4,0L332,400.05c-1.48.86-1.48,2.26,0,3.12l50.28,29a6,6,0,0,0,5.4,0l77.59-45c1.48-.86,1.48-2.26,0-3.12Z" transform="translate(-20.79 -21.6)"/><path class="cls-35" d="M415.08,355.24a6,6,0,0,0-5.37,0l-77.38,44.68c-1.48.85-1.48,2.25,0,3.1l50,28.88a5.94,5.94,0,0,0,5.37,0l77.17-44.79c1.48-.85,1.48-2.25,0-3.11Z" transform="translate(-20.79 -21.6)"/><path class="cls-36" d="M415,355.35a5.91,5.91,0,0,0-5.34,0l-77,44.44c-1.47.85-1.47,2.24,0,3.09l49.75,28.72a5.91,5.91,0,0,0,5.34,0L464.53,387c1.47-.85,1.46-2.24,0-3.09Z" transform="translate(-20.79 -21.6)"/><path class="cls-37" d="M414.9,355.46a5.91,5.91,0,0,0-5.31,0L333,399.66c-1.46.85-1.46,2.23,0,3.07l49.48,28.57a5.9,5.9,0,0,0,5.32,0L464.17,387c1.46-.85,1.46-2.23,0-3.07Z" transform="translate(-20.79 -21.6)"/><path class="cls-38" d="M414.82,355.57a5.87,5.87,0,0,0-5.29,0l-76.14,44c-1.46.84-1.46,2.22,0,3.05L382.6,431a5.85,5.85,0,0,0,5.28,0l75.94-44.07c1.45-.84,1.45-2.22,0-3.06Z" transform="translate(-20.79 -21.6)"/><path class="cls-39" d="M414.73,355.68a5.87,5.87,0,0,0-5.26,0L333.74,399.4c-1.44.84-1.44,2.2,0,3l48.95,28.26a5.81,5.81,0,0,0,5.25,0l75.52-43.83c1.45-.84,1.45-2.21,0-3Z" transform="translate(-20.79 -21.6)"/><path class="cls-40" d="M414.64,355.79a5.8,5.8,0,0,0-5.23,0L334.1,399.27c-1.44.83-1.44,2.19,0,3l48.67,28.11a5.8,5.8,0,0,0,5.23,0l75.11-43.59c1.44-.84,1.43-2.2,0-3Z" transform="translate(-20.79 -21.6)"/><path class="cls-41" d="M414.55,355.9a5.8,5.8,0,0,0-5.2,0l-74.9,43.24c-1.43.83-1.43,2.18,0,3l48.41,28a5.77,5.77,0,0,0,5.2,0l74.69-43.35c1.43-.83,1.43-2.19,0-3Z" transform="translate(-20.79 -21.6)"/><path class="cls-42" d="M414.46,356a5.74,5.74,0,0,0-5.17,0l-74.48,43c-1.43.83-1.43,2.17,0,3L383,429.8a5.74,5.74,0,0,0,5.17,0l74.28-43.11c1.42-.83,1.42-2.17,0-3Z" transform="translate(-20.79 -21.6)"/><path id="_Path_63" data-name="&lt;Path&gt;" class="cls-43" d="M414.38,356.12a5.7,5.7,0,0,0-5.15,0l-74.07,42.77c-1.41.81-1.41,2.15,0,3L383,429.49a5.68,5.68,0,0,0,5.14,0l73.87-42.87c1.41-.82,1.41-2.16,0-3Z" transform="translate(-20.79 -21.6)"/><path id="_Path_64" data-name="&lt;Path&gt;" class="cls-50" d="M415.4,350.77a6.71,6.71,0,0,0-6,0l-87.27,49.07a1.07,1.07,0,0,0-.54.93v1.65a2,2,0,0,0,1,1.69l56.22,32.42a6.66,6.66,0,0,0,6,0l86.13-50a2.87,2.87,0,0,0,1.44-2.51v-1.27Z" transform="translate(-20.79 -21.6)"/><path id="_Path_65" data-name="&lt;Path&gt;" class="cls-45" d="M415.4,348.69a6.65,6.65,0,0,0-6,0l-86.57,50c-1.66,1-1.66,2.52,0,3.47l55.95,32.31a6.66,6.66,0,0,0,6,0l86.34-50.11c1.65-1,1.65-2.52,0-3.47Z" transform="translate(-20.79 -21.6)"/><polygon id="_Path_66" data-name="&lt;Path&gt;" class="cls-49" points="386.85 334.39 435.37 362.41 410.65 376.38 362.36 348.46 386.85 334.39"/><polygon id="_Path_67" data-name="&lt;Path&gt;" class="cls-48" points="359.92 350.66 381.96 363.5 354.36 379.11 332.57 366.37 359.92 350.66"/><polygon id="_Path_68" data-name="&lt;Path&gt;" class="cls-51" points="385.89 365.83 407.93 378.68 380.32 394.29 358.54 381.54 385.89 365.83"/><polygon id="_Path_69" data-name="&lt;Path&gt;" class="cls-52" points="323.3 370.94 376.01 401.21 373.36 402.74 320.73 372.5 323.3 370.94"/><polygon id="_Path_70" data-name="&lt;Path&gt;" class="cls-52" points="328.33 380.96 356.06 396.87 353.4 398.4 325.76 382.53 328.33 380.96"/></g><g class="cls-53"><path id="_Path_71" data-name="&lt;Path&gt;" class="cls-2" d="M20.79,363.22v-1l54.41-32a3.26,3.26,0,0,1,3.25-.36L107,346.28a1.49,1.49,0,0,1,.62.67l.16.33a2.63,2.63,0,0,1-1,3.44L53.34,381.54a4.11,4.11,0,0,1-3.71,0L22.29,365.81A3,3,0,0,1,20.79,363.22Z" transform="translate(-20.79 -21.6)"/><path class="cls-3" d="M20.92,363.14v-1l54.22-31.85a3.26,3.26,0,0,1,3.24-.36l28.47,16.35a1.49,1.49,0,0,1,.62.67l.16.33a2.62,2.62,0,0,1-1,3.42L53.36,381.4a4.09,4.09,0,0,1-3.7,0L22.41,365.72A3,3,0,0,1,20.92,363.14Z" transform="translate(-20.79 -21.6)"/><path class="cls-4" d="M21.05,363.06v-1l54-31.74a3.22,3.22,0,0,1,3.23-.36l28.36,16.29a1.51,1.51,0,0,1,.63.67l.16.32a2.63,2.63,0,0,1-1,3.42l-53,30.61a4.07,4.07,0,0,1-3.69,0L22.54,365.64A3,3,0,0,1,21.05,363.06Z" transform="translate(-20.79 -21.6)"/><path class="cls-5" d="M21.17,363v-1L75,330.34a3.2,3.2,0,0,1,3.21-.35l28.27,16.23a1.54,1.54,0,0,1,.63.66l.16.33a2.61,2.61,0,0,1-1.05,3.4L53.39,381.12a4.11,4.11,0,0,1-3.68,0l-27-15.57A3,3,0,0,1,21.17,363Z" transform="translate(-20.79 -21.6)"/><path class="cls-6" d="M21.3,362.9v-1L75,330.38a3.21,3.21,0,0,1,3.2-.36l28.17,16.18a1.54,1.54,0,0,1,.63.66l.15.33a2.59,2.59,0,0,1-1,3.39L53.4,381a4.07,4.07,0,0,1-3.66,0l-27-15.52A2.94,2.94,0,0,1,21.3,362.9Z" transform="translate(-20.79 -21.6)"/><path class="cls-7" d="M21.42,362.83v-1L74.9,330.41a3.19,3.19,0,0,1,3.19-.35l28.07,16.12a1.47,1.47,0,0,1,.62.66l.16.32a2.6,2.6,0,0,1-1,3.38l-52.49,30.3a4,4,0,0,1-3.65,0L22.9,365.37A2.93,2.93,0,0,1,21.42,362.83Z" transform="translate(-20.79 -21.6)"/><path class="cls-8" d="M21.55,362.75v-1l53.29-31.3a3.2,3.2,0,0,1,3.18-.36l28,16.07a1.47,1.47,0,0,1,.62.66l.16.32a2.59,2.59,0,0,1-1,3.37l-52.3,30.18a4,4,0,0,1-3.64,0L23,365.29A2.94,2.94,0,0,1,21.55,362.75Z" transform="translate(-20.79 -21.6)"/><path class="cls-9" d="M21.68,362.67v-1l53.1-31.19a3.2,3.2,0,0,1,3.17-.35l27.87,16a1.55,1.55,0,0,1,.62.65l.15.32a2.58,2.58,0,0,1-1,3.36L53.44,380.55a4,4,0,0,1-3.62,0L23.14,365.2A2.91,2.91,0,0,1,21.68,362.67Z" transform="translate(-20.79 -21.6)"/><path class="cls-10" d="M21.8,362.59v-1l52.92-31.08a3.12,3.12,0,0,1,3.15-.35l27.78,15.95a1.55,1.55,0,0,1,.62.65l.15.32a2.57,2.57,0,0,1-1,3.35l-51.93,30a4,4,0,0,1-3.62,0l-26.58-15.3A2.91,2.91,0,0,1,21.8,362.59Z" transform="translate(-20.79 -21.6)"/><path class="cls-11" d="M21.93,362.51v-1l52.73-31a3.15,3.15,0,0,1,3.14-.35l27.68,15.9a1.47,1.47,0,0,1,.61.65l.16.32a2.56,2.56,0,0,1-1,3.33L53.47,380.27a4,4,0,0,1-3.6,0L23.38,365A2.88,2.88,0,0,1,21.93,362.51Z" transform="translate(-20.79 -21.6)"/><path class="cls-12" d="M22.05,362.43v-1L74.6,330.59a3.13,3.13,0,0,1,3.13-.35l27.58,15.84a1.42,1.42,0,0,1,.61.65l.16.31a2.57,2.57,0,0,1-1,3.33L53.48,380.13a4,4,0,0,1-3.58,0L23.5,364.94A2.91,2.91,0,0,1,22.05,362.43Z" transform="translate(-20.79 -21.6)"/><path class="cls-13" d="M22.18,362.35v-1l52.35-30.75a3.15,3.15,0,0,1,3.13-.35l27.48,15.79a1.45,1.45,0,0,1,.61.64l.15.32a2.55,2.55,0,0,1-1,3.31L53.5,380a4,4,0,0,1-3.58,0l-26.3-15.14A2.89,2.89,0,0,1,22.18,362.35Z" transform="translate(-20.79 -21.6)"/><path class="cls-14" d="M22.31,362.28v-1l52.16-30.64a3.12,3.12,0,0,1,3.11-.35L105,346a1.59,1.59,0,0,1,.61.65l.15.32a2.54,2.54,0,0,1-1,3.3L53.51,379.85a4,4,0,0,1-3.56,0L23.74,364.76A2.86,2.86,0,0,1,22.31,362.28Z" transform="translate(-20.79 -21.6)"/><path class="cls-15" d="M22.43,362.2v-1l52-30.53a3.1,3.1,0,0,1,3.1-.34L104.8,346a1.51,1.51,0,0,1,.6.65l.16.31a2.54,2.54,0,0,1-1,3.29l-51,29.45a4,4,0,0,1-3.55,0l-26.11-15A2.86,2.86,0,0,1,22.43,362.2Z" transform="translate(-20.79 -21.6)"/><path class="cls-16" d="M22.56,362.12v-1l51.79-30.42a3.1,3.1,0,0,1,3.09-.35L104.63,346a1.51,1.51,0,0,1,.6.65l.15.31a2.5,2.5,0,0,1-1,3.27L53.54,379.56a3.86,3.86,0,0,1-3.53,0l-26-15A2.84,2.84,0,0,1,22.56,362.12Z" transform="translate(-20.79 -21.6)"/><path class="cls-17" d="M22.68,362v-1l51.61-30.31a3.08,3.08,0,0,1,3.08-.34L104.46,346a1.54,1.54,0,0,1,.6.64l.15.32a2.5,2.5,0,0,1-1,3.26L53.56,379.42a3.92,3.92,0,0,1-3.53,0L24.11,364.5A2.84,2.84,0,0,1,22.68,362Z" transform="translate(-20.79 -21.6)"/><path class="cls-18" d="M22.81,362v-1l51.42-30.2a3.06,3.06,0,0,1,3.07-.34l27,15.49a1.48,1.48,0,0,1,.6.64l.15.31a2.5,2.5,0,0,1-1,3.25L53.57,379.28a3.88,3.88,0,0,1-3.51,0L24.23,364.41A2.82,2.82,0,0,1,22.81,362Z" transform="translate(-20.79 -21.6)"/><path class="cls-19" d="M22.94,361.88v-1l51.23-30.09a3.07,3.07,0,0,1,3-.34l26.9,15.44a1.41,1.41,0,0,1,.59.64l.15.31a2.49,2.49,0,0,1-1,3.24l-50.29,29a3.84,3.84,0,0,1-3.49,0L24.35,364.33A2.84,2.84,0,0,1,22.94,361.88Z" transform="translate(-20.79 -21.6)"/><path class="cls-20" d="M23.06,361.81v-1l51.05-30a3,3,0,0,1,3-.34L104,345.91a1.46,1.46,0,0,1,.59.64l.15.3a2.47,2.47,0,0,1-1,3.23L53.6,379a3.9,3.9,0,0,1-3.49,0L24.47,364.24A2.81,2.81,0,0,1,23.06,361.81Z" transform="translate(-20.79 -21.6)"/><path class="cls-21" d="M23.19,361.73v-1L74.05,330.9a3,3,0,0,1,3-.34l26.7,15.33a1.49,1.49,0,0,1,.59.63l.15.31a2.48,2.48,0,0,1-1,3.22L53.61,378.86a3.85,3.85,0,0,1-3.47,0L24.59,364.15A2.78,2.78,0,0,1,23.19,361.73Z" transform="translate(-20.79 -21.6)"/><path class="cls-22" d="M23.31,361.65v-.95L74,330.94a3,3,0,0,1,3-.34l26.6,15.27a1.49,1.49,0,0,1,.59.63l.15.31a2.46,2.46,0,0,1-1,3.2L53.63,378.72a3.83,3.83,0,0,1-3.46,0L24.71,364.06A2.78,2.78,0,0,1,23.31,361.65Z" transform="translate(-20.79 -21.6)"/><path class="cls-23" d="M23.44,361.57v-.95L73.93,331a3,3,0,0,1,3-.33l26.5,15.21a1.56,1.56,0,0,1,.59.63l.14.3a2.46,2.46,0,0,1-1,3.2L53.64,378.57a3.81,3.81,0,0,1-3.45,0L24.83,364A2.79,2.79,0,0,1,23.44,361.57Z" transform="translate(-20.79 -21.6)"/><path class="cls-24" d="M23.57,361.49v-.94L73.86,331a3,3,0,0,1,3-.34l26.41,15.16a1.41,1.41,0,0,1,.58.63l.15.3a2.44,2.44,0,0,1-1,3.18L53.65,378.43a3.77,3.77,0,0,1-3.43,0L25,363.89A2.78,2.78,0,0,1,23.57,361.49Z" transform="translate(-20.79 -21.6)"/><path class="cls-25" d="M23.69,361.41v-.94L73.8,331a3,3,0,0,1,3-.33l26.31,15.1a1.51,1.51,0,0,1,.58.62l.15.31a2.42,2.42,0,0,1-1,3.16L53.67,378.29a3.75,3.75,0,0,1-3.42,0L25.07,363.8A2.76,2.76,0,0,1,23.69,361.41Z" transform="translate(-20.79 -21.6)"/><path class="cls-26" d="M23.82,361.34v-.94l49.92-29.32a2.94,2.94,0,0,1,3-.33l26.21,15a1.51,1.51,0,0,1,.58.62l.14.3a2.42,2.42,0,0,1-1,3.16l-49,28.28a3.77,3.77,0,0,1-3.4,0L25.19,363.72A2.75,2.75,0,0,1,23.82,361.34Z" transform="translate(-20.79 -21.6)"/><path class="cls-27" d="M23.94,361.26v-.93l49.74-29.22a3,3,0,0,1,3-.33l26.11,15a1.51,1.51,0,0,1,.58.62l.14.3a2.41,2.41,0,0,1-1,3.14L53.7,378a3.77,3.77,0,0,1-3.4,0l-25-14.38A2.74,2.74,0,0,1,23.94,361.26Z" transform="translate(-20.79 -21.6)"/><path class="cls-28" d="M24.07,361.18v-.93l49.55-29.1a3,3,0,0,1,3-.33l26,14.93a1.37,1.37,0,0,1,.57.62l.15.3a2.41,2.41,0,0,1-1,3.13L53.71,377.87a3.73,3.73,0,0,1-3.38,0L25.44,363.54A2.73,2.73,0,0,1,24.07,361.18Z" transform="translate(-20.79 -21.6)"/><path class="cls-29" d="M24.2,361.1v-.92l49.36-29a3,3,0,0,1,2.94-.33l25.92,14.88a1.4,1.4,0,0,1,.57.61l.15.3a2.39,2.39,0,0,1-1,3.12l-48.45,28a3.77,3.77,0,0,1-3.37,0l-24.8-14.28A2.71,2.71,0,0,1,24.2,361.1Z" transform="translate(-20.79 -21.6)"/><path class="cls-30" d="M24.32,361v-.92L73.5,331.22a2.92,2.92,0,0,1,2.93-.33l25.82,14.82a1.46,1.46,0,0,1,.57.61l.14.3a2.39,2.39,0,0,1-.95,3.11L53.74,377.59a3.75,3.75,0,0,1-3.36,0l-24.7-14.22A2.72,2.72,0,0,1,24.32,361Z" transform="translate(-20.79 -21.6)"/><path class="cls-31" d="M24.45,360.94V360l49-28.78a2.9,2.9,0,0,1,2.92-.32l25.72,14.76a1.4,1.4,0,0,1,.57.61l.14.29a2.37,2.37,0,0,1-1,3.1L53.75,377.44a3.65,3.65,0,0,1-3.34,0L25.8,363.28A2.68,2.68,0,0,1,24.45,360.94Z" transform="translate(-20.79 -21.6)"/><path class="cls-32" d="M24.57,360.87V360l48.81-28.67a2.93,2.93,0,0,1,2.91-.32l25.62,14.71a1.38,1.38,0,0,1,.56.61l.15.29a2.37,2.37,0,0,1-1,3.09L53.77,377.3a3.69,3.69,0,0,1-3.33,0L25.92,363.19A2.68,2.68,0,0,1,24.57,360.87Z" transform="translate(-20.79 -21.6)"/><path class="cls-33" d="M24.7,360.79v-.91l48.62-28.56a2.89,2.89,0,0,1,2.9-.32l25.52,14.65a1.41,1.41,0,0,1,.56.6l.14.3a2.35,2.35,0,0,1-.94,3.07L53.78,377.16a3.66,3.66,0,0,1-3.32,0L26,363.1A2.66,2.66,0,0,1,24.7,360.79Z" transform="translate(-20.79 -21.6)"/><path class="cls-34" d="M24.83,360.71v-.91l48.43-28.45a2.9,2.9,0,0,1,2.88-.32l25.43,14.6a1.41,1.41,0,0,1,.56.6l.14.29a2.36,2.36,0,0,1-.94,3.07L53.8,377a3.64,3.64,0,0,1-3.31,0L26.16,363A2.68,2.68,0,0,1,24.83,360.71Z" transform="translate(-20.79 -21.6)"/><path class="cls-35" d="M25,360.63v-.9l48.24-28.34a2.9,2.9,0,0,1,2.88-.32l25.33,14.54a1.41,1.41,0,0,1,.56.6l.14.29a2.33,2.33,0,0,1-.94,3.05L53.81,376.88a3.66,3.66,0,0,1-3.29,0L26.28,362.93A2.65,2.65,0,0,1,25,360.63Z" transform="translate(-20.79 -21.6)"/><path class="cls-36" d="M25.08,360.55v-.9l48.05-28.23a2.88,2.88,0,0,1,2.87-.31l25.23,14.48a1.39,1.39,0,0,1,.55.6l.15.29a2.33,2.33,0,0,1-.94,3L53.83,376.74a3.66,3.66,0,0,1-3.29,0L26.4,362.84A2.63,2.63,0,0,1,25.08,360.55Z" transform="translate(-20.79 -21.6)"/><path class="cls-37" d="M25.2,360.47v-.89l47.87-28.12a2.86,2.86,0,0,1,2.86-.32l25.13,14.43a1.42,1.42,0,0,1,.55.59l.14.29a2.31,2.31,0,0,1-.93,3l-47,27.12a3.69,3.69,0,0,1-3.27,0l-24-13.85A2.62,2.62,0,0,1,25.2,360.47Z" transform="translate(-20.79 -21.6)"/><path class="cls-38" d="M25.33,360.4v-.9l47.68-28a2.87,2.87,0,0,1,2.85-.31l25,14.37a1.36,1.36,0,0,1,.55.59l.14.29a2.3,2.3,0,0,1-.93,3l-46.8,27a3.58,3.58,0,0,1-3.25,0l-24-13.78A2.63,2.63,0,0,1,25.33,360.4Z" transform="translate(-20.79 -21.6)"/><path class="cls-39" d="M25.46,360.32v-.89L73,331.53a2.83,2.83,0,0,1,2.83-.32l24.94,14.32a1.36,1.36,0,0,1,.55.59l.14.29a2.31,2.31,0,0,1-.92,3l-46.62,26.9a3.56,3.56,0,0,1-3.24,0L26.77,362.58A2.62,2.62,0,0,1,25.46,360.32Z" transform="translate(-20.79 -21.6)"/><path class="cls-40" d="M25.58,360.24v-.89l47.31-27.79a2.83,2.83,0,0,1,2.82-.31l24.84,14.26a1.36,1.36,0,0,1,.55.59l.13.28a2.29,2.29,0,0,1-.91,3l-46.44,26.8a3.6,3.6,0,0,1-3.23,0L26.89,362.49A2.59,2.59,0,0,1,25.58,360.24Z" transform="translate(-20.79 -21.6)"/><path class="cls-41" d="M25.71,360.16v-.88L72.83,331.6a2.81,2.81,0,0,1,2.81-.31l24.74,14.2a1.44,1.44,0,0,1,.54.58l.14.29a2.28,2.28,0,0,1-.91,3L53.9,376a3.58,3.58,0,0,1-3.22,0L27,362.41A2.59,2.59,0,0,1,25.71,360.16Z" transform="translate(-20.79 -21.6)"/><path class="cls-42" d="M25.83,360.08v-.88l46.94-27.57a2.82,2.82,0,0,1,2.8-.31l24.64,14.15a1.38,1.38,0,0,1,.54.58l.14.28a2.29,2.29,0,0,1-.91,3L53.91,375.89a3.54,3.54,0,0,1-3.2,0L27.13,362.32A2.6,2.6,0,0,1,25.83,360.08Z" transform="translate(-20.79 -21.6)"/><path id="_Path_72" data-name="&lt;Path&gt;" class="cls-43" d="M26,360v-.87l46.75-27.46a2.78,2.78,0,0,1,2.79-.31L100,345.45a1.38,1.38,0,0,1,.54.58l.14.28a2.28,2.28,0,0,1-.91,3L53.92,375.75a3.58,3.58,0,0,1-3.19,0L27.25,362.23A2.57,2.57,0,0,1,26,360Z" transform="translate(-20.79 -21.6)"/></g><path id="_Path_73" data-name="&lt;Path&gt;" class="cls-54" d="M21.85,361.23v-1l52-30.53a3.1,3.1,0,0,1,3.1-.35l27.29,15.67a1.48,1.48,0,0,1,.6.64l.15.32a2.52,2.52,0,0,1-1,3.28l-51,29.44a3.9,3.9,0,0,1-3.55,0l-26.11-15A2.88,2.88,0,0,1,21.85,361.23Z" transform="translate(-20.79 -21.6)"/><path id="_Path_74" data-name="&lt;Path&gt;" class="cls-55" d="M22.58,361a1.09,1.09,0,0,1,0-2.05l51.1-29.5a4,4,0,0,1,3.55,0L104,344.93a1.09,1.09,0,0,1,0,2.05l-51.1,29.5a4,4,0,0,1-3.55,0Z" transform="translate(-20.79 -21.6)"/><polygon id="_Path_75" data-name="&lt;Path&gt;" class="cls-49" points="7.94 335.71 50.2 311.15 77.2 326.74 34.94 351.3 7.94 335.71"/><g id="_Group_6" data-name="&lt;Group&gt;"><path class="cls-56" d="M90.6,341.2a.41.41,0,0,1-.2-.06l-7-4.05a.4.4,0,1,1,.4-.69l7,4.05A.4.4,0,0,1,91,341,.39.39,0,0,1,90.6,341.2Z" transform="translate(-20.79 -21.6)"/></g><ellipse id="_Path_76" data-name="&lt;Path&gt;" class="cls-57" cx="18.17" cy="345.43" rx="3.1" ry="1.79"/><g class="cls-53"><g class="cls-58"><path id="_Path_77" data-name="&lt;Path&gt;" class="cls-45" d="M106.1,380.68a10.6,10.6,0,0,1,9.64-.05l33.38,19.16c2.66,1.52,2.68,4,0,5.62l-22.7,13.47a10.53,10.53,0,0,1-9.62.06L83.45,399.66c-2.66-1.53-2.67-4.06,0-5.62Z" transform="translate(-20.79 -21.6)"/></g><g class="cls-59"><path class="cls-60" d="M106.18,380.8a10.55,10.55,0,0,1,9.57-.05l33.1,19c2.64,1.51,2.66,4,0,5.58l-22.51,13.36a10.48,10.48,0,0,1-9.55.06L83.72,399.63c-2.64-1.52-2.65-4,0-5.58Z" transform="translate(-20.79 -21.6)"/></g><g class="cls-61"><path class="cls-62" d="M106.27,380.92a10.45,10.45,0,0,1,9.48-.05l32.83,18.84c2.62,1.51,2.63,4,0,5.54L126.3,418.5a10.37,10.37,0,0,1-9.47.05L84,399.59c-2.62-1.51-2.63-4,0-5.52Z" transform="translate(-20.79 -21.6)"/></g><g class="cls-63"><path class="cls-64" d="M106.35,381a10.4,10.4,0,0,1,9.41-.05l32.55,18.69c2.59,1.49,2.61,4,0,5.48L126.21,418.3a10.27,10.27,0,0,1-9.39.06l-32.56-18.8c-2.6-1.5-2.61-4,0-5.48Z" transform="translate(-20.79 -21.6)"/></g><g class="cls-65"><path class="cls-66" d="M106.43,381.17a10.3,10.3,0,0,1,9.33-.06L148,399.64c2.57,1.48,2.59,3.93,0,5.44l-22,13a10.19,10.19,0,0,1-9.31.06l-32.3-18.65c-2.56-1.48-2.58-3.93,0-5.43Z" transform="translate(-20.79 -21.6)"/></g><g class="cls-67"><path class="cls-68" d="M106.52,381.29a10.17,10.17,0,0,1,9.24-.06l32,18.38c2.55,1.46,2.57,3.89,0,5.39l-21.76,12.92a10.14,10.14,0,0,1-9.24.06l-32-18.49c-2.54-1.47-2.55-3.9,0-5.39Z" transform="translate(-20.79 -21.6)"/></g><g class="cls-69"><path class="cls-70" d="M106.6,381.41a10.09,10.09,0,0,1,9.17-.05l31.73,18.21c2.53,1.45,2.55,3.86,0,5.35L126,417.73a10,10,0,0,1-9.15,0L85.06,399.45c-2.52-1.45-2.53-3.86,0-5.34Z" transform="translate(-20.79 -21.6)"/></g><g class="cls-71"><path class="cls-72" d="M106.68,381.53a10,10,0,0,1,9.09,0l31.46,18c2.51,1.44,2.53,3.83,0,5.31l-21.39,12.69a9.93,9.93,0,0,1-9.08.06L85.33,399.42c-2.5-1.45-2.51-3.83,0-5.3Z" transform="translate(-20.79 -21.6)"/></g><g class="cls-73"><path class="cls-74" d="M106.77,381.65a9.91,9.91,0,0,1,9,0L147,399.5c2.49,1.43,2.51,3.79,0,5.25l-21.2,12.59a9.85,9.85,0,0,1-9,.06l-31.2-18c-2.48-1.43-2.49-3.79,0-5.25Z" transform="translate(-20.79 -21.6)"/></g><g class="cls-75"><path class="cls-76" d="M106.85,381.77a9.83,9.83,0,0,1,8.93,0l30.91,17.74c2.47,1.42,2.49,3.76,0,5.21l-21,12.48a9.76,9.76,0,0,1-8.91.05L85.87,399.35c-2.46-1.42-2.47-3.76,0-5.21Z" transform="translate(-20.79 -21.6)"/></g><g class="cls-77"><path class="cls-78" d="M106.93,381.89a9.78,9.78,0,0,1,8.86-.05l30.63,17.59c2.45,1.4,2.46,3.72,0,5.16L125.63,417a9.7,9.7,0,0,1-8.84.05l-30.65-17.7c-2.44-1.4-2.45-3.73,0-5.15Z" transform="translate(-20.79 -21.6)"/></g><g class="cls-79"><path class="cls-80" d="M107,382a9.65,9.65,0,0,1,8.77-.05l30.37,17.43c2.42,1.39,2.43,3.69,0,5.12l-20.64,12.25a9.6,9.6,0,0,1-8.76.06L86.41,399.28c-2.42-1.4-2.43-3.7,0-5.11Z" transform="translate(-20.79 -21.6)"/></g><g class="cls-81"><path class="cls-82" d="M107.1,382.13a9.63,9.63,0,0,1,8.7-.05l30.09,17.28c2.4,1.37,2.41,3.65,0,5.07l-20.46,12.14a9.49,9.49,0,0,1-8.68.05l-30.1-17.38c-2.4-1.38-2.41-3.66,0-5.06Z" transform="translate(-20.79 -21.6)"/></g><g class="cls-83"><path class="cls-84" d="M107.18,382.25a9.52,9.52,0,0,1,8.62-.05l29.82,17.12c2.37,1.36,2.39,3.62,0,5l-20.27,12a9.42,9.42,0,0,1-8.6.05L87,399.21c-2.38-1.37-2.39-3.63,0-5Z" transform="translate(-20.79 -21.6)"/></g><g class="cls-85"><path class="cls-86" d="M107.27,382.37a9.4,9.4,0,0,1,8.53,0l29.55,16.95c2.35,1.36,2.37,3.6,0,5L125.3,416.19a9.37,9.37,0,0,1-8.53.05L87.22,399.18c-2.35-1.36-2.36-3.6,0-5Z" transform="translate(-20.79 -21.6)"/></g><g class="cls-87"><path class="cls-88" d="M107.35,382.49a9.34,9.34,0,0,1,8.46,0l29.27,16.8c2.33,1.34,2.35,3.56,0,4.93L125.21,416a9.24,9.24,0,0,1-8.44.06L87.49,399.14c-2.33-1.34-2.34-3.56,0-4.93Z" transform="translate(-20.79 -21.6)"/></g><g class="cls-89"><path class="cls-90" d="M107.44,382.62a9.19,9.19,0,0,1,8.37-.05l29,16.64c2.31,1.33,2.33,3.53,0,4.89l-19.72,11.7a9.16,9.16,0,0,1-8.37.05l-29-16.74c-2.31-1.34-2.32-3.53,0-4.89Z" transform="translate(-20.79 -21.6)"/></g><g class="cls-91"><path class="cls-92" d="M107.52,382.74a9.13,9.13,0,0,1,8.3-.05l28.72,16.49c2.29,1.31,2.31,3.49,0,4.84l-19.53,11.59a9.08,9.08,0,0,1-8.29.05L88,399.07c-2.29-1.32-2.3-3.5,0-4.84Z" transform="translate(-20.79 -21.6)"/></g><g class="cls-93"><path class="cls-94" d="M107.6,382.86a9.06,9.06,0,0,1,8.22-.05l28.45,16.33c2.27,1.3,2.28,3.46,0,4.79L125,415.42a9,9,0,0,1-8.2.05L88.3,399c-2.27-1.31-2.28-3.47,0-4.79Z" transform="translate(-20.79 -21.6)"/></g><g class="cls-95"><path class="cls-96" d="M107.69,383a9,9,0,0,1,8.14-.05L144,399.1c2.25,1.29,2.26,3.43,0,4.75l-19.16,11.38a8.9,8.9,0,0,1-8.13,0L88.56,399c-2.24-1.29-2.25-3.43,0-4.74Z" transform="translate(-20.79 -21.6)"/></g><g class="cls-97"><path class="cls-98" d="M107.77,383.1a8.91,8.91,0,0,1,8.06-.05l27.9,16c2.23,1.28,2.24,3.39,0,4.7l-19,11.26a8.81,8.81,0,0,1-8,.05L88.83,399c-2.22-1.29-2.23-3.4,0-4.7Z" transform="translate(-20.79 -21.6)"/></g><g class="cls-99"><path class="cls-100" d="M107.85,383.22a8.82,8.82,0,0,1,8-.05L143.46,399c2.21,1.27,2.22,3.36,0,4.66l-18.79,11.15a8.72,8.72,0,0,1-8,.05l-27.64-16c-2.2-1.27-2.21-3.36,0-4.65Z" transform="translate(-20.79 -21.6)"/></g><g class="cls-101"><path class="cls-102" d="M107.94,383.34a8.67,8.67,0,0,1,7.9,0L143.19,399c2.18,1.25,2.2,3.32,0,4.61l-18.6,11a8.68,8.68,0,0,1-7.89.05L89.37,398.9c-2.18-1.26-2.18-3.33,0-4.61Z" transform="translate(-20.79 -21.6)"/></g><g class="cls-103"><path class="cls-104" d="M108,383.46a8.64,8.64,0,0,1,7.83,0L142.92,399c2.16,1.24,2.18,3.29,0,4.56l-18.42,10.94a8.54,8.54,0,0,1-7.81,0L89.64,398.86c-2.15-1.24-2.16-3.3,0-4.56Z" transform="translate(-20.79 -21.6)"/></g><g class="cls-105"><path class="cls-106" d="M108.1,383.58a8.54,8.54,0,0,1,7.75,0l26.81,15.39c2.13,1.22,2.15,3.25,0,4.51l-18.23,10.82a8.47,8.47,0,0,1-7.73.05L89.91,398.83c-2.13-1.24-2.14-3.27,0-4.52Z" transform="translate(-20.79 -21.6)"/></g><g class="cls-107"><path class="cls-108" d="M108.19,383.7a8.41,8.41,0,0,1,7.66,0l26.54,15.23c2.11,1.21,2.13,3.23,0,4.47l-18,10.71a8.38,8.38,0,0,1-7.66.05L90.18,398.79c-2.11-1.22-2.12-3.23,0-4.47Z" transform="translate(-20.79 -21.6)"/></g><g class="cls-109"><path class="cls-110" d="M108.27,383.82a8.39,8.39,0,0,1,7.59,0l26.26,15.07c2.09,1.21,2.11,3.2,0,4.43l-17.86,10.6a8.29,8.29,0,0,1-7.57,0L90.45,398.76c-2.09-1.21-2.1-3.2,0-4.43Z" transform="translate(-20.79 -21.6)"/></g><g class="cls-111"><path class="cls-112" d="M108.35,383.94a8.28,8.28,0,0,1,7.51,0l26,14.92c2.07,1.19,2.08,3.16,0,4.38l-17.67,10.49a8.23,8.23,0,0,1-7.5,0l-26-15c-2.07-1.19-2.08-3.16,0-4.37Z" transform="translate(-20.79 -21.6)"/></g><g class="cls-113"><path class="cls-114" d="M108.44,384.07a8.21,8.21,0,0,1,7.43-.05l25.71,14.76c2,1.18,2.06,3.13,0,4.33l-17.48,10.38a8.13,8.13,0,0,1-7.42.05L91,398.69c-2-1.18-2.06-3.13,0-4.33Z" transform="translate(-20.79 -21.6)"/></g><g class="cls-115"><path class="cls-116" d="M108.52,384.19a8.1,8.1,0,0,1,7.35-.05l25.44,14.61c2,1.16,2,3.09,0,4.28L124,413.3a8.06,8.06,0,0,1-7.33.05l-25.45-14.7c-2-1.17-2-3.09,0-4.28Z" transform="translate(-20.79 -21.6)"/></g><g class="cls-117"><path class="cls-118" d="M108.6,384.31a8,8,0,0,1,7.28,0L141,398.71c2,1.15,2,3.06,0,4.24L124,413.11a8,8,0,0,1-7.26,0L91.53,398.62c-2-1.16-2-3.07,0-4.24Z" transform="translate(-20.79 -21.6)"/></g><g class="cls-119"><path class="cls-120" d="M108.69,384.43a7.92,7.92,0,0,1,7.19,0l24.89,14.28c2,1.14,2,3,0,4.2l-16.92,10.05a7.9,7.9,0,0,1-7.18,0L91.8,398.58c-2-1.14-2-3,0-4.19Z" transform="translate(-20.79 -21.6)"/></g><g class="cls-121"><path class="cls-122" d="M108.77,384.55a7.84,7.84,0,0,1,7.12,0l24.61,14.13c2,1.12,2,3,0,4.15l-16.74,9.93a7.77,7.77,0,0,1-7.1,0L92.07,398.55c-2-1.13-2-3,0-4.15Z" transform="translate(-20.79 -21.6)"/></g><g class="cls-123"><path class="cls-124" d="M108.86,384.67a7.74,7.74,0,0,1,7,0l24.34,14c1.94,1.12,2,3,0,4.1l-16.55,9.83a7.69,7.69,0,0,1-7,0L92.33,398.51c-1.93-1.12-1.94-3,0-4.1Z" transform="translate(-20.79 -21.6)"/></g><g class="cls-125"><path class="cls-126" d="M108.94,384.79a7.67,7.67,0,0,1,7,0L140,398.57c1.92,1.1,1.94,2.92,0,4.05l-16.36,9.72a7.61,7.61,0,0,1-6.95,0L92.6,398.48c-1.91-1.11-1.92-2.93,0-4.06Z" transform="translate(-20.79 -21.6)"/></g><g class="cls-127"><path class="cls-128" d="M109,384.91a7.58,7.58,0,0,1,6.88,0l23.79,13.66c1.9,1.09,1.91,2.89,0,4l-16.18,9.61a7.54,7.54,0,0,1-6.86,0L92.87,398.44c-1.89-1.09-1.9-2.89,0-4Z" transform="translate(-20.79 -21.6)"/></g><g class="cls-129"><path class="cls-130" d="M109.11,385a7.49,7.49,0,0,1,6.79,0l23.52,13.51c1.88,1.07,1.89,2.86,0,4l-16,9.49a7.4,7.4,0,0,1-6.79,0L93.14,398.41c-1.87-1.08-1.88-2.86,0-4Z" transform="translate(-20.79 -21.6)"/></g><g class="cls-131"><path class="cls-132" d="M109.19,385.15a7.44,7.44,0,0,1,6.72,0l23.25,13.35c1.85,1.06,1.86,2.83,0,3.92l-15.8,9.38a7.35,7.35,0,0,1-6.71,0L93.41,398.37c-1.85-1.06-1.86-2.83,0-3.91Z" transform="translate(-20.79 -21.6)"/></g><g class="cls-133"><path class="cls-134" d="M109.27,385.27a7.3,7.3,0,0,1,6.64,0l23,13.18c1.83,1.05,1.84,2.8,0,3.87l-15.62,9.28a7.28,7.28,0,0,1-6.63,0l-23-13.27c-1.83-1.06-1.84-2.8,0-3.87Z" transform="translate(-20.79 -21.6)"/></g><g class="cls-135"><path class="cls-136" d="M109.36,385.39a7.22,7.22,0,0,1,6.56,0l22.7,13c1.81,1,1.82,2.76,0,3.82l-15.44,9.17a7.2,7.2,0,0,1-6.55,0L94,398.3c-1.81-1-1.81-2.76,0-3.82Z" transform="translate(-20.79 -21.6)"/></g><g class="cls-137"><path class="cls-138" d="M109.44,385.51a7.15,7.15,0,0,1,6.48,0l22.43,12.87c1.79,1,1.8,2.73,0,3.78l-15.25,9.05a7.07,7.07,0,0,1-6.47,0l-22.44-13c-1.79-1-1.79-2.73,0-3.78Z" transform="translate(-20.79 -21.6)"/></g><path id="_Path_78" data-name="&lt;Path&gt;" class="cls-43" d="M109.52,385.64a7.07,7.07,0,0,1,6.41,0l22.15,12.72c1.76,1,1.78,2.69,0,3.73L123,411a7,7,0,0,1-6.39,0l-22.16-12.8c-1.76-1-1.77-2.69,0-3.73Z" transform="translate(-20.79 -21.6)"/></g><path id="_Path_79" data-name="&lt;Path&gt;" class="cls-139" d="M107,378.82a9.94,9.94,0,0,1,9-.05l31.3,18c2.5,1.44,2.51,3.81,0,5.28l-21.28,12.63a9.89,9.89,0,0,1-9,.06L85.71,396.62c-2.49-1.44-2.5-3.81,0-5.27Z" transform="translate(-20.79 -21.6)"/><path id="_Path_80" data-name="&lt;Path&gt;" class="cls-45" d="M107,377a10,10,0,0,1,9-.06l31.3,18c2.5,1.43,2.51,3.81,0,5.28l-21.28,12.63a9.92,9.92,0,0,1-9,.06L85.71,394.81c-2.49-1.44-2.5-3.81,0-5.27Z" transform="translate(-20.79 -21.6)"/><polygon id="_Path_81" data-name="&lt;Path&gt;" class="cls-49" points="67.56 369.28 84.55 379.32 85.61 378.69 68.62 368.68 67.56 369.28"/><polygon id="_Path_82" data-name="&lt;Path&gt;" class="cls-49" points="71.22 367.31 105.21 387.36 106.27 386.72 72.29 366.71 71.22 367.31"/><polygon id="_Path_83" data-name="&lt;Path&gt;" class="cls-49" points="74.72 365.23 108.71 385.28 109.77 384.65 75.79 364.63 74.72 365.23"/><polygon id="_Path_84" data-name="&lt;Path&gt;" class="cls-49" points="78.28 363.2 112.26 383.25 113.32 382.62 79.34 362.6 78.28 363.2"/><polygon id="_Path_85" data-name="&lt;Path&gt;" class="cls-49" points="81.83 361.14 115.81 381.19 116.87 380.56 82.89 360.54 81.83 361.14"/><polygon id="_Path_86" data-name="&lt;Path&gt;" class="cls-49" points="85.38 359.11 119.36 379.17 120.42 378.53 86.44 358.51 85.38 359.11"/><polygon id="_Path_87" data-name="&lt;Path&gt;" class="cls-49" points="89.05 357.89 121.81 377.34 122.84 376.72 90.09 357.3 89.05 357.89"/><g class="cls-53"><ellipse id="_Path_88" data-name="&lt;Path&gt;" class="cls-140" cx="163.7" cy="406.76" rx="29.37" ry="16.95"/><path id="_Path_89" data-name="&lt;Path&gt;" class="cls-48" d="M205.1,421.88h-2.35a15.11,15.11,0,0,0-3.78-3c-8.17-4.72-21.55-4.72-29.72,0a15.29,15.29,0,0,0-3.78,3h-2.35v5.55h0c0,3.13,2,6.26,6.13,8.63,8.17,4.71,21.55,4.71,29.72,0,4.11-2.37,6.15-5.5,6.13-8.63h0Z" transform="translate(-20.79 -21.6)"/><path id="_Path_90" data-name="&lt;Path&gt;" class="cls-141" d="M169.25,418.9a15.29,15.29,0,0,0-3.78,3h-2.35v5.55h0c0,3.13,2,6.26,6.13,8.63l.39.21v-5.6l4-13.72A23.58,23.58,0,0,0,169.25,418.9Z" transform="translate(-20.79 -21.6)"/><ellipse id="_Path_91" data-name="&lt;Path&gt;" class="cls-142" cx="163.32" cy="400.28" rx="21.02" ry="12.13"/><path id="_Path_92" data-name="&lt;Path&gt;" class="cls-143" d="M184.11,409.76a30.4,30.4,0,0,0-14.86,3.54c-8.17,4.72-8.17,12.44,0,17.16l.39.21,14.47-6.89Z" transform="translate(-20.79 -21.6)"/><path class="cls-43" d="M163.4,423.78h20.71v-14a30.4,30.4,0,0,0-14.86,3.54C164.33,416.14,162.39,420.07,163.4,423.78Z" transform="translate(-20.79 -21.6)"/></g></g><g id="Layer_10" data-name="Layer 10"><path id="_Path_93" data-name="&lt;Path&gt;" class="cls-144" d="M373.73,109.64a7.85,7.85,0,0,0-3.52-6.11L229.68,22a2.73,2.73,0,0,0-2.63-.06L224.86,23l1,191.29a7.85,7.85,0,0,0,3.52,6.11L371.55,305l2.18,1.26Z" transform="translate(-20.79 -21.6)"/><path id="_Path_94" data-name="&lt;Path&gt;" class="cls-55" d="M371.55,111.24a7.83,7.83,0,0,0-3.53-6.11L227.2,23.35c-1.93-1.12-3.52-.21-3.52,2V219.11L371.55,305Z" transform="translate(-20.79 -21.6)"/><path id="_Path_95" data-name="&lt;Path&gt;" class="cls-43" d="M368,105.13,227.2,23.35c-1.93-1.12-3.52-.21-3.52,2v9.19l147.87,85.86v-9.19A7.83,7.83,0,0,0,368,105.13Z" transform="translate(-20.79 -21.6)"/><path id="_Path_96" data-name="&lt;Path&gt;" class="cls-45" d="M231.5,31.08c-.63-.37-1.15-.07-1.15.66a2.55,2.55,0,0,0,1.15,2c.63.37,1.15.07,1.15-.66A2.53,2.53,0,0,0,231.5,31.08Z" transform="translate(-20.79 -21.6)"/><path id="_Path_97" data-name="&lt;Path&gt;" class="cls-45" d="M236.5,34c-.63-.36-1.14-.06-1.14.67a2.55,2.55,0,0,0,1.14,2c.64.36,1.15.06,1.15-.67A2.55,2.55,0,0,0,236.5,34Z" transform="translate(-20.79 -21.6)"/><path id="_Path_98" data-name="&lt;Path&gt;" class="cls-45" d="M241.5,37c-.63-.37-1.14-.07-1.14.66a2.52,2.52,0,0,0,1.15,2c.63.37,1.14.07,1.14-.66A2.53,2.53,0,0,0,241.5,37Z" transform="translate(-20.79 -21.6)"/><polygon id="_Path_99" data-name="&lt;Path&gt;" class="cls-48" points="214.51 35.28 214.51 91.25 337.95 162.28 337.95 106.68 214.51 35.28"/><polygon id="_Path_100" data-name="&lt;Path&gt;" class="cls-45" points="256.94 67.67 256.94 71.96 332.38 115.69 332.38 111.42 256.94 67.67"/><g id="_Group_7" data-name="&lt;Group&gt;"><polygon id="_Path_101" data-name="&lt;Path&gt;" class="cls-51" points="214.33 162.37 214.33 166.66 337.95 238.49 337.95 234.22 214.33 162.37"/><polygon id="_Path_102" data-name="&lt;Path&gt;" class="cls-51" points="214.33 174 214.33 178.29 337.95 250.11 337.95 245.85 214.33 174"/><polygon id="_Path_103" data-name="&lt;Path&gt;" class="cls-51" points="214.33 186.21 214.33 190.5 337.95 262.32 337.95 258.06 214.33 186.21"/></g><polygon id="_Path_104" data-name="&lt;Path&gt;" class="cls-45" points="256.94 79.3 256.94 83.59 332.38 127.31 332.38 123.05 256.94 79.3"/><polygon id="_Path_105" data-name="&lt;Path&gt;" class="cls-45" points="256.94 90.92 256.94 95.21 332.38 138.94 332.38 134.68 256.94 90.92"/><polygon id="_Path_106" data-name="&lt;Path&gt;" class="cls-45" points="256.94 102.55 256.94 106.84 292.27 127.31 292.27 123.05 256.94 102.55"/><polygon id="_Path_107" data-name="&lt;Path&gt;" class="cls-51" points="214.51 98.78 214.51 143.41 250 164.32 250 119.98 214.51 98.78"/><polygon id="_Path_108" data-name="&lt;Path&gt;" class="cls-51" points="302.47 150.52 302.47 195.14 337.95 216.06 337.95 171.72 302.47 150.52"/><path id="_Path_109" data-name="&lt;Path&gt;" class="cls-45" d="M254.7,76.84c-9-5.19-16.34-.92-16.34,9.49s7.37,23.19,16.39,28.39,16.37.94,16.35-9.49S263.7,82,254.7,76.84Z" transform="translate(-20.79 -21.6)"/><polygon id="_Path_110" data-name="&lt;Path&gt;" class="cls-45" points="233 131.72 250 120.65 250 119.98 249.42 119.64 232.45 130.7 215.5 99.38 214.51 98.78 214.51 99.99 231.47 131.34 214.51 142.39 214.51 143.41 214.81 143.58 232.03 132.36 249 163.74 250 164.32 250 163.13 233 131.72"/><polygon id="_Path_111" data-name="&lt;Path&gt;" class="cls-45" points="337.95 171.72 337.81 171.63 320.53 182.89 303.27 151 302.47 150.52 302.47 151.95 319.55 183.53 302.47 194.66 302.47 195.14 303.2 195.57 320.11 184.56 336.78 215.36 337.95 216.06 337.95 215.1 321.08 183.92 337.95 172.93 337.95 171.72"/><polygon id="_Path_112" data-name="&lt;Path&gt;" class="cls-145" points="260.23 126.83 260.23 171.46 295.72 192.37 295.72 148.03 260.23 126.83"/><polygon id="_Path_113" data-name="&lt;Path&gt;" class="cls-146" points="251.19 129.74 251.19 174.36 286.68 195.28 286.68 150.94 251.19 129.74"/><g id="_Group_8" data-name="&lt;Group&gt;"><polygon id="_Path_114" data-name="&lt;Path&gt;" class="cls-49" points="240.9 138.46 238.57 139.04 240.9 183.08 274.06 204.58 276.39 204 276.39 159.66 240.9 138.46"/><polygon id="_Path_115" data-name="&lt;Path&gt;" class="cls-48" points="238.57 139.04 238.57 183.66 274.06 204.58 274.06 160.24 238.57 139.04"/></g><path id="_Path_116" data-name="&lt;Path&gt;" class="cls-147" d="M257.58,95.24a3.13,3.13,0,0,0,1-2.56,9.4,9.4,0,0,0-4.22-7.3c-2.31-1.33-4.2-.24-4.2,2.44a9.28,9.28,0,0,0,2.17,5.51,6.75,6.75,0,0,0-3.88,6.1v1.68L261,108.45V105A15.74,15.74,0,0,0,257.58,95.24Z" transform="translate(-20.79 -21.6)"/></g><g id="Layer_11" data-name="Layer 11"><path class="cls-148" d="M219.48,135.05v-5.36a3.61,3.61,0,0,0-1.61-2.79L199,116v29.14l17.75,10.25a1.4,1.4,0,0,0,.39.16h0a.87.87,0,0,0,.81.16,2.24,2.24,0,0,0,1.52-2.12v-9.16l1.93-.76a1.31,1.31,0,0,0,1.13-1.85Z" transform="translate(-20.79 -21.6)"/><path id="_Path_117" data-name="&lt;Path&gt;" class="cls-149" d="M155.69,90.37h0a2.52,2.52,0,0,1,3-.38l56.81,32.85a3.55,3.55,0,0,1,1.61,2.79V131l3.07,6.77a1.32,1.32,0,0,1-1.2,1.86h-1.87v9.9a2.24,2.24,0,0,1-1.51,2.12h0a.88.88,0,0,1-.82-.16L157.2,118.17a3.58,3.58,0,0,1-1.75-2.72V90.93A.8.8,0,0,1,155.69,90.37Z" transform="translate(-20.79 -21.6)"/><path id="_Path_118" data-name="&lt;Path&gt;" class="cls-55" d="M155.45,91.39c0-1,.73-1.44,1.61-.93l57.37,33.12a3.59,3.59,0,0,1,1.61,2.79v5.35l3.06,6.77a1.32,1.32,0,0,1-1.2,1.87H216v10c0,1-.73,1.44-1.61.93l-57.37-33.12a3.59,3.59,0,0,1-1.61-2.79Z" transform="translate(-20.79 -21.6)"/><g id="_Group_9" data-name="&lt;Group&gt;"><polygon class="cls-150" points="191.53 116.23 158.35 97.13 158.34 94.98 191.53 114.05 191.53 116.23"/></g><g id="_Group_10" data-name="&lt;Group&gt;"><polygon class="cls-150" points="191.53 120.48 158.34 101.44 158.34 99.3 191.53 118.36 191.53 120.48"/></g><g id="_Group_11" data-name="&lt;Group&gt;"><polygon class="cls-150" points="176.8 116.28 158.34 105.72 158.34 103.58 176.8 114.16 176.8 116.28"/></g><g id="_Group_12" data-name="&lt;Group&gt;"><polygon class="cls-150" points="175.24 100.78 158.34 90.78 158.34 85.07 175.24 95.14 175.24 100.78"/></g><path class="cls-43" d="M176.94,101.94,157.06,90.46c-.88-.51-1.61-.09-1.61.93v24a3.59,3.59,0,0,0,1.61,2.79l19.88,11.48Z" transform="translate(-20.79 -21.6)"/><g id="_Group_13" data-name="&lt;Group&gt;"><path id="_Compound_Path_" data-name="&lt;Compound Path&gt;" class="cls-45" d="M170.49,115.64c.32.18.6,0,.84-.4a4.35,4.35,0,0,0,.36-2,11.89,11.89,0,0,0-1.43-5.6,9.86,9.86,0,0,0-3.84-4.08q-2.41-1.38-4-.33c-1.1.7-1.65,2-1.65,3.82a11,11,0,0,0,1.55,5.5,10.37,10.37,0,0,0,3.83,4,3.12,3.12,0,0,0,3.15.28l.73,1.87a3.21,3.21,0,0,1-1.81.12,6.19,6.19,0,0,1-2.07-.74,14.74,14.74,0,0,1-6.94-12c0-2.28.7-3.84,2.1-4.65s3.08-.67,5.05.45a13.42,13.42,0,0,1,4.94,5.15,13.9,13.9,0,0,1,2,7,4.79,4.79,0,0,1-.8,3.15,1.55,1.55,0,0,1-2.12.15,3.76,3.76,0,0,1-1.23-1.17,4.94,4.94,0,0,1-.77-1.63,1.94,1.94,0,0,1-2.47,0,7.25,7.25,0,0,1-2.6-2.8,7.86,7.86,0,0,1-1.11-4,3.48,3.48,0,0,1,1-2.83c.67-.54,1.55-.5,2.63.12a4.19,4.19,0,0,1,1.05.87,5.91,5.91,0,0,1,.71,1l.23.4v-.84l2.21,1.26v6.53C170,115,170.13,115.44,170.49,115.64ZM167.76,111a4.29,4.29,0,0,0-.47-2,3.1,3.1,0,0,0-1.23-1.38c-.5-.29-.91-.29-1.21,0a1.86,1.86,0,0,0-.45,1.41,4.75,4.75,0,0,0,.45,2,3,3,0,0,0,1.23,1.44q.78.45,1.23,0A2,2,0,0,0,167.76,111Z" transform="translate(-20.79 -21.6)"/></g></g><g id="Layer_14" data-name="Layer 14"><g id="_Group_14" data-name="&lt;Group&gt;"><path id="_Path_119" data-name="&lt;Path&gt;" class="cls-151" d="M128.94,29.52l.66-.57a1.67,1.67,0,0,1,1.61,0L191.66,63.9a2.35,2.35,0,0,1,1.07,1.84V94.6a1.08,1.08,0,0,1-.48.89l-.81.69L130.83,60.39a2.36,2.36,0,0,1-1.07-1.85Z" transform="translate(-20.79 -21.6)"/><path id="_Path_120" data-name="&lt;Path&gt;" class="cls-55" d="M128.65,30.2c0-.68.48-.95,1.07-.62L190.54,64.7a2.36,2.36,0,0,1,1.07,1.85V95.62c0,.68-.48.95-1.07.62l-60.82-35a2.35,2.35,0,0,1-1.07-1.84Z" transform="translate(-20.79 -21.6)"/><path id="_Path_121" data-name="&lt;Path&gt;" class="cls-152" d="M135.4,46c0-.1.07-.14.16-.09l50.05,28.87a.37.37,0,0,1,.16.27v4.34a.1.1,0,0,1-.16.09L135.56,50.67a.36.36,0,0,1-.16-.28Z" transform="translate(-20.79 -21.6)"/><path id="_Path_122" data-name="&lt;Path&gt;" class="cls-153" d="M135.4,46c0-.1.07-.14.16-.09L169,65.23a.34.34,0,0,1,.16.27v4.34c0,.1-.07.14-.16.09L135.56,50.67a.36.36,0,0,1-.16-.28Z" transform="translate(-20.79 -21.6)"/></g></g><g id="Layer_15" data-name="Layer 15"><path id="_Path_123" data-name="&lt;Path&gt;" class="cls-154" d="M402.61,101.86h0a2.47,2.47,0,0,1,3-.43l51.25,29.69a4,4,0,0,1,1.79,3.1v38.46a1.78,1.78,0,0,1-1.41,1.74l-.31.07a2.38,2.38,0,0,1-1.67-.27L404,144.49a4,4,0,0,1-1.78-3.09V103A1.6,1.6,0,0,1,402.61,101.86Z" transform="translate(-20.79 -21.6)"/><path id="_Path_124" data-name="&lt;Path&gt;" class="cls-55" d="M402.17,103.26c0-1.13.8-1.6,1.78-1L455.43,132a4,4,0,0,1,1.78,3.1V173.3c0,1.13-.8,1.6-1.78,1L404,144.61a4,4,0,0,1-1.78-3.1Z" transform="translate(-20.79 -21.6)"/><path id="_Path_125" data-name="&lt;Path&gt;" class="cls-43" d="M404,144.61l51.48,29.72c1,.57,1.78.1,1.78-1V166l-.12-.08L402.17,134.2v7.31A4,4,0,0,0,404,144.61Z" transform="translate(-20.79 -21.6)"/><path id="_Path_126" data-name="&lt;Path&gt;" class="cls-43" d="M436.86,139.81l-9.62,1c-1.11.11-2.5-1.35-2.5-2.63V127.06c0-1.29,1.39-1.43,2.5-.26l9.62,10.12c1.11,1.17,1.11,2.77,0,2.89l-9.62,1c-1.11.11-2.5-1.35-2.5-2.63V127.06c0-1.29,1.39-1.43,2.5-.26l9.62,10.12C438,138.09,438,139.69,436.86,139.81Z" transform="translate(-20.79 -21.6)"/><g id="_Group_15" data-name="&lt;Group&gt;"><path class="cls-45" d="M450.65,167.75a.76.76,0,0,1-.38-.11L407.9,143.18a.76.76,0,1,1,.76-1.32L451,166.32a.77.77,0,0,1-.38,1.43Z" transform="translate(-20.79 -21.6)"/></g><g id="_Group_16" data-name="&lt;Group&gt;"><path class="cls-155" d="M427.69,154.49a.75.75,0,0,1-.38-.1L407.9,143.18a.76.76,0,1,1,.76-1.32l19.41,11.21a.76.76,0,0,1,.28,1A.77.77,0,0,1,427.69,154.49Z" transform="translate(-20.79 -21.6)"/></g><path id="_Path_127" data-name="&lt;Path&gt;" class="cls-156" d="M428.81,155.08a.82.82,0,0,1-1.55,0,3,3,0,0,1,0-2.7.82.82,0,0,1,1.55,0A3,3,0,0,1,428.81,155.08Z" transform="translate(-20.79 -21.6)"/></g><g id="Layer_13" data-name="Layer 13"><path class="cls-157" d="M397.54,172.37l-50.65-29.24v36.19l54.84,32.39V179.63A8.38,8.38,0,0,0,397.54,172.37Z" transform="translate(-20.79 -21.6)"/><polygon id="_Path_128" data-name="&lt;Path&gt;" class="cls-141" points="391.01 189.09 390.94 149.94 330.79 114.41 329.59 115.21 330.79 153.53 389.81 189.89 391.01 189.09"/><polygon id="_Path_129" data-name="&lt;Path&gt;" class="cls-158" points="389.81 189.89 389.73 150.74 329.59 115.21 329.59 154.33 389.81 189.89"/><path id="_Path_130" data-name="&lt;Path&gt;" class="cls-159" d="M365.34,153.13c-2.78-1.6-5-.29-5,2.92a11.24,11.24,0,0,0,5.06,8.76c2.78,1.6,5,.29,5-2.93A11.25,11.25,0,0,0,365.34,153.13Z" transform="translate(-20.79 -21.6)"/><polygon id="_Path_131" data-name="&lt;Path&gt;" class="cls-159" points="329.59 154.33 354.24 146.12 363.45 161.81 380.84 157.03 389.9 171.19 389.81 189.89 329.59 154.33"/><polygon id="_Path_132" data-name="&lt;Path&gt;" class="cls-159" points="343.1 151.35 343.67 152.97 349.6 152.49 354.24 146.12 333.43 153.05 343.1 151.35"/><polygon id="_Path_133" data-name="&lt;Path&gt;" class="cls-159" points="375.67 161.35 375.67 163.06 380.84 157.03 363.45 161.81 369.25 164.99 375.67 161.35"/></g><g id="Layer_16" data-name="Layer 16"><path class="cls-157" d="M373.73,139.14v-29.5a7.85,7.85,0,0,0-3.52-6.11l-45-26.13v33.72l1.33.76h0Z" transform="translate(-20.79 -21.6)"/><g id="_Group_17" data-name="&lt;Group&gt;"><path id="_Path_134" data-name="&lt;Path&gt;" class="cls-160" d="M328.92,52.06v-1.2a1.07,1.07,0,0,1,.5-.9l1.3-.84a2.18,2.18,0,0,1,2.28-.06L386.43,80a6.35,6.35,0,0,1,2.88,5v56a1.4,1.4,0,0,1-.77,1.25l-1.15.57-57.88-33.42Z" transform="translate(-20.79 -21.6)"/><path id="_Path_135" data-name="&lt;Path&gt;" class="cls-43" d="M328.18,52.13c0-1.83,1.3-2.58,2.88-1.66l53.38,30.82a6.38,6.38,0,0,1,2.88,5v56.49l-59.14-34.14Z" transform="translate(-20.79 -21.6)"/><path id="_Path_136" data-name="&lt;Path&gt;" class="cls-45" d="M384.44,81.29,331.06,50.47c-1.58-.92-2.88-.17-2.88,1.66v8.06l59.14,34.14V86.27A6.38,6.38,0,0,0,384.44,81.29Z" transform="translate(-20.79 -21.6)"/><path id="_Path_137" data-name="&lt;Path&gt;" class="cls-43" d="M333.81,57.11c-.6-.34-1.09-.06-1.09.63a2.39,2.39,0,0,0,1.09,1.87c.59.35,1.08.07,1.08-.62A2.41,2.41,0,0,0,333.81,57.11Z" transform="translate(-20.79 -21.6)"/><path id="_Path_138" data-name="&lt;Path&gt;" class="cls-43" d="M339.12,60.23c-.59-.34-1.08-.06-1.08.63a2.43,2.43,0,0,0,1.08,1.88c.6.34,1.09.06,1.09-.63A2.41,2.41,0,0,0,339.12,60.23Z" transform="translate(-20.79 -21.6)"/><path id="_Path_139" data-name="&lt;Path&gt;" class="cls-43" d="M344.44,63.35c-.6-.34-1.09-.06-1.09.63a2.41,2.41,0,0,0,1.09,1.88c.59.34,1.08.06,1.08-.63A2.43,2.43,0,0,0,344.44,63.35Z" transform="translate(-20.79 -21.6)"/><polygon id="_Path_140" data-name="&lt;Path&gt;" class="cls-45" points="321.04 51.09 348.11 66.72 348.11 68.49 321.04 52.86 321.04 51.09"/><polygon id="_Path_141" data-name="&lt;Path&gt;" class="cls-45" points="310.12 44.8 319.41 50.2 319.41 51.98 310.12 46.58 310.12 44.8"/><polygon id="_Path_142" data-name="&lt;Path&gt;" class="cls-161" points="314.76 52.57 322.49 57.04 322.49 58.81 314.76 54.34 314.76 52.57"/><polygon id="_Path_143" data-name="&lt;Path&gt;" class="cls-45" points="323.82 57.74 334.33 63.86 334.33 65.64 323.82 59.52 323.82 57.74"/><polygon id="_Path_144" data-name="&lt;Path&gt;" class="cls-45" points="340.79 72.72 363.79 86.01 363.79 87.78 340.79 74.5 340.79 72.72"/><polygon id="_Path_145" data-name="&lt;Path&gt;" class="cls-162" points="332.22 67.79 338.32 71.31 338.32 73.09 332.22 69.57 332.22 67.79"/><polygon id="_Path_146" data-name="&lt;Path&gt;" class="cls-45" points="310.12 55.07 329.45 66.23 329.45 68 310.12 56.84 310.12 55.07"/><polygon id="_Path_147" data-name="&lt;Path&gt;" class="cls-45" points="324.36 68.49 343.19 79.37 343.19 81.14 324.36 70.27 324.36 68.49"/><polygon id="_Path_148" data-name="&lt;Path&gt;" class="cls-163" points="318.97 65.33 323.2 67.79 323.2 69.57 318.97 67.11 318.97 65.33"/><polygon id="_Path_149" data-name="&lt;Path&gt;" class="cls-45" points="326.61 74.81 359.7 93.87 359.7 95.64 326.61 76.59 326.61 74.81"/><polygon id="_Path_150" data-name="&lt;Path&gt;" class="cls-45" points="312.76 66.91 325 73.93 325 75.7 312.76 68.68 312.76 66.91"/><polygon id="_Path_151" data-name="&lt;Path&gt;" class="cls-45" points="333.19 83.83 363.79 101.41 363.79 103.18 333.19 85.6 333.19 83.83"/><polygon id="_Path_152" data-name="&lt;Path&gt;" class="cls-45" points="318.88 75.6 331.58 82.94 331.58 84.72 318.88 77.37 318.88 75.6"/><polygon id="_Path_153" data-name="&lt;Path&gt;" class="cls-164" points="310.12 70.47 317.67 74.81 317.67 76.59 310.12 72.24 310.12 70.47"/><polygon id="_Path_154" data-name="&lt;Path&gt;" class="cls-165" points="323.82 83.52 328.16 86.01 328.16 87.78 323.82 85.29 323.82 83.52"/><polygon id="_Path_155" data-name="&lt;Path&gt;" class="cls-45" points="318.29 80.25 322.49 82.63 322.49 84.41 318.29 82.03 318.29 80.25"/><polygon id="_Path_156" data-name="&lt;Path&gt;" class="cls-45" points="334.58 94.76 363.79 111.67 363.79 113.45 334.58 96.53 334.58 94.76"/><polygon id="_Path_157" data-name="&lt;Path&gt;" class="cls-45" points="321.46 87.23 330.77 92.62 330.77 94.39 321.46 89 321.46 87.23"/><polygon id="_Path_158" data-name="&lt;Path&gt;" class="cls-166" points="310.12 80.73 315 83.52 315 85.29 310.12 82.51 310.12 80.73"/></g></g></g></g></svg>