<svg id="Web_Design" data-name="Web Design" xmlns="http://www.w3.org/2000/svg" viewBox="0 0 356.32 297.49"><defs><style>.cls-1{opacity:0.25;}.cls-2{fill:#92d0ef;}.cls-3,.cls-8{fill:#fff;}.cls-3,.cls-5,.cls-6,.cls-7{fill-rule:evenodd;}.cls-4,.cls-5{fill:#0072cd;}.cls-12,.cls-6{fill:#d6eafa;}.cls-11,.cls-7{fill:#54aae3;}.cls-9{fill:#fef37f;}.cls-10{fill:#ebf3fe;}</style></defs><title>web-design</title><g class="cls-1"><path class="cls-2" d="M753.69,437.83H667.57a13.18,13.18,0,0,1-13.19-13.18h0a13.19,13.19,0,0,1,13.19-13.19h86.12a13.19,13.19,0,0,1,13.18,13.19h0A13.18,13.18,0,0,1,753.69,437.83Z" transform="translate(-577.58 -393.52)"/></g><g class="cls-1"><path class="cls-2" d="M646,623.5h55.34a10.33,10.33,0,0,1,10.33,10.33h0a10.32,10.32,0,0,1-10.33,10.33H646a10.32,10.32,0,0,1-10.33-10.33h0A10.33,10.33,0,0,1,646,623.5Z" transform="translate(-577.58 -393.52)"/></g><g class="cls-1"><path class="cls-2" d="M634.92,664.23h82a6.7,6.7,0,0,1,6.69,6.7h0a6.69,6.69,0,0,1-6.69,6.69h-82a6.69,6.69,0,0,1-6.7-6.69h0A6.7,6.7,0,0,1,634.92,664.23Z" transform="translate(-577.58 -393.52)"/></g><g class="cls-1"><rect class="cls-2" x="807.33" y="677.62" width="25.9" height="13.39" rx="6.3" ry="6.3" transform="translate(1062.97 975.12) rotate(180)"/></g><g class="cls-1"><rect class="cls-2" x="734.28" y="638.02" width="145.44" height="21.96" rx="10.33" ry="10.33" transform="translate(1036.42 904.48) rotate(180)"/></g><g class="cls-1"><path class="cls-2" d="M815.94,526.05h99.41a18.55,18.55,0,0,1,18.55,18.56h0a18.54,18.54,0,0,1-18.55,18.55H815.94a18.55,18.55,0,0,1-18.55-18.55h0A18.56,18.56,0,0,1,815.94,526.05Z" transform="translate(-577.58 -393.52)"/></g><g class="cls-1"><path class="cls-2" d="M773.55,599.21H920.83a12,12,0,0,1,12,12h0a12,12,0,0,1-12,12H773.55a12,12,0,0,1-12-12h0A12,12,0,0,1,773.55,599.21Z" transform="translate(-577.58 -393.52)"/></g><g class="cls-1"><path class="cls-2" d="M725.86,509.92H609.38a19.7,19.7,0,0,1-19.7-19.7h0a19.7,19.7,0,0,1,19.7-19.7H725.86a19.7,19.7,0,0,1,19.7,19.7h0A19.7,19.7,0,0,1,725.86,509.92Z" transform="translate(-577.58 -393.52)"/></g><g class="cls-1"><path class="cls-2" d="M774.38,621H606.05a28.47,28.47,0,0,1-28.47-28.47h0A28.47,28.47,0,0,1,606.05,564H774.38a28.47,28.47,0,0,1,28.46,28.47h0A28.47,28.47,0,0,1,774.38,621Z" transform="translate(-577.58 -393.52)"/></g><g class="cls-1"><path class="cls-2" d="M869.62,465H776.69A15.71,15.71,0,0,1,761,449.3h0a15.72,15.72,0,0,1,15.72-15.72h92.93a15.72,15.72,0,0,1,15.72,15.72h0A15.71,15.71,0,0,1,869.62,465Z" transform="translate(-577.58 -393.52)"/></g><g class="cls-1"><path class="cls-2" d="M841,410.63H819a8.55,8.55,0,0,1-8.56-8.55h0a8.56,8.56,0,0,1,8.56-8.56H841a8.55,8.55,0,0,1,8.55,8.56h0A8.55,8.55,0,0,1,841,410.63Z" transform="translate(-577.58 -393.52)"/></g><path class="cls-3" d="M663.07,488.5c-.25-.63-7.9-12.63-7.9-12.63s-7.32,11.64-7.8,12.63Z" transform="translate(-577.58 -393.52)"/><path class="cls-4" d="M663.07,489.5h-15.7a1,1,0,0,1-.9-1.43c.49-1,7.1-11.54,7.86-12.73a1,1,0,0,1,.84-.47h0a1,1,0,0,1,.85.46c2.31,3.63,7.72,12.15,8,12.8a1,1,0,0,1-.1.93A1,1,0,0,1,663.07,489.5Zm-14-2h12.2c-1.34-2.18-4-6.42-6.14-9.76C653,481.14,650.44,485.32,649.12,487.5Z" transform="translate(-577.58 -393.52)"/><polygon class="cls-5" points="73.84 88.42 81.37 88.4 77.59 82.35 73.84 88.42"/><polygon class="cls-6" points="85.32 95.43 69.75 95.48 69.78 207.68 85.32 207.68 85.32 95.43"/><path class="cls-4" d="M662.9,602.21H647.36a1,1,0,0,1-1-1l0-112.21a1,1,0,0,1,1-1L662.9,488h0a1,1,0,0,1,.71.29,1,1,0,0,1,.29.71V601.21A1,1,0,0,1,662.9,602.21Zm-14.54-2H661.9V490l-13.57,0Z" transform="translate(-577.58 -393.52)"/><polygon class="cls-6" points="80.21 95.43 74.86 95.48 74.87 207.68 80.21 207.68 80.21 95.43"/><path class="cls-4" d="M657.79,602.21h-5.34a1,1,0,0,1-1-1V489a1,1,0,0,1,1-1l5.35-.05a1,1,0,0,1,1,1V601.21A1,1,0,0,1,657.79,602.21Zm-4.34-2h3.34V490l-3.35,0Z" transform="translate(-577.58 -393.52)"/><path class="cls-7" d="M647.31,601.21v7.24a7.91,7.91,0,0,0,7.88,7.88h0a7.9,7.9,0,0,0,7.88-7.88v-7.24Z" transform="translate(-577.58 -393.52)"/><path class="cls-4" d="M655.19,617.33a8.89,8.89,0,0,1-8.88-8.88v-7.24a1,1,0,0,1,1-1h15.76a1,1,0,0,1,1,1v7.24A8.89,8.89,0,0,1,655.19,617.33Zm-6.88-15.12v6.24a6.88,6.88,0,1,0,13.76,0v-6.24Z" transform="translate(-577.58 -393.52)"/><polygon class="cls-8" points="61.52 178.04 126.78 177.97 126.49 218.37 62.38 218.37 61.52 178.04"/><rect class="cls-2" x="61.98" y="178.43" width="31.52" height="13.76"/><rect class="cls-2" x="116.1" y="178.43" width="10.71" height="13.76"/><rect class="cls-2" x="99.53" y="178.43" width="12.76" height="13.76"/><polygon class="cls-9" points="61.52 177 94.15 212.47 126.78 176.93 126.49 217.33 62.38 217.33 61.52 177"/><path class="cls-4" d="M704.08,612.89H640a1,1,0,0,1-1-1l-.85-40.33a1,1,0,0,1,.28-.72,1,1,0,0,1,.71-.3l65.26-.07h0a1,1,0,0,1,.71.29,1,1,0,0,1,.29.71l-.28,40.41A1,1,0,0,1,704.08,612.89Zm-63.14-2h62.14l.27-38.4-63.22.07Z" transform="translate(-577.58 -393.52)"/><polygon class="cls-8" points="61.52 223.32 126.78 223.32 103.71 201.62 84.71 201.62 61.52 223.32"/><polygon class="cls-10" points="61.57 223.3 61.57 178.22 84.75 201.62 61.57 223.3"/><polygon class="cls-10" points="126.81 223.3 126.81 178.43 103.71 201.62 126.81 223.3"/><path class="cls-4" d="M704.36,617.84H639.11a1,1,0,0,1-.69-1.73l23.19-21.69a1,1,0,0,1,.68-.27h19a1,1,0,0,1,.69.27l23.07,21.69a1,1,0,0,1,.24,1.1A1,1,0,0,1,704.36,617.84Zm-62.72-2h60.2L680.9,596.15H662.69Z" transform="translate(-577.58 -393.52)"/><path class="cls-4" d="M639.15,617.82a1,1,0,0,1-.4-.08,1,1,0,0,1-.6-.92V571.74a1,1,0,0,1,.62-.92,1,1,0,0,1,1.09.22l23.19,23.4a1,1,0,0,1,.29.73,1,1,0,0,1-.32.71l-23.19,21.67A1,1,0,0,1,639.15,617.82Zm1-43.65v40.35l20.75-19.4Z" transform="translate(-577.58 -393.52)"/><path class="cls-4" d="M704.4,617.82a1,1,0,0,1-.69-.27l-23.1-21.67a1,1,0,0,1-.32-.72,1,1,0,0,1,.3-.72l23.1-23.19a1,1,0,0,1,1.09-.22,1,1,0,0,1,.62.92v44.87a1,1,0,0,1-.61.92A.88.88,0,0,1,704.4,617.82Zm-21.67-22.7,20.67,19.39V574.37Z" transform="translate(-577.58 -393.52)"/><rect class="cls-4" x="23.16" y="222.49" width="15" height="4"/><rect class="cls-4" x="320.16" y="222.49" width="15" height="4"/><rect class="cls-4" x="46.91" y="222.49" width="260.25" height="4"/><path class="cls-4" d="M631.24,596.51h-2a1,1,0,0,1,0-2h2a1,1,0,0,1,0,2Zm-6,0h-2a1,1,0,0,1,0-2h2a1,1,0,0,1,0,2Zm-6,0h-2a1,1,0,0,1,0-2h2a1,1,0,0,1,0,2Zm-6,0h-2a1,1,0,0,1,0-2h2a1,1,0,0,1,0,2Zm-6,0h-2a1,1,0,0,1,0-2h2a1,1,0,0,1,0,2Zm-6,0h-1a1,1,0,0,1,0-2h1a1,1,0,0,1,0,2Z" transform="translate(-577.58 -393.52)"/><path class="cls-4" d="M832,468.53h-2a1,1,0,0,1,0-2h2a1,1,0,0,1,0,2Zm-6,0h-2a1,1,0,0,1,0-2h2a1,1,0,0,1,0,2Zm-6,0h-2a1,1,0,0,1,0-2h2a1,1,0,0,1,0,2Zm-6,0h-2a1,1,0,0,1,0-2h2a1,1,0,0,1,0,2Zm-6,0h-2a1,1,0,0,1,0-2h2a1,1,0,0,1,0,2Zm-6,0h-1a1,1,0,0,1,0-2h1a1,1,0,0,1,0,2Z" transform="translate(-577.58 -393.52)"/><path class="cls-4" d="M763.14,468.53h-2a1,1,0,0,1,0-2h2a1,1,0,1,1,0,2Zm-6,0h-2a1,1,0,0,1,0-2h2a1,1,0,1,1,0,2Zm-6,0h-2a1,1,0,0,1,0-2h2a1,1,0,1,1,0,2Zm-6,0h-2a1,1,0,0,1,0-2h2a1,1,0,1,1,0,2Zm-6,0h-2a1,1,0,0,1,0-2h2a1,1,0,1,1,0,2Zm-6,0h-1a1,1,0,0,1,0-2h1a1,1,0,1,1,0,2Z" transform="translate(-577.58 -393.52)"/><path class="cls-4" d="M795.85,450.68h-2a1,1,0,0,1,0-2h2a1,1,0,0,1,0,2Zm-6,0h-2a1,1,0,0,1,0-2h2a1,1,0,0,1,0,2Zm-6,0h-2a1,1,0,0,1,0-2h2a1,1,0,0,1,0,2Zm-6,0h-2a1,1,0,0,1,0-2h2a1,1,0,0,1,0,2Zm-6,0h-2a1,1,0,0,1,0-2h2a1,1,0,0,1,0,2Zm-6,0h-1a1,1,0,0,1,0-2h1a1,1,0,0,1,0,2Z" transform="translate(-577.58 -393.52)"/><path class="cls-4" d="M814,609.93h-2a1,1,0,0,1,0-2h2a1,1,0,0,1,0,2Zm-6,0h-2a1,1,0,0,1,0-2h2a1,1,0,0,1,0,2Zm-6,0h-2a1,1,0,0,1,0-2h2a1,1,0,0,1,0,2Zm-6,0h-2a1,1,0,0,1,0-2h2a1,1,0,0,1,0,2Zm-6,0h-.39a1,1,0,0,1,0-2H790a1,1,0,0,1,0,2Z" transform="translate(-577.58 -393.52)"/><path class="cls-8" d="M874.83,493.82s-8.3,5.5-8.3,13.89h-9.15c0-8.39-8.3-13.86-8.3-13.86L862,478.94Z" transform="translate(-577.58 -393.52)"/><path class="cls-11" d="M862.62,492.08v-12l-.86-1.27-1,1.5v11.83a3,3,0,0,0-1.64,2.57,2.88,2.88,0,0,0,2.88,2.91,2.69,2.69,0,0,0,2.63-2.91A2.25,2.25,0,0,0,862.62,492.08Z" transform="translate(-577.58 -393.52)"/><path class="cls-4" d="M866.53,508.71h-9.15a1,1,0,0,1-1-1c0-7.74-7.77-13-7.85-13a1,1,0,0,1-.44-.69,1,1,0,0,1,.23-.8l12.88-14.9a1,1,0,0,1,.75-.35h0a1,1,0,0,1,.75.35l12.87,14.88a1,1,0,0,1,.24.79,1,1,0,0,1-.44.7c-.08,0-7.85,5.31-7.85,13A1,1,0,0,1,866.53,508.71Zm-8.18-2h7.21c.48-6.67,5.66-11.37,7.8-13L862,480.47l-11.41,13.21C852.69,495.35,857.87,500,858.35,506.71Z" transform="translate(-577.58 -393.52)"/><path class="cls-2" d="M854.72,605.73V611a7.24,7.24,0,0,0,7.24,7.24h0a7.24,7.24,0,0,0,7.23-7.24v-5.29Z" transform="translate(-577.58 -393.52)"/><path class="cls-11" d="M866.87,528.16V508H857v20.17h0a2.32,2.32,0,0,0-2.33,2.32v75.76h14.48V530.48A2.32,2.32,0,0,0,866.87,528.16Z" transform="translate(-577.58 -393.52)"/><path class="cls-4" d="M869.19,607.07H854.71a1,1,0,0,1-1-1V530.31a3.34,3.34,0,0,1,2.33-3.17V507.82a1,1,0,0,1,1-1h9.83a1,1,0,0,1,1,1v19.32a3.34,3.34,0,0,1,2.32,3.17v75.76A1,1,0,0,1,869.19,607.07Zm-13.48-2h12.48V530.31a1.32,1.32,0,0,0-1.32-1.32,1,1,0,0,1-1-1V508.82H858V528a1,1,0,0,1-1,1,1.33,1.33,0,0,0-1.33,1.32Z" transform="translate(-577.58 -393.52)"/><path class="cls-4" d="M862,619.26a8.25,8.25,0,0,1-8.24-8.24v-5.29a1,1,0,0,1,1-1h14.47a1,1,0,0,1,1,1V611A8.25,8.25,0,0,1,862,619.26Zm-6.24-12.53V611a6.24,6.24,0,1,0,12.47,0v-4.29Z" transform="translate(-577.58 -393.52)"/><path class="cls-4" d="M866.35,528.56h-3.73a1,1,0,1,1,0-2h3.73a1,1,0,0,1,0,2Z" transform="translate(-577.58 -393.52)"/><path class="cls-4" d="M783.55,604.18a4.2,4.2,0,1,1,4.2-4.2A4.21,4.21,0,0,1,783.55,604.18Zm0-6.39a2.2,2.2,0,1,0,2.2,2.19A2.2,2.2,0,0,0,783.55,597.79Z" transform="translate(-577.58 -393.52)"/><path class="cls-4" d="M884.74,606.73a4.2,4.2,0,1,1,4.2-4.19A4.2,4.2,0,0,1,884.74,606.73Zm0-6.39a2.2,2.2,0,1,0,2.2,2.2A2.2,2.2,0,0,0,884.74,600.34Z" transform="translate(-577.58 -393.52)"/><path class="cls-4" d="M880.72,532.67a4.2,4.2,0,1,1,4.2-4.2A4.2,4.2,0,0,1,880.72,532.67Zm0-6.39a2.2,2.2,0,1,0,2.2,2.19A2.19,2.19,0,0,0,880.72,526.28Z" transform="translate(-577.58 -393.52)"/><path class="cls-4" d="M782.08,465a4.2,4.2,0,1,1,4.2-4.19A4.2,4.2,0,0,1,782.08,465Zm0-6.39a2.2,2.2,0,1,0,2.2,2.2A2.2,2.2,0,0,0,782.08,458.62Z" transform="translate(-577.58 -393.52)"/><path class="cls-4" d="M712.61,468.21a4.2,4.2,0,1,1,4.2-4.2A4.2,4.2,0,0,1,712.61,468.21Zm0-6.39a2.2,2.2,0,1,0,2.2,2.19A2.19,2.19,0,0,0,712.61,461.82Z" transform="translate(-577.58 -393.52)"/><path class="cls-4" d="M618.94,611.38a4.2,4.2,0,1,1,4.2-4.2A4.21,4.21,0,0,1,618.94,611.38Zm0-6.4a2.2,2.2,0,1,0,2.2,2.2A2.21,2.21,0,0,0,618.94,605Z" transform="translate(-577.58 -393.52)"/><path class="cls-4" d="M813.41,601a1,1,0,0,1-.71-.29l-4-4a1,1,0,0,1,0-1.42,1,1,0,0,1,1.41,0l4,4a1,1,0,0,1,0,1.41A1,1,0,0,1,813.41,601Z" transform="translate(-577.58 -393.52)"/><path class="cls-4" d="M809.42,601a1,1,0,0,1-.7-.29,1,1,0,0,1,0-1.41l4-4a1,1,0,0,1,1.41,0,1,1,0,0,1,0,1.42l-4,4A1,1,0,0,1,809.42,601Z" transform="translate(-577.58 -393.52)"/><path class="cls-4" d="M882.71,579.83a1,1,0,0,1-.7-.29l-4-4a1,1,0,1,1,1.42-1.42l4,4a1,1,0,0,1,0,1.41A1,1,0,0,1,882.71,579.83Z" transform="translate(-577.58 -393.52)"/><path class="cls-4" d="M878.73,579.83a1,1,0,0,1-.71-.29,1,1,0,0,1,0-1.41l4-4a1,1,0,0,1,1.41,0,1,1,0,0,1,0,1.42l-4,4A1,1,0,0,1,878.73,579.83Z" transform="translate(-577.58 -393.52)"/><path class="cls-4" d="M850.18,518.51a1,1,0,0,1-.7-.29l-4-4a1,1,0,0,1,1.42-1.41l4,4a1,1,0,0,1,0,1.41A1,1,0,0,1,850.18,518.51Z" transform="translate(-577.58 -393.52)"/><path class="cls-4" d="M846.2,518.51a1,1,0,0,1-.71-.29,1,1,0,0,1,0-1.41l4-4a1,1,0,0,1,1.41,0,1,1,0,0,1,0,1.41l-4,4A1,1,0,0,1,846.2,518.51Z" transform="translate(-577.58 -393.52)"/><path class="cls-4" d="M822.66,458.62a1,1,0,0,1-.7-.29l-4-4a1,1,0,0,1,1.42-1.42l4,4a1,1,0,0,1,0,1.42A1,1,0,0,1,822.66,458.62Z" transform="translate(-577.58 -393.52)"/><path class="cls-4" d="M818.68,458.62a1,1,0,0,1-.71-.29,1,1,0,0,1,0-1.42l4-4a1,1,0,0,1,1.41,0,1,1,0,0,1,0,1.42l-4,4A1,1,0,0,1,818.68,458.62Z" transform="translate(-577.58 -393.52)"/><path class="cls-4" d="M721.6,605.53a1,1,0,0,1-.7-.29l-4-4a1,1,0,0,1,0-1.41,1,1,0,0,1,1.42,0l4,4a1,1,0,0,1,0,1.42A1,1,0,0,1,721.6,605.53Z" transform="translate(-577.58 -393.52)"/><path class="cls-4" d="M717.62,605.53a1,1,0,0,1-.71-.29,1,1,0,0,1,0-1.42l4-4a1,1,0,0,1,1.41,1.41l-4,4A1,1,0,0,1,717.62,605.53Z" transform="translate(-577.58 -393.52)"/><path class="cls-4" d="M624.13,582.55a1,1,0,0,1-.71-.29l-4-4a1,1,0,0,1,0-1.42,1,1,0,0,1,1.41,0l4,4a1,1,0,0,1-.71,1.7Z" transform="translate(-577.58 -393.52)"/><path class="cls-4" d="M620.15,582.55a1,1,0,0,1-.71-.29,1,1,0,0,1,0-1.41l4-4a1,1,0,1,1,1.42,1.42l-4,4A1,1,0,0,1,620.15,582.55Z" transform="translate(-577.58 -393.52)"/><path class="cls-4" d="M689.87,470.52a1,1,0,0,1-.71-.29l-4-4a1,1,0,0,1,0-1.42,1,1,0,0,1,1.41,0l4,4a1,1,0,0,1,0,1.42A1,1,0,0,1,689.87,470.52Z" transform="translate(-577.58 -393.52)"/><path class="cls-4" d="M685.89,470.52a1,1,0,0,1-.71-1.71l4-4a1,1,0,1,1,1.42,1.42l-4,4A1,1,0,0,1,685.89,470.52Z" transform="translate(-577.58 -393.52)"/><path class="cls-8" d="M767.75,604.46V588.79H742.83v15.67c0,6.39-17,11.56-17,11.56H784.7S767.75,610.85,767.75,604.46Z" transform="translate(-577.58 -393.52)"/><path class="cls-10" d="M767.75,600.76v-12H742.83v12Z" transform="translate(-577.58 -393.52)"/><path class="cls-4" d="M784.7,617H725.88a1,1,0,0,1-.29-1.95c6.28-1.92,16.24-6.5,16.24-10.61V588.79a1,1,0,0,1,1-1h24.92a1,1,0,0,1,1,1v15.67c0,4.11,10,8.69,16.24,10.61a1,1,0,0,1-.29,1.95Zm-53.13-2H779c-5.23-2.17-12.27-5.95-12.27-10.56V589.79H743.83v14.67C743.83,609.07,736.8,612.85,731.57,615Z" transform="translate(-577.58 -393.52)"/><path class="cls-11" d="M833.39,476.4H677.19a5,5,0,0,0-4.9,5v99.12h166V481.42A5,5,0,0,0,833.39,476.4Z" transform="translate(-577.58 -393.52)"/><path class="cls-4" d="M838.29,581.54h-166a1,1,0,0,1-1-1V481.42a6,6,0,0,1,5.9-6h156.2a6,6,0,0,1,5.9,6v99.12A1,1,0,0,1,838.29,581.54Zm-165-2h164V481.42a4,4,0,0,0-3.9-4H677.19a4,4,0,0,0-3.9,4Z" transform="translate(-577.58 -393.52)"/><rect class="cls-8" x="102.68" y="90.26" width="150.26" height="89.32"/><rect class="cls-2" x="102.65" y="90.26" width="73.08" height="27.65"/><rect class="cls-2" x="228.14" y="90.26" width="24.83" height="27.65"/><rect class="cls-2" x="189.71" y="90.26" width="29.58" height="27.65"/><rect class="cls-10" x="102.68" y="170.23" width="150.29" height="9.4"/><path class="cls-8" d="M672.29,579.56V586a5,5,0,0,0,4.9,5h156.2a5,5,0,0,0,4.9-5v-6.44Z" transform="translate(-577.58 -393.52)"/><path class="cls-4" d="M833.39,592H677.19a6,6,0,0,1-5.9-6v-6.44a1,1,0,0,1,1-1h166a1,1,0,0,1,1,1V586A6,6,0,0,1,833.39,592Zm-160.1-11.45V586a4,4,0,0,0,3.9,4h156.2a4,4,0,0,0,3.9-4v-5.44Z" transform="translate(-577.58 -393.52)"/><rect class="cls-2" x="102.68" y="90.26" width="150.29" height="8.15"/><path class="cls-4" d="M830.52,574.1H680.26a1,1,0,0,1-1-1V483.78a1,1,0,0,1,1-1H830.52a1,1,0,0,1,1,1V573.1A1,1,0,0,1,830.52,574.1Zm-149.26-2H829.52V484.78H681.26Z" transform="translate(-577.58 -393.52)"/><rect class="cls-12" x="116.73" y="166.64" width="122.15" height="12.94"/><path class="cls-4" d="M816.47,574.1H694.31a1,1,0,0,1-1-1V560.16a1,1,0,0,1,1-1H816.47a1,1,0,0,1,1,1V573.1A1,1,0,0,1,816.47,574.1Zm-121.16-2H815.47V561.16H695.31Z" transform="translate(-577.58 -393.52)"/><rect class="cls-4" x="119.68" y="166.16" width="2" height="7.86"/><rect class="cls-4" x="124.16" y="166.16" width="2" height="4.49"/><rect class="cls-4" x="127.53" y="166.16" width="2" height="7.86"/><rect class="cls-4" x="132.02" y="166.16" width="2" height="4.49"/><rect class="cls-4" x="136.51" y="166.16" width="2" height="7.86"/><rect class="cls-4" x="139.88" y="166.16" width="2" height="4.49"/><rect class="cls-4" x="144.37" y="166.16" width="2" height="7.86"/><rect class="cls-4" x="148.85" y="166.16" width="2" height="4.49"/><rect class="cls-4" x="152.22" y="166.16" width="2" height="7.86"/><rect class="cls-4" x="156.71" y="166.16" width="2" height="4.49"/><rect class="cls-4" x="160.08" y="166.16" width="2" height="7.86"/><rect class="cls-4" x="164.57" y="166.16" width="2" height="4.49"/><rect class="cls-4" x="169.06" y="166.16" width="2" height="7.86"/><rect class="cls-4" x="172.42" y="166.16" width="2" height="4.49"/><rect class="cls-4" x="176.91" y="166.16" width="2" height="7.86"/><rect class="cls-4" x="181.4" y="166.16" width="2" height="4.49"/><rect class="cls-4" x="184.77" y="166.16" width="2" height="7.86"/><rect class="cls-4" x="189.26" y="166.16" width="2" height="4.49"/><rect class="cls-4" x="193.75" y="166.16" width="2" height="7.86"/><rect class="cls-4" x="197.11" y="166.16" width="2" height="4.49"/><rect class="cls-4" x="201.6" y="166.16" width="2" height="7.86"/><rect class="cls-4" x="204.97" y="166.16" width="2" height="4.49"/><rect class="cls-4" x="209.46" y="166.16" width="2" height="7.86"/><rect class="cls-4" x="213.95" y="166.16" width="2" height="4.49"/><rect class="cls-4" x="217.31" y="166.16" width="2" height="7.86"/><rect class="cls-4" x="221.8" y="166.16" width="2" height="4.49"/><rect class="cls-4" x="226.29" y="166.16" width="2" height="7.86"/><rect class="cls-4" x="229.66" y="166.16" width="2" height="4.49"/><rect class="cls-4" x="234.15" y="166.16" width="2" height="7.86"/><rect class="cls-4" x="117.03" y="128.49" width="24" height="2"/><rect class="cls-4" x="161.03" y="128.49" width="30" height="2"/><rect class="cls-4" x="144.03" y="128.49" width="14" height="2"/><rect class="cls-4" x="117.03" y="143.49" width="18" height="2"/><rect class="cls-4" x="149.03" y="143.49" width="22" height="2"/><rect class="cls-4" x="137.03" y="143.49" width="10" height="2"/><rect class="cls-4" x="117.03" y="133.49" width="36" height="2"/><rect class="cls-4" x="183.03" y="133.49" width="44" height="2"/><rect class="cls-4" x="157.03" y="133.49" width="21" height="2"/><rect class="cls-4" x="191.03" y="138.49" width="36" height="2"/><rect class="cls-4" x="117.03" y="138.49" width="44" height="2"/><rect class="cls-4" x="166.03" y="138.49" width="21" height="2"/><rect class="cls-12" x="243.09" y="147.66" width="40.59" height="74.76" rx="6.62" ry="6.62"/><path class="cls-4" d="M854.64,616.94H827.29a7.63,7.63,0,0,1-7.62-7.62V547.81a7.63,7.63,0,0,1,7.62-7.62h27.35a7.63,7.63,0,0,1,7.62,7.62v61.51A7.63,7.63,0,0,1,854.64,616.94Zm-27.35-74.75a5.62,5.62,0,0,0-5.62,5.62v61.51a5.62,5.62,0,0,0,5.62,5.62h27.35a5.62,5.62,0,0,0,5.62-5.62V547.81a5.62,5.62,0,0,0-5.62-5.62Z" transform="translate(-577.58 -393.52)"/><rect class="cls-8" x="245.9" y="155.57" width="34.96" height="58.79"/><rect class="cls-2" x="245.9" y="155.57" width="17" height="15.21"/><rect class="cls-2" x="275.09" y="155.57" width="5.78" height="15.21"/><rect class="cls-2" x="266.15" y="155.57" width="6.88" height="15.21"/><path class="cls-4" d="M841,546.24a1.75,1.75,0,1,1,1.74-1.75A1.75,1.75,0,0,1,841,546.24Zm0-2a.25.25,0,0,0-.26.25c0,.29.52.29.52,0A.26.26,0,0,0,841,544.24Z" transform="translate(-577.58 -393.52)"/><path class="cls-4" d="M843.09,614.21h-4.25a2.63,2.63,0,0,1,0-5.25h4.25a2.63,2.63,0,0,1,0,5.25ZM838.84,611a.63.63,0,0,0,0,1.25h4.25a.63.63,0,0,0,0-1.25Z" transform="translate(-577.58 -393.52)"/><path class="cls-4" d="M846.36,547.39H835.57a1,1,0,0,1,0-2h10.79a1,1,0,0,1,0,2Z" transform="translate(-577.58 -393.52)"/><rect class="cls-4" x="248.03" y="180.49" width="10" height="2"/><rect class="cls-4" x="266.03" y="180.49" width="13" height="2"/><rect class="cls-4" x="260.03" y="180.49" width="5" height="2"/><rect class="cls-4" x="248.03" y="195.49" width="7" height="2"/><rect class="cls-4" x="262.03" y="195.49" width="8" height="2"/><rect class="cls-4" x="256.03" y="195.49" width="5" height="2"/><rect class="cls-4" x="248.03" y="185.49" width="15" height="2"/><rect class="cls-4" x="265.03" y="185.49" width="8" height="2"/><rect class="cls-4" x="248.03" y="190.49" width="18" height="2"/><path class="cls-4" d="M912.61,553h-3.94c-2,0-2.8-2.13-3.53-4-.44-1.16-1-2.74-1.66-2.74s-1.2,1.44-1.67,2.59c-.73,1.8-1.56,3.84-3.52,3.84s-2.8-2-3.53-3.81c-.47-1.14-1.06-2.56-1.68-2.56s-1.24,1.57-1.69,2.71c-.73,1.87-1.57,4-3.54,4h-5.24a1,1,0,1,1,0-2h5.24c.61,0,1.23-1.56,1.68-2.71.74-1.87,1.57-4,3.55-4s2.79,2,3.53,3.8c.47,1.15,1,2.57,1.68,2.57s1.2-1.43,1.67-2.59c.72-1.8,1.55-3.84,3.52-3.84s2.8,2.14,3.53,4c.44,1.15,1,2.73,1.66,2.73h3.94a1,1,0,0,1,0,2Z" transform="translate(-577.58 -393.52)"/><path class="cls-4" d="M640.61,493h-3.94c-2,0-2.8-2.13-3.53-4-.44-1.16-1-2.74-1.66-2.74s-1.2,1.44-1.67,2.59c-.73,1.8-1.56,3.84-3.52,3.84s-2.8-2-3.53-3.81c-.47-1.14-1.06-2.56-1.68-2.56s-1.24,1.57-1.69,2.71c-.73,1.87-1.57,4-3.54,4h-5.24a1,1,0,1,1,0-2h5.24c.61,0,1.23-1.56,1.68-2.71.74-1.87,1.57-4,3.55-4s2.79,2,3.53,3.8c.47,1.15,1,2.57,1.68,2.57s1.2-1.43,1.67-2.59c.72-1.8,1.55-3.84,3.52-3.84s2.8,2.14,3.53,4c.44,1.15,1,2.73,1.66,2.73h3.94a1,1,0,0,1,0,2Z" transform="translate(-577.58 -393.52)"/><path class="cls-4" d="M749.61,454h-3.94c-2,0-2.8-2.13-3.53-4-.44-1.16-1-2.74-1.66-2.74s-1.2,1.44-1.67,2.59c-.73,1.8-1.56,3.84-3.52,3.84s-2.8-2-3.53-3.81c-.47-1.14-1.06-2.56-1.68-2.56s-1.24,1.57-1.69,2.71c-.73,1.87-1.57,4-3.54,4h-5.24a1,1,0,1,1,0-2h5.24c.61,0,1.23-1.56,1.68-2.71.74-1.87,1.57-4,3.55-4s2.79,2,3.53,3.8c.47,1.15,1,2.57,1.68,2.57s1.2-1.43,1.67-2.59c.72-1.8,1.55-3.84,3.52-3.84s2.8,2.14,3.53,4c.44,1.15,1,2.73,1.66,2.73h3.94a1,1,0,0,1,0,2Z" transform="translate(-577.58 -393.52)"/></svg>